SplineFontDB: 3.2
FontName: AspireSC-Regular
FullName: ☞Aspire SC
FamilyName: AspireSC-Regular
Weight: Book
Copyright: Copyright (c) 2018 by Grype for Astigmatic (AOETI). All rights reserved.
Version: 1.000;com.myfonts.easy.grype.aspire-smallcaps.regular.wfkit2.version.5aXs
ItalicAngle: 0
UnderlinePosition: -150
UnderlineWidth: 50
Ascent: 854
Descent: 146
InvalidEm: 0
sfntRevision: 0x00010000
LayerCount: 2
Layer: 0 1 "Back" 1
Layer: 1 1 "Fore" 0
XUID: [1021 753 1818206395 8267]
StyleMap: 0x0040
FSType: 0
OS2Version: 3
OS2_WeightWidthSlopeOnly: 0
OS2_UseTypoMetrics: 0
CreationTime: 1530924112
ModificationTime: 1573319076
PfmFamily: 17
TTFWeight: 400
TTFWidth: 8
LineGap: 338
VLineGap: 0
Panose: 2 11 6 5 3 2 3 2 2 7
OS2TypoAscent: 854
OS2TypoAOffset: 0
OS2TypoDescent: -146
OS2TypoDOffset: 0
OS2TypoLinegap: 338
OS2WinAscent: 1161
OS2WinAOffset: 0
OS2WinDescent: 177
OS2WinDOffset: 0
HheadAscent: 854
HheadAOffset: 0
HheadDescent: -146
HheadDOffset: 0
OS2SubXSize: 700
OS2SubYSize: 650
OS2SubXOff: 0
OS2SubYOff: 140
OS2SupXSize: 700
OS2SupYSize: 650
OS2SupXOff: 0
OS2SupYOff: 477
OS2StrikeYSize: 50
OS2StrikeYPos: 250
OS2CapHeight: 720
OS2XHeight: 612
OS2Vendor: 'GRYP'
OS2CodePages: 00000093.00000000
OS2UnicodeRanges: a000006f.4000204a.00000000.00000000
Lookup: 1 0 0 "'aalt' Access All Alternates lookup 0" { "'aalt' Access All Alternates lookup 0 subtable"  } ['aalt' ('DFLT' <'dflt' > ) ]
Lookup: 3 0 0 "'aalt' Access All Alternates lookup 1" { "'aalt' Access All Alternates lookup 1 subtable"  } ['aalt' ('DFLT' <'dflt' > ) ]
Lookup: 1 0 0 "'sups' Superscript lookup 2" { "'sups' Superscript lookup 2 subtable" ("superior") } ['sups' ('DFLT' <'dflt' > ) ]
Lookup: 4 0 1 "'liga' Standard Ligatures lookup 3" { "'liga' Standard Ligatures lookup 3 subtable"  } ['liga' ('DFLT' <'dflt' > ) ]
Lookup: 6 0 0 "'ordn' Ordinals lookup 4" { "'ordn' Ordinals lookup 4 subtable"  } ['ordn' ('DFLT' <'dflt' > ) ]

StartChar: exclam
Encoding: 33 33 5
Width: 334
GlyphClass: 2
Flags: W
LayerCount: 2
Fore
SplineSet
274 720 m 1,0,-1
 233 219 l 1,1,-1
 101 219 l 1,2,-1
 60 720 l 1,3,-1
 274 720 l 1,0,-1
76 143 m 1,4,-1
 258 143 l 1,5,-1
 258 0 l 1,6,-1
 76 0 l 1,7,-1
 76 143 l 1,4,-1
EndSplineSet
Validated: 1
EndChar

StartChar: quotedbl
Encoding: 34 34 6
Width: 508
GlyphClass: 2
Flags: W
LayerCount: 2
Fore
SplineSet
448 804 m 1,0,-1
 415 516 l 1,1,-1
 302 516 l 1,2,-1
 268 804 l 1,3,-1
 448 804 l 1,0,-1
241 804 m 1,4,-1
 207 516 l 1,5,-1
 94 516 l 1,6,-1
 60 804 l 1,7,-1
 241 804 l 1,4,-1
EndSplineSet
Validated: 1
EndChar

StartChar: numbersign
Encoding: 35 35 7
Width: 722
GlyphClass: 2
Flags: W
LayerCount: 2
Fore
SplineSet
223 512 m 1,0,-1
 259 665 l 1,1,-1
 376 665 l 1,2,-1
 340 512 l 1,3,-1
 454 512 l 1,4,-1
 490 665 l 1,5,-1
 606 665 l 1,6,-1
 570 512 l 1,7,-1
 662 512 l 1,8,-1
 645 421 l 1,9,-1
 548 421 l 1,10,-1
 520 299 l 1,11,-1
 622 299 l 1,12,-1
 605 209 l 1,13,-1
 499 209 l 1,14,-1
 463 56 l 1,15,-1
 347 56 l 1,16,-1
 383 209 l 1,17,-1
 269 209 l 1,18,-1
 233 56 l 1,19,-1
 116 56 l 1,20,-1
 152 209 l 1,21,-1
 60 209 l 1,22,-1
 77 299 l 1,23,-1
 173 299 l 1,24,-1
 201 421 l 1,25,-1
 100 421 l 1,26,-1
 118 512 l 1,27,-1
 223 512 l 1,0,-1
290 299 m 1,28,-1
 404 299 l 1,29,-1
 432 421 l 1,30,-1
 318 421 l 1,31,-1
 290 299 l 1,28,-1
EndSplineSet
Validated: 1
EndChar

StartChar: dollar
Encoding: 36 36 8
Width: 1031
GlyphClass: 2
Flags: W
LayerCount: 2
Fore
SplineSet
596 780 m 1,0,-1
 596 670 l 1,1,-1
 938 670 l 1,2,-1
 938 527 l 1,3,-1
 265 527 l 2,4,5
 248 527 248 527 235.5 516.5 c 128,-1,6
 223 506 223 506 223 489 c 2,7,-1
 223 470 l 2,8,9
 223 453 223 453 235.5 442.5 c 128,-1,10
 248 432 248 432 266 432 c 2,11,-1
 804 432 l 2,12,13
 892 432 892 432 931.5 389 c 128,-1,14
 971 346 971 346 971 272 c 2,15,-1
 971 195 l 2,16,17
 971 164 971 164 961.5 138 c 128,-1,18
 952 112 952 112 931.5 92.5 c 128,-1,19
 911 73 911 73 879.5 62 c 128,-1,20
 848 51 848 51 804 51 c 2,21,-1
 596 51 l 1,22,-1
 596 -60 l 1,23,-1
 434 -60 l 1,24,-1
 434 51 l 1,25,-1
 75 51 l 1,26,-1
 75 194 l 1,27,-1
 765 194 l 2,28,29
 787 194 787 194 797.5 205.5 c 128,-1,30
 808 217 808 217 808 234 c 2,31,-1
 808 249 l 2,32,33
 808 270 808 270 795.5 279.5 c 128,-1,34
 783 289 783 289 765 289 c 2,35,-1
 215 289 l 2,36,37
 181 289 181 289 152.5 300.5 c 128,-1,38
 124 312 124 312 103.5 332 c 128,-1,39
 83 352 83 352 71.5 380 c 128,-1,40
 60 408 60 408 60 440 c 2,41,-1
 60 519 l 2,42,43
 60 553 60 553 71.5 581 c 128,-1,44
 83 609 83 609 104 628.5 c 128,-1,45
 125 648 125 648 154 659 c 128,-1,46
 183 670 183 670 217 670 c 2,47,-1
 434 670 l 1,48,-1
 434 780 l 1,49,-1
 596 780 l 1,0,-1
EndSplineSet
Validated: 1
Substitution2: "'ss03' Style Set 3 lookup 9 subtable" dollar.alt
Substitution2: "'salt' Stylistic Alternatives lookup 6 subtable" dollar.alt
Substitution2: "'aalt' Access All Alternates lookup 0 subtable" dollar.alt
EndChar

StartChar: percent
Encoding: 37 37 9
Width: 1014
GlyphClass: 3
Flags: W
LayerCount: 2
Fore
SplineSet
809 720 m 1,0,-1
 331 0 l 1,1,-1
 205 0 l 1,2,-1
 684 720 l 1,3,-1
 809 720 l 1,0,-1
332 595 m 2,4,5
 332 609 332 609 323 618.5 c 128,-1,6
 314 628 314 628 300 628 c 2,7,-1
 193 628 l 2,8,9
 179 628 179 628 169.5 618.5 c 128,-1,10
 160 609 160 609 160 595 c 2,11,-1
 160 484 l 2,12,13
 160 471 160 471 169.5 461.5 c 128,-1,14
 179 452 179 452 193 452 c 2,15,-1
 300 452 l 2,16,17
 314 452 314 452 323 461.5 c 128,-1,18
 332 471 332 471 332 484 c 2,19,-1
 332 595 l 2,4,5
332 720 m 2,20,21
 355 720 355 720 375 711 c 128,-1,22
 395 702 395 702 410 687 c 128,-1,23
 425 672 425 672 433.5 652 c 128,-1,24
 442 632 442 632 442 610 c 2,25,-1
 442 470 l 2,26,27
 442 447 442 447 433.5 427 c 128,-1,28
 425 407 425 407 410 392 c 128,-1,29
 395 377 395 377 375 368.5 c 128,-1,30
 355 360 355 360 332 360 c 2,31,-1
 160 360 l 2,32,33
 137 360 137 360 117 368.5 c 128,-1,34
 97 377 97 377 82 392 c 128,-1,35
 67 407 67 407 58.5 427 c 128,-1,36
 50 447 50 447 50 470 c 2,37,-1
 50 610 l 2,38,39
 50 632 50 632 58.5 652 c 128,-1,40
 67 672 67 672 82 687 c 128,-1,41
 97 702 97 702 117 711 c 128,-1,42
 137 720 137 720 160 720 c 2,43,-1
 332 720 l 2,20,21
854 235 m 2,44,45
 854 249 854 249 845 258.5 c 128,-1,46
 836 268 836 268 822 268 c 2,47,-1
 715 268 l 2,48,49
 701 268 701 268 691.5 258.5 c 128,-1,50
 682 249 682 249 682 235 c 2,51,-1
 682 124 l 2,52,53
 682 111 682 111 691.5 101.5 c 128,-1,54
 701 92 701 92 715 92 c 2,55,-1
 822 92 l 2,56,57
 836 92 836 92 845 101.5 c 128,-1,58
 854 111 854 111 854 124 c 2,59,-1
 854 235 l 2,44,45
854 360 m 2,60,61
 877 360 877 360 897 351 c 128,-1,62
 917 342 917 342 932 327 c 128,-1,63
 947 312 947 312 955.5 292 c 128,-1,64
 964 272 964 272 964 250 c 2,65,-1
 964 110 l 2,66,67
 964 87 964 87 955.5 67 c 128,-1,68
 947 47 947 47 932 32 c 128,-1,69
 917 17 917 17 897 8.5 c 128,-1,70
 877 0 877 0 854 0 c 2,71,-1
 682 0 l 2,72,73
 659 0 659 0 639 8.5 c 128,-1,74
 619 17 619 17 604 32 c 128,-1,75
 589 47 589 47 580.5 67 c 128,-1,76
 572 87 572 87 572 110 c 2,77,-1
 572 250 l 2,78,79
 572 272 572 272 580.5 292 c 128,-1,80
 589 312 589 312 604 327 c 128,-1,81
 619 342 619 342 639 351 c 128,-1,82
 659 360 659 360 682 360 c 2,83,-1
 854 360 l 2,60,61
EndSplineSet
Validated: 1
Ligature2: "Ligature Substitution lookup 12 subtable" zero slash zero
Ligature2: "Ligature Substitution lookup 12 subtable" zero fraction zero
EndChar

StartChar: ampersand
Encoding: 38 38 10
Width: 1078
GlyphClass: 2
Flags: W
LayerCount: 2
Fore
SplineSet
759 720 m 1,0,-1
 759 577 l 1,1,-1
 356 577 l 2,2,3
 342 577 342 577 333.5 568.5 c 128,-1,4
 325 560 325 560 325 546 c 2,5,-1
 325 518 l 2,6,7
 325 502 325 502 333 493 c 128,-1,8
 341 484 341 484 355 476 c 2,9,-1
 847 177 l 1,10,-1
 847 372 l 1,11,-1
 1018 372 l 1,12,-1
 1018 146 l 2,13,14
 1018 116 1018 116 1006.5 89.5 c 128,-1,15
 995 63 995 63 975.5 43 c 128,-1,16
 956 23 956 23 929 11.5 c 128,-1,17
 902 0 902 0 872 0 c 2,18,-1
 206 0 l 2,19,20
 177 0 177 0 150.5 11.5 c 128,-1,21
 124 23 124 23 104 42.5 c 128,-1,22
 84 62 84 62 72 89 c 128,-1,23
 60 116 60 116 60 146 c 2,24,-1
 60 265 l 2,25,26
 60 293 60 293 70 318 c 128,-1,27
 80 343 80 343 97 362.5 c 128,-1,28
 114 382 114 382 138 395 c 128,-1,29
 162 408 162 408 189 411 c 1,30,31
 170 428 170 428 159.5 449 c 128,-1,32
 149 470 149 470 149 499 c 2,33,-1
 149 586 l 2,34,35
 149 647 149 647 187 683.5 c 128,-1,36
 225 720 225 720 296 720 c 2,37,-1
 759 720 l 1,0,-1
240 174 m 2,38,39
 240 161 240 161 248.5 152 c 128,-1,40
 257 143 257 143 270 143 c 2,41,-1
 624 143 l 1,42,-1
 384 289 l 1,43,-1
 270 289 l 2,44,45
 257 289 257 289 248.5 280 c 128,-1,46
 240 271 240 271 240 258 c 2,47,-1
 240 174 l 2,38,39
EndSplineSet
Validated: 1
Substitution2: "'ss03' Style Set 3 lookup 9 subtable" ampersand.alt
Substitution2: "'salt' Stylistic Alternatives lookup 6 subtable" ampersand.alt
Substitution2: "'aalt' Access All Alternates lookup 0 subtable" ampersand.alt
EndChar

StartChar: quotesingle
Encoding: 39 39 11
Width: 241
GlyphClass: 2
Flags: W
LayerCount: 2
Fore
SplineSet
211 804 m 1,0,-1
 177 516 l 1,1,-1
 64 516 l 1,2,-1
 30 804 l 1,3,-1
 211 804 l 1,0,-1
EndSplineSet
Validated: 1
EndChar

StartChar: parenleft
Encoding: 40 40 12
Width: 476
GlyphClass: 2
Flags: W
LayerCount: 2
Fore
SplineSet
456 800 m 1,0,1
 390 748 390 748 339 675 c 0,2,3
 317 644 317 644 296 605 c 128,-1,4
 275 566 275 566 258.5 520 c 128,-1,5
 242 474 242 474 232 420.5 c 128,-1,6
 222 367 222 367 222 307 c 256,7,8
 222 247 222 247 232 194.5 c 128,-1,9
 242 142 242 142 258.5 96 c 128,-1,10
 275 50 275 50 295.5 11.5 c 128,-1,11
 316 -27 316 -27 338 -58 c 0,12,13
 389 -131 389 -131 454 -185 c 1,14,-1
 273 -185 l 1,15,16
 232 -149 232 -149 194 -102 c 128,-1,17
 156 -55 156 -55 126 6 c 128,-1,18
 96 67 96 67 78 142 c 128,-1,19
 60 217 60 217 60 307 c 0,20,21
 60 398 60 398 78 472.5 c 128,-1,22
 96 547 96 547 126 608 c 128,-1,23
 156 669 156 669 194 716.5 c 128,-1,24
 232 764 232 764 273 800 c 1,25,-1
 456 800 l 1,0,1
EndSplineSet
Validated: 1
EndChar

StartChar: parenright
Encoding: 41 41 13
Width: 476
GlyphClass: 2
Flags: W
LayerCount: 2
Fore
SplineSet
203 800 m 1,0,1
 243 764 243 764 281.5 716.5 c 128,-1,2
 320 669 320 669 350 608 c 128,-1,3
 380 547 380 547 398 472.5 c 128,-1,4
 416 398 416 398 416 307 c 0,5,6
 416 217 416 217 398 142 c 128,-1,7
 380 67 380 67 350 6 c 128,-1,8
 320 -55 320 -55 281.5 -102 c 128,-1,9
 243 -149 243 -149 203 -185 c 1,10,-1
 22 -185 l 1,11,12
 87 -131 87 -131 138 -58 c 0,13,14
 160 -27 160 -27 180.5 11.5 c 128,-1,15
 201 50 201 50 217.5 96 c 128,-1,16
 234 142 234 142 244 194.5 c 128,-1,17
 254 247 254 247 254 307 c 256,18,19
 254 367 254 367 244 420.5 c 128,-1,20
 234 474 234 474 217.5 520 c 128,-1,21
 201 566 201 566 180 605 c 128,-1,22
 159 644 159 644 137 675 c 0,23,24
 85 748 85 748 20 800 c 1,25,-1
 203 800 l 1,0,1
EndSplineSet
Validated: 1
EndChar

StartChar: asterisk
Encoding: 42 42 14
Width: 658
GlyphClass: 2
Flags: W
LayerCount: 2
Fore
SplineSet
264 800 m 1,0,-1
 394 800 l 1,1,-1
 373 605 l 1,2,-1
 533 720 l 1,3,-1
 598 608 l 1,4,-1
 418 527 l 1,5,-1
 598 447 l 1,6,-1
 533 335 l 1,7,-1
 373 450 l 1,8,-1
 393 254 l 1,9,-1
 264 254 l 1,10,-1
 284 450 l 1,11,-1
 125 335 l 1,12,-1
 60 447 l 1,13,-1
 240 527 l 1,14,-1
 60 608 l 1,15,-1
 125 720 l 1,16,-1
 284 605 l 1,17,-1
 264 800 l 1,0,-1
EndSplineSet
Validated: 1
EndChar

StartChar: plus
Encoding: 43 43 15
Width: 695
GlyphClass: 2
Flags: W
LayerCount: 2
Fore
SplineSet
419 647 m 1,0,-1
 419 432 l 1,1,-1
 635 432 l 1,2,-1
 635 288 l 1,3,-1
 419 288 l 1,4,-1
 419 73 l 1,5,-1
 276 73 l 1,6,-1
 276 288 l 1,7,-1
 60 288 l 1,8,-1
 60 432 l 1,9,-1
 276 432 l 1,10,-1
 276 647 l 1,11,-1
 419 647 l 1,0,-1
EndSplineSet
Validated: 1
EndChar

StartChar: comma
Encoding: 44 44 16
Width: 302
GlyphClass: 2
Flags: W
LayerCount: 2
Fore
SplineSet
242 163 m 1,0,-1
 242 0 l 1,1,-1
 161 -132 l 1,2,-1
 58 -132 l 1,3,-1
 141 0 l 1,4,-1
 60 0 l 1,5,-1
 60 163 l 1,6,-1
 242 163 l 1,0,-1
EndSplineSet
Validated: 1
EndChar

StartChar: hyphen
Encoding: 45 45 17
Width: 565
GlyphClass: 2
Flags: W
LayerCount: 2
Fore
SplineSet
515 388 m 1,0,-1
 515 232 l 1,1,-1
 50 232 l 1,2,-1
 50 388 l 1,3,-1
 515 388 l 1,0,-1
EndSplineSet
Validated: 1
EndChar

StartChar: period
Encoding: 46 46 18
Width: 302
GlyphClass: 2
Flags: W
LayerCount: 2
Fore
SplineSet
60 163 m 1,0,-1
 242 163 l 1,1,-1
 242 0 l 1,2,-1
 60 0 l 1,3,-1
 60 163 l 1,0,-1
EndSplineSet
Validated: 1
EndChar

StartChar: slash
Encoding: 47 47 19
Width: 806
GlyphClass: 2
Flags: W
LayerCount: 2
Fore
SplineSet
746 720 m 1,0,-1
 240 0 l 1,1,-1
 60 0 l 1,2,-1
 566 720 l 1,3,-1
 746 720 l 1,0,-1
EndSplineSet
Validated: 1
EndChar

StartChar: zero
Encoding: 48 48 20
Width: 1094
GlyphClass: 2
Flags: W
LayerCount: 2
Fore
SplineSet
814 720 m 2,0,1
 859 720 859 720 899 702.5 c 128,-1,2
 939 685 939 685 969 655 c 128,-1,3
 999 625 999 625 1016.5 584.5 c 128,-1,4
 1034 544 1034 544 1034 499 c 2,5,-1
 1034 220 l 2,6,7
 1034 174 1034 174 1016.5 134 c 128,-1,8
 999 94 999 94 969 64 c 128,-1,9
 939 34 939 34 899 17 c 128,-1,10
 859 0 859 0 814 0 c 2,11,-1
 280 0 l 2,12,13
 235 0 235 0 195 17 c 128,-1,14
 155 34 155 34 125 64 c 128,-1,15
 95 94 95 94 77.5 134 c 128,-1,16
 60 174 60 174 60 220 c 2,17,-1
 60 499 l 2,18,19
 60 544 60 544 77.5 584.5 c 128,-1,20
 95 625 95 625 125 655 c 128,-1,21
 155 685 155 685 195 702.5 c 128,-1,22
 235 720 235 720 280 720 c 2,23,-1
 814 720 l 2,0,1
854 513 m 2,24,25
 854 539 854 539 835 558 c 128,-1,26
 816 577 816 577 789 577 c 2,27,-1
 305 577 l 2,28,29
 278 577 278 577 259.5 558 c 128,-1,30
 241 539 241 539 241 513 c 2,31,-1
 241 208 l 2,32,33
 241 182 241 182 259.5 163 c 128,-1,34
 278 144 278 144 305 143 c 2,35,-1
 789 143 l 2,36,37
 816 144 816 144 835 163 c 128,-1,38
 854 182 854 182 854 208 c 2,39,-1
 854 513 l 2,24,25
EndSplineSet
Validated: 1
EndChar

StartChar: one
Encoding: 49 49 21
Width: 414
GlyphClass: 2
Flags: W
LayerCount: 2
Fore
SplineSet
354 720 m 1,0,-1
 354 0 l 1,1,-1
 173 0 l 1,2,-1
 173 577 l 1,3,-1
 20 577 l 1,4,-1
 20 720 l 1,5,-1
 354 720 l 1,0,-1
EndSplineSet
Validated: 1
Substitution2: "'sups' Superscript lookup 2 subtable" onesuperior
Substitution2: "'aalt' Access All Alternates lookup 0 subtable" onesuperior
EndChar

StartChar: two
Encoding: 50 50 22
Width: 994
GlyphClass: 2
Flags: W
LayerCount: 2
Fore
SplineSet
749 720 m 2,0,1
 787 720 787 720 821 707 c 128,-1,2
 855 694 855 694 880 671 c 128,-1,3
 905 648 905 648 919.5 616 c 128,-1,4
 934 584 934 584 934 546 c 2,5,-1
 934 450 l 2,6,7
 934 414 934 414 919.5 384.5 c 128,-1,8
 905 355 905 355 880 334 c 128,-1,9
 855 313 855 313 821 301 c 128,-1,10
 787 289 787 289 749 289 c 2,11,-1
 293 289 l 2,12,13
 271 289 271 289 256 273.5 c 128,-1,14
 241 258 241 258 240 236 c 2,15,-1
 240 143 l 1,16,-1
 917 143 l 1,17,-1
 917 0 l 1,18,-1
 60 0 l 1,19,-1
 60 248 l 2,20,21
 60 289 60 289 71 323 c 128,-1,22
 82 357 82 357 104.5 381 c 128,-1,23
 127 405 127 405 161.5 418.5 c 128,-1,24
 196 432 196 432 245 432 c 2,25,-1
 701 432 l 2,26,27
 726 432 726 432 739.5 447.5 c 128,-1,28
 753 463 753 463 754 485 c 2,29,-1
 754 524 l 2,30,31
 754 546 754 546 739.5 561.5 c 128,-1,32
 725 577 725 577 701 577 c 2,33,-1
 96 577 l 1,34,-1
 96 720 l 1,35,-1
 749 720 l 2,0,1
EndSplineSet
Validated: 1
Substitution2: "'sups' Superscript lookup 2 subtable" twosuperior
Substitution2: "'aalt' Access All Alternates lookup 0 subtable" twosuperior
EndChar

StartChar: three
Encoding: 51 51 23
Width: 994
GlyphClass: 2
Flags: W
LayerCount: 2
Fore
SplineSet
749 720 m 2,0,1
 787 720 787 720 821 707 c 128,-1,2
 855 694 855 694 880 671 c 128,-1,3
 905 648 905 648 919.5 616 c 128,-1,4
 934 584 934 584 934 546 c 2,5,-1
 934 483 l 2,6,7
 934 463 934 463 927 443.5 c 128,-1,8
 920 424 920 424 908 407 c 128,-1,9
 896 390 896 390 879 377.5 c 128,-1,10
 862 365 862 365 841 361 c 1,11,12
 862 356 862 356 879 342.5 c 128,-1,13
 896 329 896 329 908.5 310.5 c 128,-1,14
 921 292 921 292 927.5 271 c 128,-1,15
 934 250 934 250 934 231 c 2,16,-1
 934 168 l 2,17,18
 934 134 934 134 923 103.5 c 128,-1,19
 912 73 912 73 889.5 50 c 128,-1,20
 867 27 867 27 832.5 13.5 c 128,-1,21
 798 0 798 0 749 0 c 2,22,-1
 60 0 l 1,23,-1
 60 143 l 1,24,-1
 700 143 l 2,25,26
 724 143 724 143 738.5 158.5 c 128,-1,27
 753 174 753 174 754 196 c 2,28,-1
 754 237 l 2,29,30
 753 259 753 259 739.5 274 c 128,-1,31
 726 289 726 289 701 289 c 2,32,-1
 200 289 l 1,33,-1
 200 432 l 1,34,-1
 700 432 l 2,35,36
 729 432 729 432 741.5 448 c 128,-1,37
 754 464 754 464 754 485 c 2,38,-1
 754 524 l 2,39,40
 754 546 754 546 741.5 561.5 c 128,-1,41
 729 577 729 577 701 577 c 2,42,-1
 62 577 l 1,43,-1
 62 720 l 1,44,-1
 749 720 l 2,0,1
EndSplineSet
Validated: 1
Substitution2: "'sups' Superscript lookup 2 subtable" threesuperior
Substitution2: "'aalt' Access All Alternates lookup 0 subtable" threesuperior
EndChar

StartChar: four
Encoding: 52 52 24
Width: 994
GlyphClass: 2
Flags: W
LayerCount: 2
Fore
SplineSet
934 720 m 1,0,-1
 934 0 l 1,1,-1
 753 0 l 1,2,-1
 753 205 l 1,3,-1
 60 205 l 1,4,-1
 62 720 l 1,5,-1
 243 720 l 1,6,-1
 243 348 l 1,7,-1
 753 348 l 1,8,-1
 753 720 l 1,9,-1
 934 720 l 1,0,-1
EndSplineSet
Validated: 1
Substitution2: "'ss03' Style Set 3 lookup 9 subtable" four.alt
Substitution2: "'salt' Stylistic Alternatives lookup 6 subtable" four.alt
Substitution2: "'aalt' Access All Alternates lookup 0 subtable" four.alt
EndChar

StartChar: five
Encoding: 53 53 25
Width: 994
GlyphClass: 2
Flags: W
LayerCount: 2
Fore
SplineSet
898 720 m 1,0,-1
 898 577 l 1,1,-1
 241 577 l 1,2,-1
 241 432 l 1,3,-1
 749 432 l 2,4,5
 846 432 846 432 890 381 c 128,-1,6
 934 330 934 330 934 248 c 2,7,-1
 934 185 l 2,8,9
 934 151 934 151 923.5 118 c 128,-1,10
 913 85 913 85 890.5 58.5 c 128,-1,11
 868 32 868 32 833 16 c 128,-1,12
 798 0 798 0 749 0 c 2,13,-1
 60 0 l 1,14,-1
 60 143 l 1,15,-1
 701 143 l 2,16,17
 726 143 726 143 740 157 c 128,-1,18
 754 171 754 171 754 193 c 2,19,-1
 754 239 l 2,20,21
 754 261 754 261 740.5 275 c 128,-1,22
 727 289 727 289 701 289 c 2,23,-1
 60 289 l 1,24,-1
 60 720 l 1,25,-1
 898 720 l 1,0,-1
EndSplineSet
Validated: 1
EndChar

StartChar: six
Encoding: 54 54 26
Width: 1078
GlyphClass: 2
Flags: W
LayerCount: 2
Fore
SplineSet
982 720 m 1,0,-1
 982 577 l 1,1,-1
 293 577 l 2,2,3
 271 577 271 577 255.5 561.5 c 128,-1,4
 240 546 240 546 240 524 c 2,5,-1
 240 432 l 1,6,-1
 833 432 l 2,7,8
 930 432 930 432 974 381 c 128,-1,9
 1018 330 1018 330 1018 248 c 2,10,-1
 1018 175 l 2,11,12
 1018 141 1018 141 1007.5 109.5 c 128,-1,13
 997 78 997 78 974.5 53.5 c 128,-1,14
 952 29 952 29 917 14.5 c 128,-1,15
 882 0 882 0 833 0 c 2,16,-1
 245 0 l 2,17,18
 207 0 207 0 173 14.5 c 128,-1,19
 139 29 139 29 114 54 c 128,-1,20
 89 79 89 79 74.5 113 c 128,-1,21
 60 147 60 147 60 185 c 2,22,-1
 60 535 l 2,23,24
 60 573 60 573 74.5 607 c 128,-1,25
 89 641 89 641 114 666 c 128,-1,26
 139 691 139 691 173 705.5 c 128,-1,27
 207 720 207 720 245 720 c 2,28,-1
 982 720 l 1,0,-1
838 236 m 2,29,30
 838 258 838 258 824.5 273.5 c 128,-1,31
 811 289 811 289 785 289 c 2,32,-1
 240 289 l 1,33,-1
 240 197 l 2,34,35
 240 174 240 174 255.5 158.5 c 128,-1,36
 271 143 271 143 293 143 c 2,37,-1
 785 143 l 2,38,39
 812 143 812 143 825 158.5 c 128,-1,40
 838 174 838 174 838 196 c 2,41,-1
 838 236 l 2,29,30
EndSplineSet
Validated: 1
EndChar

StartChar: seven
Encoding: 55 55 27
Width: 1014
GlyphClass: 2
Flags: W
LayerCount: 2
Fore
SplineSet
974 720 m 1,0,-1
 974 577 l 1,1,-1
 468 0 l 1,2,-1
 254 0 l 1,3,-1
 760 577 l 1,4,-1
 50 577 l 1,5,-1
 50 720 l 1,6,-1
 974 720 l 1,0,-1
EndSplineSet
Validated: 1
EndChar

StartChar: eight
Encoding: 56 56 28
Width: 1078
GlyphClass: 2
Flags: W
LayerCount: 2
Fore
SplineSet
833 720 m 2,0,1
 882 720 882 720 917 704 c 128,-1,2
 952 688 952 688 974.5 661.5 c 128,-1,3
 997 635 997 635 1007.5 602 c 128,-1,4
 1018 569 1018 569 1018 535 c 2,5,-1
 1018 506 l 2,6,7
 1017 457 1017 457 1002.5 419 c 128,-1,8
 988 381 988 381 956 357 c 1,9,10
 988 330 988 330 1003 292 c 128,-1,11
 1018 254 1018 254 1018 214 c 2,12,-1
 1018 184 l 2,13,14
 1018 143 1018 143 1007 109 c 128,-1,15
 996 75 996 75 973.5 51 c 128,-1,16
 951 27 951 27 916.5 13.5 c 128,-1,17
 882 0 882 0 833 0 c 2,18,-1
 245 0 l 2,19,20
 196 0 196 0 161.5 13.5 c 128,-1,21
 127 27 127 27 104.5 51 c 128,-1,22
 82 75 82 75 71 109 c 128,-1,23
 60 143 60 143 60 184 c 2,24,-1
 60 214 l 2,25,26
 61 254 61 254 75.5 292 c 128,-1,27
 90 330 90 330 122 357 c 1,28,29
 90 381 90 381 75.5 419 c 128,-1,30
 61 457 61 457 60 506 c 2,31,-1
 60 535 l 2,32,33
 60 569 60 569 71 602 c 128,-1,34
 82 635 82 635 104.5 661.5 c 128,-1,35
 127 688 127 688 161.5 704 c 128,-1,36
 196 720 196 720 245 720 c 2,37,-1
 833 720 l 2,0,1
838 237 m 2,38,39
 838 259 838 259 824 274 c 128,-1,40
 810 289 810 289 785 289 c 2,41,-1
 293 289 l 2,42,43
 269 289 269 289 254.5 274 c 128,-1,44
 240 259 240 259 240 237 c 2,45,-1
 240 196 l 2,46,47
 240 174 240 174 254 158.5 c 128,-1,48
 268 143 268 143 293 143 c 2,49,-1
 785 143 l 2,50,51
 810 143 810 143 824 158.5 c 128,-1,52
 838 174 838 174 838 196 c 2,53,-1
 838 237 l 2,38,39
838 524 m 2,54,55
 838 547 838 547 824.5 562 c 128,-1,56
 811 577 811 577 785 577 c 2,57,-1
 293 577 l 2,58,59
 266 577 266 577 253 562 c 128,-1,60
 240 547 240 547 240 525 c 2,61,-1
 240 485 l 2,62,63
 240 463 240 463 254.5 447.5 c 128,-1,64
 269 432 269 432 293 432 c 2,65,-1
 785 432 l 2,66,67
 811 432 811 432 824.5 447.5 c 128,-1,68
 838 463 838 463 838 485 c 2,69,-1
 838 524 l 2,54,55
EndSplineSet
Validated: 1
EndChar

StartChar: nine
Encoding: 57 57 29
Width: 1078
GlyphClass: 2
Flags: W
LayerCount: 2
Fore
SplineSet
834 720 m 2,0,1
 872 720 872 720 905.5 705.5 c 128,-1,2
 939 691 939 691 964 666 c 128,-1,3
 989 641 989 641 1003.5 607 c 128,-1,4
 1018 573 1018 573 1018 535 c 2,5,-1
 1018 185 l 2,6,7
 1018 147 1018 147 1004 113 c 128,-1,8
 990 79 990 79 965.5 54 c 128,-1,9
 941 29 941 29 907 14.5 c 128,-1,10
 873 0 873 0 834 0 c 2,11,-1
 96 0 l 1,12,-1
 96 143 l 1,13,-1
 785 143 l 2,14,15
 810 143 810 143 824 159 c 128,-1,16
 838 175 838 175 838 197 c 2,17,-1
 838 289 l 1,18,-1
 245 289 l 2,19,20
 194 289 194 289 158.5 302.5 c 128,-1,21
 123 316 123 316 101.5 340 c 128,-1,22
 80 364 80 364 70 398 c 128,-1,23
 60 432 60 432 60 473 c 2,24,-1
 60 535 l 2,25,26
 60 573 60 573 70.5 606.5 c 128,-1,27
 81 640 81 640 103.5 665.5 c 128,-1,28
 126 691 126 691 161 705.5 c 128,-1,29
 196 720 196 720 245 720 c 2,30,-1
 834 720 l 2,0,1
838 523 m 2,31,32
 838 546 838 546 822.5 561.5 c 128,-1,33
 807 577 807 577 785 577 c 2,34,-1
 293 577 l 2,35,36
 267 577 267 577 253.5 562 c 128,-1,37
 240 547 240 547 240 525 c 2,38,-1
 240 485 l 2,39,40
 240 463 240 463 254 447.5 c 128,-1,41
 268 432 268 432 293 432 c 2,42,-1
 838 432 l 1,43,-1
 838 523 l 2,31,32
EndSplineSet
Validated: 1
EndChar

StartChar: colon
Encoding: 58 58 30
Width: 302
GlyphClass: 2
Flags: W
LayerCount: 2
Fore
SplineSet
60 163 m 1,0,-1
 242 163 l 1,1,-1
 242 0 l 1,2,-1
 60 0 l 1,3,-1
 60 163 l 1,0,-1
60 574 m 1,4,-1
 242 574 l 1,5,-1
 242 411 l 1,6,-1
 60 411 l 1,7,-1
 60 574 l 1,4,-1
EndSplineSet
Validated: 1
EndChar

StartChar: semicolon
Encoding: 59 59 31
Width: 302
GlyphClass: 2
Flags: W
LayerCount: 2
Fore
SplineSet
60 574 m 1,0,-1
 242 574 l 1,1,-1
 242 411 l 1,2,-1
 60 411 l 1,3,-1
 60 574 l 1,0,-1
242 163 m 1,4,-1
 242 0 l 1,5,-1
 161 -132 l 1,6,-1
 58 -132 l 1,7,-1
 141 0 l 1,8,-1
 60 0 l 1,9,-1
 60 163 l 1,10,-1
 242 163 l 1,4,-1
EndSplineSet
Validated: 1
EndChar

StartChar: less
Encoding: 60 60 32
Width: 694
GlyphClass: 2
Flags: W
LayerCount: 2
Fore
SplineSet
60 428 m 1,0,-1
 634 664 l 1,1,-1
 634 518 l 1,2,-1
 220 360 l 1,3,-1
 634 202 l 1,4,-1
 634 56 l 1,5,-1
 60 292 l 1,6,-1
 60 428 l 1,0,-1
EndSplineSet
Validated: 1
EndChar

StartChar: equal
Encoding: 61 61 33
Width: 695
GlyphClass: 2
Flags: W
LayerCount: 2
Fore
SplineSet
635 301 m 1,0,-1
 635 158 l 1,1,-1
 60 158 l 1,2,-1
 60 301 l 1,3,-1
 635 301 l 1,0,-1
635 562 m 1,4,-1
 635 419 l 1,5,-1
 60 419 l 1,6,-1
 60 562 l 1,7,-1
 635 562 l 1,4,-1
EndSplineSet
Validated: 1
EndChar

StartChar: greater
Encoding: 62 62 34
Width: 694
GlyphClass: 2
Flags: W
LayerCount: 2
Fore
SplineSet
60 664 m 1,0,-1
 634 428 l 1,1,-1
 634 292 l 1,2,-1
 60 56 l 1,3,-1
 60 202 l 1,4,-1
 474 360 l 1,5,-1
 60 518 l 1,6,-1
 60 664 l 1,0,-1
EndSplineSet
Validated: 1
EndChar

StartChar: question
Encoding: 63 63 35
Width: 918
GlyphClass: 2
Flags: W
LayerCount: 2
Fore
SplineSet
673 720 m 2,0,1
 711 720 711 720 745 705.5 c 128,-1,2
 779 691 779 691 804 666 c 128,-1,3
 829 641 829 641 843.5 607 c 128,-1,4
 858 573 858 573 858 535 c 2,5,-1
 858 459 l 2,6,7
 858 419 858 419 843.5 387.5 c 128,-1,8
 829 356 829 356 804 334 c 128,-1,9
 779 312 779 312 745 300.5 c 128,-1,10
 711 289 711 289 673 289 c 2,11,-1
 453 289 l 2,12,13
 431 289 431 289 416 273.5 c 128,-1,14
 401 258 401 258 400 236 c 2,15,-1
 400 219 l 1,16,-1
 254 219 l 1,17,-1
 254 248 l 2,18,19
 254 289 254 289 265 323 c 128,-1,20
 276 357 276 357 298.5 381 c 128,-1,21
 321 405 321 405 355.5 418.5 c 128,-1,22
 390 432 390 432 439 432 c 2,23,-1
 625 432 l 2,24,25
 647 432 647 432 662.5 447.5 c 128,-1,26
 678 463 678 463 678 485 c 2,27,-1
 678 523 l 2,28,29
 678 545 678 545 662.5 560.5 c 128,-1,30
 647 576 647 576 625 576 c 2,31,-1
 20 576 l 1,32,-1
 20 720 l 1,33,-1
 673 720 l 2,0,1
235 143 m 1,34,-1
 417 143 l 1,35,-1
 417 0 l 1,36,-1
 235 0 l 1,37,-1
 235 143 l 1,34,-1
EndSplineSet
Validated: 1
EndChar

StartChar: at
Encoding: 64 64 36
Width: 1479
GlyphClass: 2
Flags: W
LayerCount: 2
Fore
SplineSet
1149 137 m 2,0,1
 1168 137 1168 137 1185.5 144.5 c 128,-1,2
 1203 152 1203 152 1216 165 c 128,-1,3
 1229 178 1229 178 1236.5 195 c 128,-1,4
 1244 212 1244 212 1244 231 c 2,5,-1
 1244 570 l 2,6,7
 1244 589 1244 589 1236.5 606 c 128,-1,8
 1229 623 1229 623 1216 636 c 128,-1,9
 1203 649 1203 649 1185.5 656.5 c 128,-1,10
 1168 664 1168 664 1149 664 c 2,11,-1
 330 664 l 2,12,13
 311 664 311 664 293.5 656.5 c 128,-1,14
 276 649 276 649 263 636 c 128,-1,15
 250 623 250 623 242.5 606 c 128,-1,16
 235 589 235 589 235 570 c 2,17,-1
 235 8 l 2,18,19
 235 -11 235 -11 242.5 -28.5 c 128,-1,20
 250 -46 250 -46 263 -59.5 c 128,-1,21
 276 -73 276 -73 293.5 -81.5 c 128,-1,22
 311 -90 311 -90 330 -90 c 2,23,-1
 1111 -90 l 1,24,-1
 1111 -230 l 1,25,-1
 309 -230 l 2,26,27
 257 -230 257 -230 215 -208 c 128,-1,28
 173 -186 173 -186 143 -152 c 128,-1,29
 113 -118 113 -118 96.5 -76.5 c 128,-1,30
 80 -35 80 -35 80 5 c 2,31,-1
 80 573 l 2,32,33
 80 613 80 613 96.5 654 c 128,-1,34
 113 695 113 695 143 728.5 c 128,-1,35
 173 762 173 762 215 783 c 128,-1,36
 257 804 257 804 309 804 c 2,37,-1
 1170 804 l 2,38,39
 1222 804 1222 804 1264 783 c 128,-1,40
 1306 762 1306 762 1336 728.5 c 128,-1,41
 1366 695 1366 695 1382.5 654 c 128,-1,42
 1399 613 1399 613 1399 573 c 2,43,-1
 1399 244 l 2,44,45
 1399 204 1399 204 1382.5 163 c 128,-1,46
 1366 122 1366 122 1336 88.5 c 128,-1,47
 1306 55 1306 55 1264 34 c 128,-1,48
 1222 13 1222 13 1170 13 c 2,49,-1
 955 13 l 1,50,-1
 955 226 l 1,51,-1
 563 226 l 2,52,53
 549 226 549 226 536 214.5 c 128,-1,54
 523 203 523 203 523 186 c 2,55,-1
 523 175 l 2,56,57
 523 160 523 160 536 148.5 c 128,-1,58
 549 137 549 137 563 137 c 2,59,-1
 808 137 l 1,60,-1
 933 13 l 1,61,-1
 528 13 l 2,62,63
 486 13 486 13 456 27 c 128,-1,64
 426 41 426 41 406.5 63.5 c 128,-1,65
 387 86 387 86 377.5 114 c 128,-1,66
 368 142 368 142 367 171 c 2,67,-1
 367 191 l 2,68,69
 368 261 368 261 406 304.5 c 128,-1,70
 444 348 444 348 528 348 c 2,71,-1
 955 348 l 1,72,-1
 955 396 l 2,73,74
 955 413 955 413 943 425.5 c 128,-1,75
 931 438 931 438 915 438 c 2,76,-1
 401 438 l 1,77,-1
 401 562 l 1,78,-1
 953 562 l 2,79,80
 986 562 986 562 1014.5 549.5 c 128,-1,81
 1043 537 1043 537 1064.5 515.5 c 128,-1,82
 1086 494 1086 494 1098.5 465 c 128,-1,83
 1111 436 1111 436 1111 403 c 2,84,-1
 1111 137 l 1,85,-1
 1149 137 l 2,0,1
EndSplineSet
Validated: 1
Substitution2: "'ss01' Style Set 1 lookup 7 subtable" at.ss01
Substitution2: "'salt' Stylistic Alternatives lookup 6 subtable" at.ss01
Substitution2: "'aalt' Access All Alternates lookup 0 subtable" at.ss01
EndChar

StartChar: A
Encoding: 65 65 37
Width: 1101
GlyphClass: 2
Flags: W
LayerCount: 2
Fore
SplineSet
677 720 m 1,0,-1
 1091 0 l 1,1,-1
 893 0 l 1,2,-1
 550 600 l 1,3,-1
 352 251 l 1,4,-1
 653 251 l 1,5,-1
 735 109 l 1,6,-1
 272 109 l 1,7,-1
 208 0 l 1,8,-1
 10 0 l 1,9,-1
 424 720 l 1,10,-1
 677 720 l 1,0,-1
EndSplineSet
Validated: 1
Substitution2: "'ss01' Style Set 1 lookup 7 subtable" A.ss01
Substitution2: "'salt' Stylistic Alternatives lookup 6 subtable" A.ss01
Substitution2: "'aalt' Access All Alternates lookup 0 subtable" A.ss01
EndChar

StartChar: B
Encoding: 66 66 38
Width: 1081
GlyphClass: 2
Flags: W
LayerCount: 2
Fore
SplineSet
841 720 m 2,0,1
 879 720 879 720 913 708 c 128,-1,2
 947 696 947 696 972 674.5 c 128,-1,3
 997 653 997 653 1011.5 622 c 128,-1,4
 1026 591 1026 591 1026 553 c 2,5,-1
 1026 490 l 2,6,7
 1026 470 1026 470 1019 448.5 c 128,-1,8
 1012 427 1012 427 1000 409 c 128,-1,9
 988 391 988 391 971 378 c 128,-1,10
 954 365 954 365 934 361 c 1,11,-1
 933 361 l 1,12,-1
 935 360 l 1,13,14
 955 355 955 355 971.5 342.5 c 128,-1,15
 988 330 988 330 1000 312 c 128,-1,16
 1012 294 1012 294 1019 273 c 128,-1,17
 1026 252 1026 252 1026 232 c 2,18,-1
 1026 169 l 2,19,20
 1026 135 1026 135 1015 104.5 c 128,-1,21
 1004 74 1004 74 981.5 50.5 c 128,-1,22
 959 27 959 27 924.5 13.5 c 128,-1,23
 890 0 890 0 841 0 c 2,24,-1
 251 0 l 1,25,-1
 70 0 l 1,26,-1
 70 720 l 1,27,-1
 841 720 l 2,0,1
251 143 m 1,28,-1
 751 143 l 2,29,30
 777 143 777 143 811.5 158.5 c 128,-1,31
 846 174 846 174 846 196 c 2,32,-1
 846 237 l 2,33,34
 846 259 846 259 831 274 c 128,-1,35
 816 289 816 289 793 289 c 2,36,-1
 551 289 l 1,37,-1
 407 432 l 1,38,-1
 792 432 l 2,39,40
 818 432 818 432 832 447 c 128,-1,41
 846 462 846 462 846 484 c 2,42,-1
 846 524 l 2,43,44
 846 546 846 546 832.5 561.5 c 128,-1,45
 819 577 819 577 793 577 c 2,46,-1
 251 577 l 1,47,-1
 251 143 l 1,28,-1
EndSplineSet
Validated: 1
Substitution2: "'ss01' Style Set 1 lookup 7 subtable" B.ss01
Substitution2: "'salt' Stylistic Alternatives lookup 6 subtable" B.ss01
Substitution2: "'aalt' Access All Alternates lookup 0 subtable" B.ss01
EndChar

StartChar: C
Encoding: 67 67 39
Width: 1015
GlyphClass: 2
Flags: W
LayerCount: 2
Fore
SplineSet
955 720 m 1,0,-1
 955 577 l 1,1,-1
 298 577 l 2,2,3
 271 577 271 577 252.5 558 c 128,-1,4
 234 539 234 539 234 513 c 2,5,-1
 234 208 l 2,6,7
 234 182 234 182 252.5 163 c 128,-1,8
 271 144 271 144 298 143 c 2,9,-1
 955 143 l 1,10,-1
 955 0 l 1,11,-1
 273 0 l 2,12,13
 229 0 229 0 189.5 17 c 128,-1,14
 150 34 150 34 119.5 63.5 c 128,-1,15
 89 93 89 93 71 133 c 128,-1,16
 53 173 53 173 53 219 c 2,17,-1
 53 499 l 2,18,19
 53 545 53 545 70.5 585 c 128,-1,20
 88 625 88 625 118 655 c 128,-1,21
 148 685 148 685 188 702.5 c 128,-1,22
 228 720 228 720 273 720 c 2,23,-1
 955 720 l 1,0,-1
EndSplineSet
Validated: 1
EndChar

StartChar: D
Encoding: 68 68 40
Width: 1084
GlyphClass: 2
Flags: W
LayerCount: 2
Fore
SplineSet
310 720 m 6,0,1
 355 720 355 720 396 702 c 4,2,3
 435 686 435 686 466 655 c 4,4,5
 496 625 496 625 513.5 585 c 132,-1,6
 531 545 531 545 531 499 c 6,7,-1
 531 219 l 6,8,9
 531 175 531 175 513.5 135.5 c 132,-1,10
 496 96 496 96 466 66 c 4,11,12
 431 31 431 31 396 18 c 4,13,14
 348 0 348 0 310 0 c 6,15,-1
 -68 0 l 5,16,-1
 -249 0 l 5,17,-1
 -249 720 l 5,18,-1
 310 720 l 6,0,1
110 141 m 5,19,-1
 285 143 l 6,20,21
 311 143 311 143 331 163 c 4,22,23
 350 182 350 182 350 208 c 6,24,-1
 350 512 l 6,25,26
 350 538 350 538 331 558 c 4,27,28
 316 574 316 574 288 574 c 6,29,-1
 109 575 l 5,30,-1
 -68 575 l 5,31,-1
 -68 141 l 5,32,-1
 110 141 l 5,19,-1
EndSplineSet
Substitution2: "'ss01' Style Set 1 lookup 7 subtable" D.ss01
Substitution2: "'salt' Stylistic Alternatives lookup 6 subtable" D.ss01
Substitution2: "'aalt' Access All Alternates lookup 0 subtable" D.ss01
EndChar

StartChar: E
Encoding: 69 69 41
Width: 965
GlyphClass: 2
Flags: W
LayerCount: 2
Fore
SplineSet
910 720 m 1,0,-1
 910 577 l 1,1,-1
 251 577 l 1,2,-1
 251 432 l 1,3,-1
 758 432 l 1,4,-1
 758 289 l 1,5,-1
 251 289 l 1,6,-1
 251 143 l 1,7,-1
 910 143 l 1,8,-1
 910 0 l 1,9,-1
 70 0 l 1,10,-1
 70 720 l 1,11,-1
 910 720 l 1,0,-1
EndSplineSet
Validated: 1
EndChar

StartChar: F
Encoding: 70 70 42
Width: 930
GlyphClass: 2
Flags: W
LayerCount: 2
Fore
SplineSet
910 720 m 1,0,-1
 910 577 l 1,1,-1
 251 577 l 1,2,-1
 251 432 l 1,3,-1
 741 432 l 1,4,-1
 741 289 l 1,5,-1
 251 289 l 1,6,-1
 251 0 l 1,7,-1
 70 0 l 1,8,-1
 70 720 l 1,9,-1
 910 720 l 1,0,-1
EndSplineSet
Validated: 1
EndChar

StartChar: G
Encoding: 71 71 43
Width: 547
GlyphClass: 2
InSpiro: 1
Flags: W
LayerCount: 2
Fore
SplineSet
-330 721 m 1024,0,-1
  Spiro
    -330 720 {
    0 0 z
  EndSpiro
-341 209 m 0,1,2
 -341 183 -341 183 -322 163.5 c 128,-1,3
 -303 144 -303 144 -277 144 c 1024,4,-1
  Spiro
    -341 209 {
    -336.25 184.625 o
    -322 163.5 o
    -301.25 148.875 o
    -277 144 o
    0 0 z
  EndSpiro
262 295 m 1024,5,-1
  Spiro
    262 295 {
    0 0 z
  EndSpiro
254 290 m 1,6,7
 226 290 226 290 226 290 c 0,8,9
 204 290.5 204 290.5 187 290.75 c 128,-1,10
 170 291 170 291 153 291 c 0,11,12
 95 291 95 291 95 291 c 0,13,14
 95 292 95 292 14 292 c 0,15,16
 2 292 2 292 -20 292 c 2,17,-1
 -56 292 l 1,18,-1
 -201 433 l 1,19,-1
 401 433 l 1,20,-1
 401 147 l 1,21,-1
 401 143 l 1,22,-1
 401 132 l 1,23,-1
 401 122 l 1,24,-1
 401 111 l 1,25,-1
 397 94 l 1,26,-1
 392 78 l 1,27,-1
 386 62 l 1,28,-1
 376 48 l 1,29,-1
 365 35 l 1,30,-1
 352 24 l 1,31,-1
 337 15 l 1,32,-1
 322 9 l 1,33,-1
 305 4 l 1,34,-1
 288.169921875 1 l 1,35,-1
 271.08203125 1 l 1,36,-1
 240 1 l 1,37,-1
 -292 1 l 1,38,-1
 -302 1 l 1,39,-1
 -316.44140625 1 l 1,40,-1
 -330.885742188 1 l 1,41,-1
 -345.166992188 4.025390625 l 1,42,-1
 -359.216796875 7.2802734375 l 1,43,-1
 -372.99609375 11.70703125 l 1,44,-1
 -386.375 17.125 l 1,45,-1
 -411.965820312 30.3310546875 l 1,46,-1
 -435.875976562 46.5205078125 l 1,47,-1
 -457.5 65.5 l 1,48,-1
 -476.479492188 87.1240234375 l 1,49,-1
 -492.668945312 111.034179688 l 1,50,-1
 -505.875 136.625 l 1,51,-1
 -511.29296875 150.00390625 l 1,52,-1
 -515.719726562 163.783203125 l 1,53,-1
 -518.974609375 177.833007812 l 1,54,-1
 -522 192.114257812 l 1,55,-1
 -521.797851562 206.55859375 l 1,56,-1
 -520.915039062 221 l 1,57,-1
 -520.915039062 500 l 1,58,-1
 -520.915039062 514.466796875 l 1,59,-1
 -520.915039062 528.938476562 l 1,60,-1
 -518.947265625 543.2421875 l 1,61,-1
 -515.6640625 557.311523438 l 1,62,-1
 -511.204101562 571.107421875 l 1,63,-1
 -505.75 584.5 l 1,64,-1
 -492.418945312 613 l 1,65,-1
 -476.102539062 634.252929688 l 1,66,-1
 -457 656 l 1,67,-1
 -435.322265625 675.07421875 l 1,68,-1
 -411.375976562 691.390625 l 1,69,-1
 -385.75 704.75 l 1,70,-1
 -372.485351562 710.1953125 l 1,71,-1
 -358.818359375 714.654296875 l 1,72,-1
 -344.874023438 717.940429688 l 1,73,-1
 -330.694335938 721 l 1,74,-1
 -316.344726562 724 l 1,75,-1
 -95 724 l 1,76,-1
 203 724 l 2,77,78
 211 724 211 724 211 724 c 0,79,80
 256 724 256 724 260 721 c 0,81,82
 260 721 260 721 278.258789062 721 c 0,83,84
 288.790039062 721 288.790039062 721 303.422851562 715.662109375 c 0,85,86
 320.599609375 709.396484375 320.599609375 709.396484375 323.943359375 707.834960938 c 0,87,88
 333.791015625 702.919921875 333.791015625 702.919921875 343.076171875 697.01171875 c 0,89,90
 352.06640625 690.620117188 352.06640625 690.620117188 360.326171875 683.309570312 c 0,91,92
 368.137695312 675.581054688 368.137695312 675.581054688 375 667 c 0,93,94
 378.556640625 662.09375 378.556640625 662.09375 381.770507812 656.95703125 c 128,-1,95
 384.810546875 651.694335938 384.810546875 651.694335938 387.474609375 646.232421875 c 0,96,97
 389.9375 640.696289062 389.9375 640.696289062 392 635 c 0,98,99
 394.39453125 627.41796875 394.39453125 627.41796875 396.1484375 619.662109375 c 0,100,101
 397.848632812 610.66015625 397.848632812 610.66015625 399.016601562 601.243164062 c 0,102,103
 400 593.306640625 400 593.306640625 400 588 c 0,104,105
 400.610351562 581.237304688 400.610351562 581.237304688 400.610351562 571.073242188 c 0,106,107
 400.610351562 549.294921875 400.610351562 549.294921875 401.509765625 547.3203125 c 0,108,109
 400 540.037109375 400 540.037109375 400 524 c 1,110,-1
 254 524 l 1,111,112
 254.118164062 527.590820312 254.118164062 527.590820312 254.118164062 534.775390625 c 0,113,114
 254.118164062 545.310546875 254.118164062 545.310546875 253 551 c 0,115,116
 252 556 252 556 247 562 c 0,117,118
 244 566 244 566 239 570 c 0,119,120
 233 575 233 575 225 575 c 0,121,122
 214.348632812 575 214.348632812 575 209 576 c 1,123,-1
 -277 576 l 1,124,-1
 -281.263671875 577.940429688 l 1,125,-1
 -285.528320312 577.940429688 l 1,126,-1
 -289.7421875 577.08984375 l 1,127,-1
 -293.885742188 576.107421875 l 1,128,-1
 -297.943359375 574.767578125 l 1,129,-1
 -301.875 573.125 l 1,130,-1
 -309.3359375 569.125 l 1,131,-1
 -316.267578125 564.22265625 l 1,132,-1
 -322.5 558.5 l 1,133,-1
 -327.939453125 552.034179688 l 1,134,-1
 -332.576171875 544.932617188 l 1,135,-1
 -336.375 537.375 l 1,136,-1
 -337.918945312 533.502929688 l 1,137,-1
 -339.186523438 529.522460938 l 1,138,-1
 -340.124023438 525.463867188 l 1,139,-1
 -340.688476562 521.340820312 l 1,140,-1
 -340.688476562 517.169921875 l 1,141,-1
 -340.688476562 513 l 1,142,-1
 -340.688476562 209 l 1,143,-1
 -340.688476562 204.82421875 l 1,144,-1
 -340.688476562 200.6484375 l 1,145,-1
 -340.099609375 196.521484375 l 1,146,-1
 -339.13671875 192.463867188 l 1,147,-1
 -337.833984375 188.487304688 l 1,148,-1
 -336.25 184.625 l 1,149,-1
 -332.331054688 177.051757812 l 1,150,-1
 -327.563476562 169.953125 l 1,151,-1
 -322 163.5 l 1,152,-1
 -315.698242188 157.80859375 l 1,153,-1
 -308.7265625 152.909179688 l 1,154,-1
 -301.25 148.875 l 1,155,-1
 -297.421875 147.24609375 l 1,156,-1
 -293.471679688 145.909179688 l 1,157,-1
 -289.434570312 144.920898438 l 1,158,-1
 -285.32421875 144 l 1,159,-1
 -281.162109375 144 l 1,160,-1
 -277 145 l 1,161,-1
 -57 145 l 1,162,-1
 13 145 l 1,163,164
 62.0458984375 144.56640625 62.0458984375 144.56640625 73.427734375 144.56640625 c 0,165,166
 75.56640625 144.56640625 75.56640625 144.56640625 76.3759765625 144.58203125 c 0,167,168
 78.2236328125 144.6171875 78.2236328125 144.6171875 83.05078125 144.6171875 c 0,169,170
 97.8759765625 144.723632812 97.8759765625 144.723632812 106.637695312 144.723632812 c 0,171,172
 121.252929688 144.903320312 121.252929688 144.903320312 137.383789062 144.903320312 c 0,173,174
 148.462890625 146 148.462890625 146 168 146 c 0,175,176
 179.682617188 146 179.682617188 146 180.41015625 147.206054688 c 0,177,178
 186.591796875 148.110351562 186.591796875 148.110351562 192.701171875 149.41015625 c 0,179,180
 198.732421875 150.927734375 198.732421875 150.927734375 204.609375 152.958007812 c 0,181,182
 210.39453125 155.28515625 210.39453125 155.28515625 215.901367188 158.20703125 c 0,183,184
 221.249023438 161.434570312 221.249023438 161.434570312 226.189453125 165.25390625 c 0,185,186
 230.872070312 169.348632812 230.872070312 169.348632812 235 174 c 0,187,188
 238.432617188 178.392578125 238.432617188 178.392578125 241.361328125 183.138671875 c 0,189,190
 244.052734375 188.048828125 244.052734375 188.048828125 246.256835938 193.196289062 c 0,191,192
 248.221679688 198.4296875 248.221679688 198.4296875 249.740234375 203.809570312 c 0,193,194
 251.047851562 209.231445312 251.047851562 209.231445312 252.369140625 216.591796875 c 0,195,196
 253.831054688 222.126953125 253.831054688 222.126953125 253.915039062 225.842773438 c 128,-1,197
 254 229.557617188 254 229.557617188 254 237 c 0,198,199
 254.391601562 254.456054688 254.391601562 254.456054688 254.388671875 254.643554688 c 0,200,201
 254 278 254 278 254 290 c 1,6,7
  Spiro
    254 290 v
    220.367 290.37 o
    186.633 290.704 o
    153 291 o
    83.404 291.493 o
    13.598 291.827 o
    -20 292 [
    -56 292 v
    -201 433 v
    401 433 v
    401 147 v
    401 143 v
    400.981 132.33 v
    400.735 121.634 v
    400 111 v
    397.292 94.1498 v
    392.498 77.732 v
    385.544 62.1786 v
    376.364 47.8104 v
    365.081 34.9644 v
    351.991 24.0537 v
    337.359 15.3403 v
    321.545 8.83461 v
    305.039 4.4966 v
    288.17 2.12715 v
    271.082 1.17383 v
    240 1 v
    -292 1 v
    -302 1 v
    -316.441 1.19982 v
    -330.886 2.07414 v
    -345.167 4.02501 v
    -359.217 7.28017 v
    -372.996 11.7072 v
    -386.375 17.125 v
    -411.966 30.331 v
    -435.876 46.5203 v
    -457.5 65.5 v
    -476.48 87.124 v
    -492.669 111.034 v
    -505.875 136.625 v
    -511.293 150.004 v
    -515.72 163.783 v
    -518.975 177.833 v
    -520.926 192.114 v
    -521.8 206.559 v
    -522 221 v
    -522 500 v
    -521.798 514.467 v
    -520.915 528.938 v
    -518.947 543.242 v
    -515.664 557.312 v
    -511.204 571.107 v
    -505.75 584.5 v
    -492.419 610.22 v
    -476.102 634.253 v
    -457 656 v
    -435.322 675.074 v
    -411.376 691.391 v
    -385.75 704.75 v
    -372.485 710.195 v
    -358.818 714.654 v
    -344.874 717.94 v
    -330.694 719.912 v
    -316.345 720.797 v
    -95 722 v
    203 724 v
    211 724 o
    260 722 o
    281.91 720.418 o
    303.423 715.662 o
    323.944 707.835 o
    343.076 697.012 o
    360.326 683.31 o
    375 667 o
    381.77 656.957 o
    387.475 646.233 o
    392 635 o
    396.149 619.662 o
    398.647 603.889 o
    400 588 o
    400.94 567.699 o
    401.51 547.32 o
    400 524 v
    254 524 v
    254.118 534.775 o
    253 551 o
    247 562 o
    239 570 o
    225 575 o
    209 576 [
    -277 578 v
    -281.264 577.94 v
    -285.528 577.677 v
    -289.742 577.09 v
    -293.886 576.107 v
    -297.943 574.768 v
    -301.875 573.125 v
    -309.336 569.125 v
    -316.268 564.223 v
    -322.5 558.5 v
    -327.939 552.034 v
    -332.576 544.933 v
    -336.375 537.375 v
    -337.919 533.503 v
    -339.187 529.522 v
    -340.124 525.464 v
    -340.688 521.341 v
    -340.942 517.17 v
    -341 513 v
    -341 209 v
    -340.94 204.824 v
    -340.679 200.648 v
    -340.1 196.521 v
    -339.137 192.464 v
    -337.834 188.487 v
    -336.25 184.625 v
    -332.331 177.052 v
    -327.563 169.953 v
    -322 163.5 v
    -315.698 157.809 v
    -308.727 152.909 v
    -301.25 148.875 v
    -297.422 147.246 v
    -293.472 145.909 v
    -289.435 144.921 v
    -285.324 144.328 v
    -281.162 144.061 v
    -277 144 v
    -57 144 v
    13 145 ]
    106.638 144.724 o
    137.384 144.903 o
    168 146 o
    180.41 147.206 o
    192.701 149.41 o
    204.609 152.958 o
    215.901 158.207 o
    226.19 165.254 o
    235 174 o
    241.362 183.138 o
    246.257 193.196 o
    249.74 203.81 o
    251.995 214.729 o
    253.323 225.847 o
    254 237 o
    254.388 254.644 o
    0 0 z
  EndSpiro
EndSplineSet
EndChar

StartChar: H
Encoding: 72 72 44
Width: 1095
GlyphClass: 2
Flags: W
LayerCount: 2
Fore
SplineSet
1025 720 m 1,0,-1
 1025 0 l 1,1,-1
 844 0 l 1,2,-1
 844 289 l 1,3,-1
 445 289 l 1,4,-1
 301 432 l 1,5,-1
 844 432 l 1,6,-1
 844 720 l 1,7,-1
 1025 720 l 1,0,-1
251 720 m 1,8,-1
 251 0 l 1,9,-1
 70 0 l 1,10,-1
 70 720 l 1,11,-1
 251 720 l 1,8,-1
EndSplineSet
Validated: 1
Substitution2: "'ss01' Style Set 1 lookup 7 subtable" H.ss01
Substitution2: "'salt' Stylistic Alternatives lookup 6 subtable" H.ss01
Substitution2: "'aalt' Access All Alternates lookup 0 subtable" H.ss01
EndChar

StartChar: I
Encoding: 73 73 45
Width: 321
GlyphClass: 2
Flags: W
LayerCount: 2
Fore
SplineSet
251 720 m 1,0,-1
 251 0 l 1,1,-1
 70 0 l 1,2,-1
 70 720 l 1,3,-1
 251 720 l 1,0,-1
EndSplineSet
Validated: 1
EndChar

StartChar: J
Encoding: 74 74 46
Width: 951
GlyphClass: 2
Flags: W
LayerCount: 2
Fore
SplineSet
886 720 m 1,0,-1
 886 220 l 2,1,2
 886 174 886 174 868.5 134 c 128,-1,3
 851 94 851 94 821 64 c 128,-1,4
 791 34 791 34 751 17 c 128,-1,5
 711 0 711 0 666 0 c 2,6,-1
 40 0 l 1,7,-1
 40 143 l 1,8,-1
 641 143 l 2,9,10
 669 144 669 144 687.5 163 c 128,-1,11
 706 182 706 182 706 208 c 2,12,-1
 706 720 l 1,13,-1
 886 720 l 1,0,-1
EndSplineSet
Validated: 1
Substitution2: "'ss02' Style Set 2 lookup 8 subtable" J.ss02
EndChar

StartChar: K
Encoding: 75 75 47
Width: 1012
GlyphClass: 2
Flags: W
LayerCount: 2
Fore
SplineSet
251 720 m 1,0,-1
 251 425 l 1,1,-1
 755 720 l 1,2,-1
 1022 720 l 1,3,-1
 420 360 l 1,4,-1
 1022 0 l 1,5,-1
 738 0 l 1,6,-1
 251 291 l 1,7,-1
 251 0 l 1,8,-1
 70 0 l 1,9,-1
 70 720 l 1,10,-1
 251 720 l 1,0,-1
EndSplineSet
Validated: 1
EndChar

StartChar: L
Encoding: 76 76 48
Width: 908
GlyphClass: 2
Flags: W
LayerCount: 2
Fore
SplineSet
-72 723 m 1,0,-1
 -72 146 l 1,1,-1
 587 146 l 1,2,-1
 587 3 l 1,3,-1
 -253 3 l 1,4,-1
 -253 723 l 1,5,-1
 -72 723 l 1,0,-1
EndSplineSet
EndChar

StartChar: M
Encoding: 77 77 49
Width: 1267
GlyphClass: 2
Flags: W
LayerCount: 2
Fore
SplineSet
1197 720 m 1,0,-1
 1197 0 l 1,1,-1
 1016 0 l 1,2,-1
 1016 501 l 1,3,-1
 692 0 l 1,4,-1
 574 0 l 1,5,-1
 251 501 l 1,6,-1
 251 0 l 1,7,-1
 70 0 l 1,8,-1
 70 720 l 1,9,-1
 297 720 l 1,10,-1
 634 188 l 1,11,-1
 987 720 l 1,12,-1
 1197 720 l 1,0,-1
EndSplineSet
Validated: 1
EndChar

StartChar: N
Encoding: 78 78 50
Width: 1110
GlyphClass: 2
Flags: W
LayerCount: 2
Fore
SplineSet
1040 720 m 1,0,-1
 1040 0 l 1,1,-1
 794 0 l 1,2,-1
 251 565 l 1,3,-1
 251 0 l 1,4,-1
 70 0 l 1,5,-1
 70 720 l 1,6,-1
 316 720 l 1,7,-1
 860 155 l 1,8,-1
 860 720 l 1,9,-1
 1040 720 l 1,0,-1
EndSplineSet
Validated: 1
EndChar

StartChar: O
Encoding: 79 79 51
Width: 1061
GlyphClass: 2
Flags: W
LayerCount: 2
Fore
SplineSet
251 720 m 6,0,1
 296 720 296 720 336 702.5 c 132,-1,2
 376 685 376 685 406 655 c 132,-1,3
 436 625 436 625 453.5 584.5 c 132,-1,4
 471 544 471 544 471 499 c 6,5,-1
 471 220 l 6,6,7
 471 174 471 174 453.5 134 c 132,-1,8
 436 94 436 94 406 64 c 132,-1,9
 376 34 376 34 336 17 c 132,-1,10
 296 0 296 0 251 0 c 6,11,-1
 -264 0 l 6,12,13
 -309 0 -309 0 -349 17 c 132,-1,14
 -389 34 -389 34 -419 64 c 132,-1,15
 -449 94 -449 94 -466.5 134 c 132,-1,16
 -484 174 -484 174 -484 220 c 6,17,-1
 -484 499 l 6,18,19
 -484 544 -484 544 -466.5 584.5 c 132,-1,20
 -449 625 -449 625 -419 655 c 132,-1,21
 -389 685 -389 685 -349 702.5 c 132,-1,22
 -309 720 -309 720 -264 720 c 6,23,-1
 251 720 l 6,0,1
291 513 m 6,24,25
 291 539 291 539 272 558 c 132,-1,26
 253 577 253 577 226 577 c 6,27,-1
 -239 577 l 6,28,29
 -266 577 -266 577 -284.5 558 c 132,-1,30
 -303 539 -303 539 -303 513 c 6,31,-1
 -303 208 l 6,32,33
 -303 182 -303 182 -284.5 163 c 132,-1,34
 -266 144 -266 144 -239 143 c 6,35,-1
 226 143 l 6,36,37
 253 144 253 144 272 163 c 132,-1,38
 291 182 291 182 291 208 c 6,39,-1
 291 513 l 6,24,25
EndSplineSet
EndChar

StartChar: P
Encoding: 80 80 52
Width: 1076
GlyphClass: 2
Flags: W
LayerCount: 2
Fore
SplineSet
841 720 m 2,0,1
 878 720 878 720 911.5 705.5 c 128,-1,2
 945 691 945 691 970.5 665.5 c 128,-1,3
 996 640 996 640 1011 606.5 c 128,-1,4
 1026 573 1026 573 1026 535 c 2,5,-1
 1026 398 l 2,6,7
 1026 357 1026 357 1011 323.5 c 128,-1,8
 996 290 996 290 970.5 265 c 128,-1,9
 945 240 945 240 911.5 226.5 c 128,-1,10
 878 213 878 213 841 213 c 2,11,-1
 436 213 l 1,12,-1
 292 358 l 1,13,-1
 793 358 l 2,14,15
 819 358 819 358 832.5 373 c 128,-1,16
 846 388 846 388 846 410 c 2,17,-1
 846 525 l 2,18,19
 846 547 846 547 833.5 562 c 128,-1,20
 821 577 821 577 793 577 c 2,21,-1
 251 577 l 1,22,-1
 251 0 l 1,23,-1
 70 0 l 1,24,-1
 70 720 l 1,25,-1
 841 720 l 2,0,1
EndSplineSet
Validated: 1
Substitution2: "'ss01' Style Set 1 lookup 7 subtable" P.ss01
Substitution2: "'salt' Stylistic Alternatives lookup 6 subtable" P.ss01
Substitution2: "'aalt' Access All Alternates lookup 0 subtable" P.ss01
EndChar

StartChar: Q
Encoding: 81 81 53
Width: 1061
GlyphClass: 2
Flags: W
LayerCount: 2
Fore
SplineSet
565 271 m 1,0,-1
 693 143 l 1,1,-1
 763 143 l 2,2,3
 790 144 790 144 809 163 c 128,-1,4
 828 182 828 182 828 208 c 2,5,-1
 828 512 l 2,6,7
 828 539 828 539 809 558 c 128,-1,8
 790 577 790 577 763 577 c 2,9,-1
 298 577 l 2,10,11
 271 577 271 577 252.5 558 c 128,-1,12
 234 539 234 539 234 512 c 2,13,-1
 234 208 l 2,14,15
 234 182 234 182 252.5 163 c 128,-1,16
 271 144 271 144 298 143 c 2,17,-1
 424 143 l 1,18,-1
 566 0 l 1,19,-1
 273 0 l 2,20,21
 228 0 228 0 188 17 c 128,-1,22
 148 34 148 34 118 64 c 128,-1,23
 88 94 88 94 70.5 134 c 128,-1,24
 53 174 53 174 53 220 c 2,25,-1
 53 499 l 2,26,27
 53 544 53 544 70.5 584.5 c 128,-1,28
 88 625 88 625 118 655 c 128,-1,29
 148 685 148 685 188 702.5 c 128,-1,30
 228 720 228 720 273 720 c 2,31,-1
 788 720 l 2,32,33
 833 720 833 720 873 702.5 c 128,-1,34
 913 685 913 685 943 655 c 128,-1,35
 973 625 973 625 990.5 584.5 c 128,-1,36
 1008 544 1008 544 1008 499 c 2,37,-1
 1008 220 l 2,38,39
 1008 180 1008 180 994.5 144 c 128,-1,40
 981 108 981 108 957.5 79.5 c 128,-1,41
 934 51 934 51 901.5 31 c 128,-1,42
 869 11 869 11 832 4 c 1,43,-1
 962 -126 l 1,44,-1
 758 -126 l 1,45,-1
 365 271 l 1,46,-1
 565 271 l 1,0,-1
EndSplineSet
Validated: 1
Substitution2: "'ss01' Style Set 1 lookup 7 subtable" Q.ss01
Substitution2: "'salt' Stylistic Alternatives lookup 6 subtable" Q.ss01
Substitution2: "'aalt' Access All Alternates lookup 0 subtable" Q.ss01
EndChar

StartChar: R
Encoding: 82 82 54
Width: 1089
GlyphClass: 2
Flags: W
LayerCount: 2
Fore
SplineSet
841 720 m 2,0,1
 879 720 879 720 913 707.5 c 128,-1,2
 947 695 947 695 972 672.5 c 128,-1,3
 997 650 997 650 1011.5 618.5 c 128,-1,4
 1026 587 1026 587 1026 549 c 2,5,-1
 1026 446 l 2,6,7
 1026 426 1026 426 1019 405 c 128,-1,8
 1012 384 1012 384 999.5 366.5 c 128,-1,9
 987 349 987 349 970 336.5 c 128,-1,10
 953 324 953 324 933 320 c 1,11,12
 975 312 975 312 1000.5 280 c 128,-1,13
 1026 248 1026 248 1026 207 c 2,14,-1
 1026 0 l 1,15,-1
 846 0 l 1,16,-1
 846 196 l 2,17,18
 845 218 845 218 830 233 c 128,-1,19
 815 248 815 248 793 248 c 2,20,-1
 436 248 l 1,21,-1
 292 391 l 1,22,-1
 792 391 l 2,23,24
 814 391 814 391 830 403.5 c 128,-1,25
 846 416 846 416 846 438 c 2,26,-1
 846 529 l 2,27,28
 846 551 846 551 830.5 564 c 128,-1,29
 815 577 815 577 793 577 c 2,30,-1
 251 577 l 1,31,-1
 251 0 l 1,32,-1
 70 0 l 1,33,-1
 70 720 l 1,34,-1
 841 720 l 2,0,1
EndSplineSet
Validated: 1
Substitution2: "'ss01' Style Set 1 lookup 7 subtable" R.ss01
Substitution2: "'salt' Stylistic Alternatives lookup 6 subtable" R.ss01
Substitution2: "'aalt' Access All Alternates lookup 0 subtable" R.ss01
EndChar

StartChar: S
Encoding: 83 83 55
Width: 1078
GlyphClass: 2
InSpiro: 1
Flags: WO
LayerCount: 2
Fore
SplineSet
827 718 m 1,0,-1
 827 575 l 1,1,-1
 138 575 l 2,2,3
 116 575 116 575 101 559.5 c 128,-1,4
 86 544 86 544 85 522 c 2,5,-1
 85 483 l 2,6,7
 85 461 85 461 100.5 445.5 c 128,-1,8
 116 430 116 430 138 430 c 2,9,-1
 678 430 l 2,10,11
 775 430 775 430 819 379 c 128,-1,12
 863 328 863 328 863 246 c 2,13,-1
 863 183 l 2,14,15
 863 149 863 149 852 116 c 128,-1,16
 841 83 841 83 818.5 56.5 c 128,-1,17
 796 30 796 30 761.5 14 c 128,-1,18
 727 -2 727 -2 678 -2 c 2,19,-1
 -78 -2 l 1,20,-1
 -78 141 l 1,21,-1
 630 141 l 2,22,23
 652 141 652 141 667.5 156.5 c 128,-1,24
 683 172 683 172 683 194 c 2,25,-1
 683 234 l 2,26,27
 683 256 683 256 667.5 271.5 c 128,-1,28
 652 287 652 287 630 287 c 2,29,-1
 90 287 l 2,30,31
 52 287 52 287 18 298.5 c 128,-1,32
 -16 310 -16 310 -41 331 c 128,-1,33
 -66 352 -66 352 -80.5 381 c 128,-1,34
 -95 410 -95 410 -95 446 c 2,35,-1
 -95 542 l 2,36,37
 -95 580 -95 580 -80.5 612.5 c 128,-1,38
 -66 645 -66 645 -41 668.5 c 128,-1,39
 -16 692 -16 692 18 705 c 128,-1,40
 52 718 52 718 90 718 c 2,41,-1
 827 718 l 1,0,-1
  Spiro
    827 718 v
    827 575 v
    138 575 ]
    117.75 571.125 o
    101 559.5 o
    89.5 542.375 o
    85 522 [
    85 483 ]
    88.875 462.625 o
    100.5 445.5 o
    117.625 433.875 o
    138 430 [
    678 430 ]
    761.75 417.25 o
    819 379 o
    852 320.25 o
    863 246 [
    863 183 ]
    860.25 149.25 o
    852 116 o
    838.125 84.625 o
    818.5 56.5 o
    793 32.625 o
    761.5 14 o
    723.375 2 o
    678 -2 [
    -78 -2 v
    -78 141 v
    630 141 ]
    650.375 144.875 o
    667.5 156.5 o
    679.125 173.625 o
    683 194 [
    683 234 ]
    679.125 254.375 o
    667.5 271.5 o
    650.375 283.125 o
    630 287 [
    90 287 ]
    53 289.875 o
    18 298.5 o
    -13.75 312.375 o
    -41 331 o
    -63.375 354 o
    -80.5 381 o
    -91.375 411.75 o
    -95 446 [
    -95 542 ]
    -91.375 578.625 o
    -80.5 612.5 o
    -63.375 642.75 o
    -41 668.5 o
    -13.75 689.375 o
    18 705 o
    53 714.75 o
    90 718 [
    0 0 z
  EndSpiro
EndSplineSet
EndChar

StartChar: T
Encoding: 84 84 56
Width: 993
GlyphClass: 2
Flags: W
LayerCount: 2
Fore
SplineSet
973 720 m 1,0,-1
 973 577 l 1,1,-1
 590 577 l 1,2,-1
 590 0 l 1,3,-1
 409 0 l 1,4,-1
 409 577 l 1,5,-1
 20 577 l 1,6,-1
 20 720 l 1,7,-1
 973 720 l 1,0,-1
EndSplineSet
Validated: 1
EndChar

StartChar: U
Encoding: 85 85 57
Width: 1087
GlyphClass: 2
Flags: W
LayerCount: 2
Fore
SplineSet
771 721 m 1,0,-1
 771 221 l 2,1,2
 771 175 771 175 753.5 135 c 128,-1,3
 736 95 736 95 706 65 c 0,4,5
 674 33 674 33 635 18 c 0,6,7
 593 1 593 1 550 1 c 2,8,-1
 234 1 l 2,9,10
 189 1 189 1 149 18.5 c 128,-1,11
 109 36 109 36 79 66 c 128,-1,12
 49 96 49 96 31.5 136 c 128,-1,13
 14 176 14 176 14 222 c 2,14,-1
 14 721 l 1,15,-1
 195 721 l 1,16,-1
 195 210 l 2,17,18
 195 184 195 184 213 165 c 0,19,20
 232 145 232 145 259 145 c 2,21,-1
 525 144 l 2,22,23
 552 144 552 144 571 164 c 0,24,25
 590 183 590 183 590 209 c 2,26,-1
 590 721 l 1,27,-1
 771 721 l 1,0,-1
EndSplineSet
EndChar

StartChar: V
Encoding: 86 86 58
Width: 1101
GlyphClass: 2
Flags: W
LayerCount: 2
Fore
SplineSet
1091 720 m 1,0,-1
 672 0 l 1,1,-1
 429 0 l 1,2,-1
 10 720 l 1,3,-1
 209 720 l 1,4,-1
 551 128 l 1,5,-1
 892 720 l 1,6,-1
 1091 720 l 1,0,-1
EndSplineSet
Validated: 1
EndChar

StartChar: W
Encoding: 87 87 59
Width: 1496
GlyphClass: 2
Flags: W
LayerCount: 2
Fore
SplineSet
1476 720 m 1,0,-1
 1169 0 l 1,1,-1
 937 0 l 1,2,-1
 747 487 l 1,3,-1
 559 0 l 1,4,-1
 326 0 l 1,5,-1
 20 720 l 1,6,-1
 220 720 l 1,7,-1
 443 157 l 1,8,-1
 657 720 l 1,9,-1
 839 720 l 1,10,-1
 1053 157 l 1,11,-1
 1276 720 l 1,12,-1
 1476 720 l 1,0,-1
EndSplineSet
Validated: 1
EndChar

StartChar: X
Encoding: 88 88 60
Width: 1055
GlyphClass: 2
Flags: W
LayerCount: 2
Fore
SplineSet
644 360 m 1,0,-1
 1045 0 l 1,1,-1
 811 0 l 1,2,-1
 527 255 l 1,3,-1
 244 0 l 1,4,-1
 10 0 l 1,5,-1
 410 360 l 1,6,-1
 10 720 l 1,7,-1
 244 720 l 1,8,-1
 527 465 l 1,9,-1
 811 720 l 1,10,-1
 1045 720 l 1,11,-1
 644 360 l 1,0,-1
EndSplineSet
Validated: 1
EndChar

StartChar: Y
Encoding: 89 89 61
Width: 1101
GlyphClass: 2
Flags: W
LayerCount: 2
Fore
SplineSet
1091 720 m 1,0,-1
 641 236 l 1,1,-1
 641 0 l 1,2,-1
 460 0 l 1,3,-1
 460 235 l 1,4,-1
 10 720 l 1,5,-1
 224 720 l 1,6,-1
 551 365 l 1,7,-1
 877 720 l 1,8,-1
 1091 720 l 1,0,-1
EndSplineSet
Validated: 1
EndChar

StartChar: Z
Encoding: 90 90 62
Width: 989
GlyphClass: 2
Flags: W
LayerCount: 2
Fore
SplineSet
929 720 m 1,0,-1
 929 577 l 1,1,-1
 316 143 l 1,2,-1
 929 143 l 1,3,-1
 929 0 l 1,4,-1
 60 0 l 1,5,-1
 60 143 l 1,6,-1
 671 577 l 1,7,-1
 60 577 l 1,8,-1
 60 720 l 1,9,-1
 929 720 l 1,0,-1
EndSplineSet
Validated: 1
EndChar

StartChar: bracketleft
Encoding: 91 91 63
Width: 474
GlyphClass: 2
Flags: W
LayerCount: 2
Fore
SplineSet
434 800 m 1,0,-1
 434 669 l 1,1,-1
 242 669 l 1,2,-1
 242 -56 l 1,3,-1
 434 -56 l 1,4,-1
 434 -185 l 1,5,-1
 80 -186 l 1,6,-1
 80 800 l 1,7,-1
 434 800 l 1,0,-1
EndSplineSet
Validated: 1
EndChar

StartChar: backslash
Encoding: 92 92 64
Width: 806
GlyphClass: 2
Flags: W
LayerCount: 2
Fore
SplineSet
60 720 m 1,0,-1
 240 720 l 1,1,-1
 746 0 l 1,2,-1
 566 0 l 1,3,-1
 60 720 l 1,0,-1
EndSplineSet
Validated: 1
EndChar

StartChar: bracketright
Encoding: 93 93 65
Width: 474
GlyphClass: 2
Flags: W
LayerCount: 2
Fore
SplineSet
394 800 m 1,0,-1
 394 -186 l 1,1,-1
 40 -185 l 1,2,-1
 40 -56 l 1,3,-1
 232 -56 l 1,4,-1
 232 669 l 1,5,-1
 40 669 l 1,6,-1
 40 800 l 1,7,-1
 394 800 l 1,0,-1
EndSplineSet
Validated: 1
EndChar

StartChar: asciicircum
Encoding: 94 94 66
Width: 709
GlyphClass: 2
Flags: W
LayerCount: 2
Fore
SplineSet
436 720 m 1,0,-1
 689 432 l 1,1,-1
 499 432 l 1,2,-1
 355 604 l 1,3,-1
 210 432 l 1,4,-1
 20 432 l 1,5,-1
 273 720 l 1,6,-1
 436 720 l 1,0,-1
EndSplineSet
Validated: 1
EndChar

StartChar: underscore
Encoding: 95 95 67
Width: 600
GlyphClass: 2
Flags: W
LayerCount: 2
Fore
SplineSet
600 -87 m 1,0,-1
 600 -230 l 1,1,-1
 0 -230 l 1,2,-1
 0 -87 l 1,3,-1
 600 -87 l 1,0,-1
EndSplineSet
Validated: 1
EndChar

StartChar: grave
Encoding: 96 96 68
Width: 452
GlyphClass: 2
Flags: W
LayerCount: 2
Fore
SplineSet
240 883 m 1,0,-1
 392 635 l 1,1,-1
 279 635 l 1,2,-1
 60 883 l 1,3,-1
 240 883 l 1,0,-1
EndSplineSet
Validated: 1
EndChar

StartChar: a
Encoding: 97 97 69
Width: 946
GlyphClass: 2
Flags: W
LayerCount: 2
Fore
SplineSet
585 612 m 1,0,-1
 937 0 l 1,1,-1
 750 0 l 1,2,-1
 473 486 l 1,3,-1
 323 222 l 1,4,-1
 545 222 l 1,5,-1
 621 90 l 1,6,-1
 249 90 l 1,7,-1
 196 0 l 1,8,-1
 9 0 l 1,9,-1
 361 612 l 1,10,-1
 585 612 l 1,0,-1
EndSplineSet
Validated: 1
Substitution2: "Single Substitution lookup 10 subtable" ordfeminine
Substitution2: "'ss01' Style Set 1 lookup 7 subtable" a.ss01
Substitution2: "'salt' Stylistic Alternatives lookup 6 subtable" a.ss01
AlternateSubs2: "'aalt' Access All Alternates lookup 1 subtable" ordfeminine a.ss01
EndChar

StartChar: b
Encoding: 98 98 70
Width: 927
GlyphClass: 2
Flags: W
LayerCount: 2
Fore
SplineSet
713 612 m 2,0,1
 747 612 747 612 777 601.5 c 128,-1,2
 807 591 807 591 829 572 c 128,-1,3
 851 553 851 553 864 526 c 128,-1,4
 877 499 877 499 877 466 c 2,5,-1
 877 414 l 2,6,7
 877 383 877 383 859 351.5 c 128,-1,8
 841 320 841 320 812 306 c 1,9,10
 826 298 826 298 838 286 c 128,-1,11
 850 274 850 274 858.5 260 c 128,-1,12
 867 246 867 246 872 230.5 c 128,-1,13
 877 215 877 215 877 200 c 2,14,-1
 877 147 l 2,15,16
 877 117 877 117 867.5 90.5 c 128,-1,17
 858 64 858 64 838 44 c 128,-1,18
 818 24 818 24 787 12 c 128,-1,19
 756 0 756 0 713 0 c 2,20,-1
 399 0 l 1,21,-1
 265 133 l 1,22,-1
 672 133 l 2,23,24
 689 133 689 133 698 144 c 128,-1,25
 707 155 707 155 707 170 c 2,26,-1
 707 204 l 2,27,28
 707 219 707 219 697 229.5 c 128,-1,29
 687 240 687 240 673 240 c 2,30,-1
 399 240 l 1,31,-1
 265 373 l 1,32,-1
 672 373 l 2,33,34
 689 373 689 373 698 383.5 c 128,-1,35
 707 394 707 394 707 409 c 2,36,-1
 707 442 l 2,37,38
 707 457 707 457 698.5 468 c 128,-1,39
 690 479 690 479 673 479 c 2,40,-1
 233 479 l 1,41,-1
 233 0 l 1,42,-1
 63 0 l 1,43,-1
 63 612 l 1,44,-1
 713 612 l 2,0,1
EndSplineSet
Validated: 1
Substitution2: "'ss01' Style Set 1 lookup 7 subtable" b.ss01
Substitution2: "'salt' Stylistic Alternatives lookup 6 subtable" b.ss01
Substitution2: "'aalt' Access All Alternates lookup 0 subtable" b.ss01
EndChar

StartChar: c
Encoding: 99 99 71
Width: 871
GlyphClass: 2
Flags: W
LayerCount: 2
Fore
SplineSet
817 612 m 1,0,-1
 817 479 l 1,1,-1
 261 479 l 2,2,3
 243 479 243 479 230.5 465.5 c 128,-1,4
 218 452 218 452 218 433 c 2,5,-1
 218 180 l 2,6,7
 218 160 218 160 230.5 147 c 128,-1,8
 243 134 243 134 261 133 c 2,9,-1
 817 133 l 1,10,-1
 817 0 l 1,11,-1
 241 0 l 2,12,13
 203 0 203 0 168 15 c 128,-1,14
 133 30 133 30 106.5 55.5 c 128,-1,15
 80 81 80 81 64 115.5 c 128,-1,16
 48 150 48 150 48 189 c 2,17,-1
 48 421 l 2,18,19
 48 460 48 460 63 495 c 128,-1,20
 78 530 78 530 104.5 556 c 128,-1,21
 131 582 131 582 166 597 c 128,-1,22
 201 612 201 612 241 612 c 2,23,-1
 817 612 l 1,0,-1
EndSplineSet
Validated: 1
EndChar

StartChar: d
Encoding: 100 100 72
Width: 929
GlyphClass: 2
Flags: W
LayerCount: 2
Fore
SplineSet
665 133 m 2,0,1
 684 133 684 133 696.5 147 c 128,-1,2
 709 161 709 161 709 180 c 2,3,-1
 709 432 l 2,4,5
 709 451 709 451 696.5 465 c 128,-1,6
 684 479 684 479 665 479 c 2,7,-1
 233 479 l 1,8,-1
 233 0 l 1,9,-1
 63 0 l 1,10,-1
 63 612 l 1,11,-1
 686 612 l 2,12,13
 726 612 726 612 761 597 c 128,-1,14
 796 582 796 582 822.5 556 c 128,-1,15
 849 530 849 530 864 495 c 128,-1,16
 879 460 879 460 879 421 c 2,17,-1
 879 189 l 2,18,19
 879 151 879 151 864 117 c 128,-1,20
 849 83 849 83 822.5 57 c 128,-1,21
 796 31 796 31 761 15.5 c 128,-1,22
 726 0 726 0 686 0 c 2,23,-1
 400 0 l 1,24,-1
 265 133 l 1,25,-1
 665 133 l 2,0,1
EndSplineSet
Validated: 1
Substitution2: "'ss01' Style Set 1 lookup 7 subtable" d.ss01
Substitution2: "'salt' Stylistic Alternatives lookup 6 subtable" d.ss01
Substitution2: "'aalt' Access All Alternates lookup 0 subtable" d.ss01
EndChar

StartChar: e
Encoding: 101 101 73
Width: 830
GlyphClass: 2
Flags: W
LayerCount: 2
Fore
SplineSet
780 612 m 1,0,-1
 780 479 l 1,1,-1
 233 479 l 1,2,-1
 233 373 l 1,3,-1
 654 373 l 1,4,-1
 654 240 l 1,5,-1
 233 240 l 1,6,-1
 233 133 l 1,7,-1
 780 133 l 1,8,-1
 780 0 l 1,9,-1
 63 0 l 1,10,-1
 63 612 l 1,11,-1
 780 612 l 1,0,-1
EndSplineSet
Validated: 1
EndChar

StartChar: f
Encoding: 102 102 74
Width: 798
GlyphClass: 2
Flags: W
LayerCount: 2
Fore
SplineSet
780 612 m 1,0,-1
 780 479 l 1,1,-1
 233 479 l 1,2,-1
 233 373 l 1,3,-1
 640 373 l 1,4,-1
 640 240 l 1,5,-1
 233 240 l 1,6,-1
 233 0 l 1,7,-1
 63 0 l 1,8,-1
 63 612 l 1,9,-1
 780 612 l 1,0,-1
EndSplineSet
Validated: 1
EndChar

StartChar: g
Encoding: 103 103 75
Width: 924
GlyphClass: 2
Flags: W
LayerCount: 2
Fore
SplineSet
834 612 m 1,0,-1
 834 479 l 1,1,-1
 261 479 l 2,2,3
 243 479 243 479 230.5 465 c 128,-1,4
 218 451 218 451 218 432 c 2,5,-1
 218 180 l 2,6,7
 218 160 218 160 230.5 146.5 c 128,-1,8
 243 133 243 133 261 133 c 2,9,-1
 692 133 l 1,10,-1
 692 240 l 1,11,-1
 469 240 l 1,12,-1
 335 373 l 1,13,-1
 861 373 l 1,14,-1
 861 0 l 1,15,-1
 241 0 l 2,16,17
 201 0 201 0 166 14.5 c 128,-1,18
 131 29 131 29 104.5 55 c 128,-1,19
 78 81 78 81 63 115.5 c 128,-1,20
 48 150 48 150 48 190 c 2,21,-1
 48 421 l 2,22,23
 48 460 48 460 63 495 c 128,-1,24
 78 530 78 530 104.5 556 c 128,-1,25
 131 582 131 582 166 597 c 128,-1,26
 201 612 201 612 241 612 c 2,27,-1
 834 612 l 1,0,-1
EndSplineSet
Validated: 1
EndChar

StartChar: h
Encoding: 104 104 76
Width: 939
GlyphClass: 2
Flags: W
LayerCount: 2
Fore
SplineSet
876 612 m 1,0,-1
 876 0 l 1,1,-1
 706 0 l 1,2,-1
 706 240 l 1,3,-1
 408 240 l 1,4,-1
 275 373 l 1,5,-1
 706 373 l 1,6,-1
 706 612 l 1,7,-1
 876 612 l 1,0,-1
233 612 m 1,8,-1
 233 0 l 1,9,-1
 63 0 l 1,10,-1
 63 612 l 1,11,-1
 233 612 l 1,8,-1
EndSplineSet
Validated: 1
Substitution2: "'ss01' Style Set 1 lookup 7 subtable" h.ss01
Substitution2: "'salt' Stylistic Alternatives lookup 6 subtable" h.ss01
Substitution2: "'aalt' Access All Alternates lookup 0 subtable" h.ss01
EndChar

StartChar: i
Encoding: 105 105 77
Width: 296
GlyphClass: 2
Flags: W
LayerCount: 2
Fore
SplineSet
233 612 m 1,0,-1
 233 0 l 1,1,-1
 63 0 l 1,2,-1
 63 612 l 1,3,-1
 233 612 l 1,0,-1
EndSplineSet
Validated: 1
EndChar

StartChar: j
Encoding: 106 106 78
Width: 817
GlyphClass: 2
Flags: W
LayerCount: 2
Fore
SplineSet
758 612 m 1,0,-1
 758 190 l 2,1,2
 758 150 758 150 743 115.5 c 128,-1,3
 728 81 728 81 701.5 55.5 c 128,-1,4
 675 30 675 30 640 15 c 128,-1,5
 605 0 605 0 566 0 c 2,6,-1
 36 0 l 1,7,-1
 36 133 l 1,8,-1
 545 133 l 2,9,10
 564 133 564 133 576.5 146.5 c 128,-1,11
 589 160 589 160 589 180 c 2,12,-1
 589 612 l 1,13,-1
 758 612 l 1,0,-1
EndSplineSet
Validated: 1
Substitution2: "'ss02' Style Set 2 lookup 8 subtable" j.ss02
EndChar

StartChar: k
Encoding: 107 107 79
Width: 881
GlyphClass: 2
Flags: W
LayerCount: 2
Fore
SplineSet
233 612 m 1,0,-1
 233 370 l 1,1,-1
 646 612 l 1,2,-1
 890 612 l 1,3,-1
 379 306 l 1,4,-1
 890 0 l 1,5,-1
 632 0 l 1,6,-1
 233 240 l 1,7,-1
 233 0 l 1,8,-1
 63 0 l 1,9,-1
 63 612 l 1,10,-1
 233 612 l 1,0,-1
EndSplineSet
Validated: 1
EndChar

StartChar: l
Encoding: 108 108 80
Width: 807
GlyphClass: 2
Flags: W
LayerCount: 2
Fore
SplineSet
415 133 m 1,0,-1
 233 133 l 1,1,-1
 233 612 l 1,2,-1
 63 612 l 1,3,-1
 63 0 l 1,4,-1
 415 0 l 1,5,-1
 617 0 l 1,6,-1
 618 132 l 1,7,-1
 415 133 l 1,0,-1
EndSplineSet
Validated: 9
EndChar

StartChar: m
Encoding: 109 109 81
Width: 1082
GlyphClass: 2
Flags: W
LayerCount: 2
Fore
SplineSet
1019 612 m 1,0,-1
 1019 0 l 1,1,-1
 848 0 l 1,2,-1
 848 390 l 1,3,-1
 595 0 l 1,4,-1
 485 0 l 1,5,-1
 233 392 l 1,6,-1
 233 0 l 1,7,-1
 63 0 l 1,8,-1
 63 612 l 1,9,-1
 264 612 l 1,10,-1
 541 169 l 1,11,-1
 832 612 l 1,12,-1
 1019 612 l 1,0,-1
EndSplineSet
Validated: 1
EndChar

StartChar: n
Encoding: 110 110 82
Width: 951
GlyphClass: 2
Flags: W
LayerCount: 2
Fore
SplineSet
888 612 m 1,0,-1
 888 0 l 1,1,-1
 675 0 l 1,2,-1
 233 455 l 1,3,-1
 233 0 l 1,4,-1
 63 0 l 1,5,-1
 63 612 l 1,6,-1
 276 612 l 1,7,-1
 719 156 l 1,8,-1
 719 612 l 1,9,-1
 888 612 l 1,0,-1
EndSplineSet
Validated: 1
EndChar

StartChar: o
Encoding: 111 111 83
Width: 909
GlyphClass: 2
Flags: W
LayerCount: 2
Fore
SplineSet
668 612 m 2,0,1
 707 612 707 612 742.5 597 c 128,-1,2
 778 582 778 582 804 556 c 128,-1,3
 830 530 830 530 845.5 495 c 128,-1,4
 861 460 861 460 861 421 c 2,5,-1
 861 190 l 2,6,7
 861 150 861 150 845.5 115.5 c 128,-1,8
 830 81 830 81 804 55.5 c 128,-1,9
 778 30 778 30 742.5 15 c 128,-1,10
 707 0 707 0 668 0 c 2,11,-1
 241 0 l 2,12,13
 201 0 201 0 166 15 c 128,-1,14
 131 30 131 30 104.5 55.5 c 128,-1,15
 78 81 78 81 63 115.5 c 128,-1,16
 48 150 48 150 48 190 c 2,17,-1
 48 421 l 2,18,19
 48 460 48 460 63 495 c 128,-1,20
 78 530 78 530 104.5 556 c 128,-1,21
 131 582 131 582 166 597 c 128,-1,22
 201 612 201 612 241 612 c 2,23,-1
 668 612 l 2,0,1
691 433 m 2,24,25
 691 452 691 452 678 465.5 c 128,-1,26
 665 479 665 479 647 479 c 2,27,-1
 261 479 l 2,28,29
 243 479 243 479 230.5 465.5 c 128,-1,30
 218 452 218 452 218 433 c 2,31,-1
 218 180 l 2,32,33
 218 160 218 160 230.5 146.5 c 128,-1,34
 243 133 243 133 261 133 c 2,35,-1
 647 133 l 2,36,37
 665 133 665 133 678 146.5 c 128,-1,38
 691 160 691 160 691 180 c 2,39,-1
 691 433 l 2,24,25
EndSplineSet
Validated: 1
Substitution2: "Single Substitution lookup 10 subtable" ordmasculine
Substitution2: "'aalt' Access All Alternates lookup 0 subtable" ordmasculine
EndChar

StartChar: p
Encoding: 112 112 84
Width: 922
GlyphClass: 2
Flags: W
LayerCount: 2
Fore
SplineSet
713 612 m 2,0,1
 746 612 746 612 775.5 599 c 128,-1,2
 805 586 805 586 827.5 564.5 c 128,-1,3
 850 543 850 543 863.5 513.5 c 128,-1,4
 877 484 877 484 877 451 c 2,5,-1
 877 327 l 2,6,7
 877 292 877 292 863.5 262.5 c 128,-1,8
 850 233 850 233 827.5 212 c 128,-1,9
 805 191 805 191 775.5 179 c 128,-1,10
 746 167 746 167 713 167 c 2,11,-1
 399 167 l 1,12,-1
 265 301 l 1,13,-1
 673 301 l 2,14,15
 690 301 690 301 698.5 311.5 c 128,-1,16
 707 322 707 322 707 337 c 2,17,-1
 707 443 l 2,18,19
 707 458 707 458 699 468.5 c 128,-1,20
 691 479 691 479 673 479 c 2,21,-1
 233 479 l 1,22,-1
 233 0 l 1,23,-1
 63 0 l 1,24,-1
 63 612 l 1,25,-1
 713 612 l 2,0,1
EndSplineSet
Validated: 1
Substitution2: "'ss01' Style Set 1 lookup 7 subtable" p.ss01
Substitution2: "'salt' Stylistic Alternatives lookup 6 subtable" p.ss01
Substitution2: "'aalt' Access All Alternates lookup 0 subtable" p.ss01
EndChar

StartChar: q
Encoding: 113 113 85
Width: 909
GlyphClass: 2
Flags: W
LayerCount: 2
Fore
SplineSet
488 239 m 1,0,-1
 593 133 l 1,1,-1
 647 133 l 2,2,3
 665 133 665 133 678 146.5 c 128,-1,4
 691 160 691 160 691 180 c 2,5,-1
 691 432 l 2,6,7
 691 452 691 452 678 465.5 c 128,-1,8
 665 479 665 479 647 479 c 2,9,-1
 261 479 l 2,10,11
 243 479 243 479 230.5 465.5 c 128,-1,12
 218 452 218 452 218 432 c 2,13,-1
 218 180 l 2,14,15
 218 160 218 160 230.5 146.5 c 128,-1,16
 243 133 243 133 261 133 c 2,17,-1
 351 133 l 1,18,-1
 483 0 l 1,19,-1
 241 0 l 2,20,21
 201 0 201 0 166 15 c 128,-1,22
 131 30 131 30 104.5 55.5 c 128,-1,23
 78 81 78 81 63 115.5 c 128,-1,24
 48 150 48 150 48 190 c 2,25,-1
 48 421 l 2,26,27
 48 460 48 460 63 495 c 128,-1,28
 78 530 78 530 104.5 556 c 128,-1,29
 131 582 131 582 166 597 c 128,-1,30
 201 612 201 612 241 612 c 2,31,-1
 668 612 l 2,32,33
 707 612 707 612 742.5 597 c 128,-1,34
 778 582 778 582 804 556 c 128,-1,35
 830 530 830 530 845.5 495 c 128,-1,36
 861 460 861 460 861 421 c 2,37,-1
 861 190 l 2,38,39
 861 157 861 157 850 127 c 128,-1,40
 839 97 839 97 820 73 c 128,-1,41
 801 49 801 49 775 31.5 c 128,-1,42
 749 14 749 14 719 6 c 1,43,-1
 831 -105 l 1,44,-1
 648 -105 l 1,45,-1
 308 239 l 1,46,-1
 488 239 l 1,0,-1
EndSplineSet
Validated: 1
Substitution2: "'ss01' Style Set 1 lookup 7 subtable" q.ss01
Substitution2: "'salt' Stylistic Alternatives lookup 6 subtable" q.ss01
Substitution2: "'aalt' Access All Alternates lookup 0 subtable" q.ss01
EndChar

StartChar: r
Encoding: 114 114 86
Width: 934
GlyphClass: 2
Flags: W
LayerCount: 2
Fore
SplineSet
713 612 m 2,0,1
 747 612 747 612 777 601 c 128,-1,2
 807 590 807 590 829 570.5 c 128,-1,3
 851 551 851 551 864 523.5 c 128,-1,4
 877 496 877 496 877 463 c 2,5,-1
 877 367 l 2,6,7
 877 336 877 336 859 306.5 c 128,-1,8
 841 277 841 277 812 263 c 1,9,10
 843 251 843 251 860 226 c 128,-1,11
 877 201 877 201 877 169 c 2,12,-1
 877 0 l 1,13,-1
 707 0 l 1,14,-1
 707 160 l 2,15,16
 707 175 707 175 697 185.5 c 128,-1,17
 687 196 687 196 673 196 c 2,18,-1
 399 196 l 1,19,-1
 265 329 l 1,20,-1
 672 329 l 2,21,22
 686 329 686 329 696.5 337 c 128,-1,23
 707 345 707 345 707 361 c 2,24,-1
 707 446 l 2,25,26
 707 461 707 461 697 470 c 128,-1,27
 687 479 687 479 673 479 c 2,28,-1
 233 479 l 1,29,-1
 233 0 l 1,30,-1
 63 0 l 1,31,-1
 63 612 l 1,32,-1
 713 612 l 2,0,1
EndSplineSet
Validated: 1
Substitution2: "'ss01' Style Set 1 lookup 7 subtable" r.ss01
Substitution2: "'salt' Stylistic Alternatives lookup 6 subtable" r.ss01
Substitution2: "'aalt' Access All Alternates lookup 0 subtable" r.ss01
EndChar

StartChar: s
Encoding: 115 115 87
Width: 923
GlyphClass: 2
Flags: W
LayerCount: 2
Fore
SplineSet
839 612 m 1,0,-1
 839 479 l 1,1,-1
 257 479 l 2,2,3
 243 479 243 479 233 468 c 128,-1,4
 223 457 223 457 223 442 c 2,5,-1
 223 410 l 2,6,7
 223 394 223 394 233 383.5 c 128,-1,8
 243 373 243 373 257 373 c 2,9,-1
 705 373 l 2,10,11
 748 373 748 373 779 361 c 128,-1,12
 810 349 810 349 830 328 c 128,-1,13
 850 307 850 307 859.5 277.5 c 128,-1,14
 869 248 869 248 869 213 c 2,15,-1
 869 161 l 2,16,17
 869 131 869 131 859.5 102.5 c 128,-1,18
 850 74 850 74 830 51 c 128,-1,19
 810 28 810 28 779 14 c 128,-1,20
 748 0 748 0 705 0 c 2,21,-1
 68 0 l 1,22,-1
 68 133 l 1,23,-1
 666 133 l 2,24,25
 680 133 680 133 690 144 c 128,-1,26
 700 155 700 155 700 170 c 2,27,-1
 700 203 l 2,28,29
 700 218 700 218 690 229 c 128,-1,30
 680 240 680 240 666 240 c 2,31,-1
 217 240 l 2,32,33
 184 240 184 240 154 250 c 128,-1,34
 124 260 124 260 102 278.5 c 128,-1,35
 80 297 80 297 67 322.5 c 128,-1,36
 54 348 54 348 54 379 c 2,37,-1
 54 459 l 2,38,39
 54 492 54 492 67 520 c 128,-1,40
 80 548 80 548 102 568.5 c 128,-1,41
 124 589 124 589 154 600.5 c 128,-1,42
 184 612 184 612 217 612 c 2,43,-1
 839 612 l 1,0,-1
EndSplineSet
Validated: 1
EndChar

StartChar: t
Encoding: 116 116 88
Width: 847
GlyphClass: 2
Flags: W
LayerCount: 2
Fore
SplineSet
829 612 m 1,0,-1
 829 479 l 1,1,-1
 511 479 l 1,2,-1
 511 0 l 1,3,-1
 340 0 l 1,4,-1
 340 479 l 1,5,-1
 18 479 l 1,6,-1
 18 612 l 1,7,-1
 829 612 l 1,0,-1
EndSplineSet
Validated: 1
EndChar

StartChar: u
Encoding: 117 117 89
Width: 932
GlyphClass: 2
Flags: W
LayerCount: 2
Fore
SplineSet
873 612 m 1,0,-1
 873 190 l 2,1,2
 873 150 873 150 857.5 115.5 c 128,-1,3
 842 81 842 81 816 55.5 c 128,-1,4
 790 30 790 30 754.5 15 c 128,-1,5
 719 0 719 0 680 0 c 2,6,-1
 252 0 l 2,7,8
 212 0 212 0 177 15 c 128,-1,9
 142 30 142 30 115.5 55.5 c 128,-1,10
 89 81 89 81 74 115.5 c 128,-1,11
 59 150 59 150 59 190 c 2,12,-1
 59 612 l 1,13,-1
 229 612 l 1,14,-1
 229 180 l 2,15,16
 229 161 229 161 241.5 147 c 128,-1,17
 254 133 254 133 272 133 c 2,18,-1
 659 133 l 2,19,20
 677 133 677 133 690 147 c 128,-1,21
 703 161 703 161 703 180 c 2,22,-1
 703 612 l 1,23,-1
 873 612 l 1,0,-1
EndSplineSet
Validated: 1
EndChar

StartChar: v
Encoding: 118 118 90
Width: 946
GlyphClass: 2
Flags: W
LayerCount: 2
Fore
SplineSet
937 612 m 1,0,-1
 581 0 l 1,1,-1
 365 0 l 1,2,-1
 9 612 l 1,3,-1
 196 612 l 1,4,-1
 473 132 l 1,5,-1
 749 612 l 1,6,-1
 937 612 l 1,0,-1
EndSplineSet
Validated: 1
EndChar

StartChar: w
Encoding: 119 119 91
Width: 1270
GlyphClass: 2
Flags: W
LayerCount: 2
Fore
SplineSet
1252 612 m 1,0,-1
 991 0 l 1,1,-1
 792 0 l 1,2,-1
 634 403 l 1,3,-1
 478 0 l 1,4,-1
 278 0 l 1,5,-1
 18 612 l 1,6,-1
 204 612 l 1,7,-1
 382 163 l 1,8,-1
 552 612 l 1,9,-1
 717 612 l 1,10,-1
 888 163 l 1,11,-1
 1066 612 l 1,12,-1
 1252 612 l 1,0,-1
EndSplineSet
Validated: 1
EndChar

StartChar: x
Encoding: 120 120 92
Width: 917
GlyphClass: 2
Flags: W
LayerCount: 2
Fore
SplineSet
568 306 m 1,0,-1
 908 0 l 1,1,-1
 689 0 l 1,2,-1
 459 207 l 1,3,-1
 229 0 l 1,4,-1
 9 0 l 1,5,-1
 349 306 l 1,6,-1
 9 612 l 1,7,-1
 229 612 l 1,8,-1
 459 405 l 1,9,-1
 689 612 l 1,10,-1
 908 612 l 1,11,-1
 568 306 l 1,0,-1
EndSplineSet
Validated: 1
EndChar

StartChar: y
Encoding: 121 121 93
Width: 952
GlyphClass: 2
Flags: W
LayerCount: 2
Fore
SplineSet
943 612 m 1,0,-1
 561 201 l 1,1,-1
 561 0 l 1,2,-1
 391 0 l 1,3,-1
 391 200 l 1,4,-1
 9 612 l 1,5,-1
 206 612 l 1,6,-1
 476 315 l 1,7,-1
 746 612 l 1,8,-1
 943 612 l 1,0,-1
EndSplineSet
Validated: 1
EndChar

StartChar: z
Encoding: 122 122 94
Width: 869
GlyphClass: 2
Flags: W
LayerCount: 2
Fore
SplineSet
805 612 m 1,0,-1
 805 479 l 1,1,-1
 303 133 l 1,2,-1
 805 133 l 1,3,-1
 805 0 l 1,4,-1
 64 0 l 1,5,-1
 64 133 l 1,6,-1
 566 479 l 1,7,-1
 64 479 l 1,8,-1
 64 612 l 1,9,-1
 805 612 l 1,0,-1
EndSplineSet
Validated: 1
EndChar

StartChar: braceleft
Encoding: 123 123 95
Width: 544
GlyphClass: 2
Flags: W
LayerCount: 2
Fore
SplineSet
504 800 m 1,0,-1
 504 669 l 1,1,-1
 370 669 l 2,2,3
 345 669 345 669 328.5 652 c 128,-1,4
 312 635 312 635 312 611 c 2,5,-1
 312 409 l 2,6,7
 312 372 312 372 288.5 344 c 128,-1,8
 265 316 265 316 230 308 c 1,9,10
 266 300 266 300 289 271.5 c 128,-1,11
 312 243 312 243 312 207 c 2,12,-1
 312 2 l 2,13,14
 312 -22 312 -22 328.5 -39 c 128,-1,15
 345 -56 345 -56 370 -56 c 2,16,-1
 504 -56 l 1,17,-1
 504 -185 l 1,18,-1
 348 -185 l 2,19,20
 307 -185 307 -185 271 -169.5 c 128,-1,21
 235 -154 235 -154 208 -127.5 c 128,-1,22
 181 -101 181 -101 165.5 -65 c 128,-1,23
 150 -29 150 -29 150 12 c 2,24,-1
 150 196 l 2,25,26
 150 216 150 216 136 229.5 c 128,-1,27
 122 243 122 243 102 243 c 2,28,-1
 20 243 l 1,29,-1
 20 372 l 1,30,-1
 102 372 l 2,31,32
 122 372 122 372 136 385.5 c 128,-1,33
 150 399 150 399 150 419 c 2,34,-1
 150 601 l 2,35,36
 150 642 150 642 165.5 678 c 128,-1,37
 181 714 181 714 208 741 c 128,-1,38
 235 768 235 768 271 784 c 128,-1,39
 307 800 307 800 348 800 c 2,40,-1
 504 800 l 1,0,-1
EndSplineSet
Validated: 1
EndChar

StartChar: bar
Encoding: 124 124 96
Width: 282
GlyphClass: 2
Flags: W
LayerCount: 2
Fore
SplineSet
222 937 m 1,0,-1
 222 -217 l 1,1,-1
 60 -217 l 1,2,-1
 60 937 l 1,3,-1
 222 937 l 1,0,-1
EndSplineSet
Validated: 1
EndChar

StartChar: braceright
Encoding: 125 125 97
Width: 544
GlyphClass: 2
Flags: W
LayerCount: 2
Fore
SplineSet
196 800 m 2,0,1
 237 800 237 800 273 784 c 128,-1,2
 309 768 309 768 336 741 c 128,-1,3
 363 714 363 714 378.5 678 c 128,-1,4
 394 642 394 642 394 601 c 2,5,-1
 394 419 l 2,6,7
 394 399 394 399 408 385.5 c 128,-1,8
 422 372 422 372 442 372 c 2,9,-1
 524 372 l 1,10,-1
 524 243 l 1,11,-1
 442 243 l 2,12,13
 422 243 422 243 408 229.5 c 128,-1,14
 394 216 394 216 394 196 c 2,15,-1
 394 12 l 2,16,17
 394 -29 394 -29 378.5 -65 c 128,-1,18
 363 -101 363 -101 336 -127.5 c 128,-1,19
 309 -154 309 -154 273 -169.5 c 128,-1,20
 237 -185 237 -185 196 -185 c 2,21,-1
 40 -185 l 1,22,-1
 40 -56 l 1,23,-1
 174 -56 l 2,24,25
 199 -56 199 -56 215.5 -39 c 128,-1,26
 232 -22 232 -22 232 2 c 2,27,-1
 232 207 l 2,28,29
 232 243 232 243 255 271.5 c 128,-1,30
 278 300 278 300 314 308 c 1,31,32
 279 316 279 316 255.5 344 c 128,-1,33
 232 372 232 372 232 409 c 2,34,-1
 232 611 l 2,35,36
 232 635 232 635 215.5 652 c 128,-1,37
 199 669 199 669 174 669 c 2,38,-1
 40 669 l 1,39,-1
 40 800 l 1,40,-1
 196 800 l 2,0,1
EndSplineSet
Validated: 1
EndChar

StartChar: asciitilde
Encoding: 126 126 98
Width: 695
GlyphClass: 2
Flags: W
LayerCount: 2
Fore
SplineSet
499 407 m 0,0,1
 517 407 517 407 537 412.5 c 128,-1,2
 557 418 557 418 575 426 c 128,-1,3
 593 434 593 434 608.5 444.5 c 128,-1,4
 624 455 624 455 635 466 c 1,5,-1
 635 325 l 1,6,7
 612 303 612 303 574 288 c 128,-1,8
 536 273 536 273 493 273 c 0,9,10
 460 273 460 273 422.5 281.5 c 128,-1,11
 385 290 385 290 346 300.5 c 128,-1,12
 307 311 307 311 268.5 320 c 128,-1,13
 230 329 230 329 196 329 c 0,14,15
 178 329 178 329 158 323.5 c 128,-1,16
 138 318 138 318 119.5 310 c 128,-1,17
 101 302 101 302 85.5 291.5 c 128,-1,18
 70 281 70 281 60 271 c 1,19,-1
 60 411 l 1,20,21
 71 422 71 422 87.5 432 c 128,-1,22
 104 442 104 442 123.5 449 c 128,-1,23
 143 456 143 456 163 460 c 128,-1,24
 183 464 183 464 201 464 c 0,25,26
 234 464 234 464 271.5 455 c 128,-1,27
 309 446 309 446 348.5 435.5 c 128,-1,28
 388 425 388 425 426.5 416 c 128,-1,29
 465 407 465 407 499 407 c 0,0,1
EndSplineSet
Validated: 1
EndChar

StartChar: exclamdown
Encoding: 161 161 100
Width: 334
GlyphClass: 2
Flags: W
LayerCount: 2
Fore
SplineSet
60 0 m 1,0,-1
 101 501 l 1,1,-1
 233 501 l 1,2,-1
 274 0 l 1,3,-1
 60 0 l 1,0,-1
258 577 m 1,4,-1
 76 577 l 1,5,-1
 76 720 l 1,6,-1
 258 720 l 1,7,-1
 258 577 l 1,4,-1
EndSplineSet
Validated: 1
EndChar

StartChar: cent
Encoding: 162 162 101
Width: 828
GlyphClass: 2
Flags: W
LayerCount: 2
Fore
SplineSet
550 740 m 1,0,-1
 550 628 l 1,1,-1
 768 628 l 1,2,-1
 768 485 l 1,3,-1
 300 485 l 2,4,5
 275 485 275 485 258 468 c 128,-1,6
 241 451 241 451 241 427 c 2,7,-1
 241 294 l 2,8,9
 241 270 241 270 258 253 c 128,-1,10
 275 236 275 236 300 236 c 2,11,-1
 768 236 l 1,12,-1
 768 93 l 1,13,-1
 550 93 l 1,14,-1
 550 -20 l 1,15,-1
 388 -20 l 1,16,-1
 388 93 l 1,17,-1
 258 93 l 2,18,19
 209 93 209 93 172 108 c 128,-1,20
 135 123 135 123 110 149.5 c 128,-1,21
 85 176 85 176 72.5 212 c 128,-1,22
 60 248 60 248 60 290 c 2,23,-1
 60 429 l 2,24,25
 60 470 60 470 74.5 506 c 128,-1,26
 89 542 89 542 115 569 c 128,-1,27
 141 596 141 596 177.5 612 c 128,-1,28
 214 628 214 628 258 628 c 2,29,-1
 388 628 l 1,30,-1
 388 740 l 1,31,-1
 550 740 l 1,0,-1
EndSplineSet
Validated: 1
EndChar

StartChar: sterling
Encoding: 163 163 102
Width: 910
GlyphClass: 2
Flags: W
LayerCount: 2
Fore
SplineSet
216 432 m 1,0,-1
 216 521 l 2,1,2
 216 562 216 562 232 598.5 c 128,-1,3
 248 635 248 635 275 662 c 128,-1,4
 302 689 302 689 338 704.5 c 128,-1,5
 374 720 374 720 415 720 c 2,6,-1
 788 720 l 1,7,-1
 788 577 l 1,8,-1
 437 577 l 2,9,10
 412 576 412 576 395.5 559 c 128,-1,11
 379 542 379 542 378 519 c 2,12,-1
 378 432 l 1,13,-1
 607 432 l 1,14,-1
 607 289 l 1,15,-1
 378 289 l 1,16,-1
 378 230 l 2,17,18
 378 207 378 207 372 185 c 128,-1,19
 366 163 366 163 355 143 c 1,20,-1
 850 143 l 1,21,-1
 850 0 l 1,22,-1
 60 0 l 1,23,-1
 60 143 l 1,24,-1
 160 143 l 2,25,26
 183 145 183 145 199 161.5 c 128,-1,27
 215 178 215 178 216 201 c 2,28,-1
 216 289 l 1,29,-1
 60 289 l 1,30,-1
 60 432 l 1,31,-1
 216 432 l 1,0,-1
EndSplineSet
Validated: 1
EndChar

StartChar: currency
Encoding: 164 164 103
Width: 577
GlyphClass: 2
Flags: W
LayerCount: 2
Fore
SplineSet
141 597 m 1,0,-1
 209 529 l 1,1,2
 226 534 226 534 246 536.5 c 128,-1,3
 266 539 266 539 288 539 c 0,4,5
 311 539 311 539 331 536.5 c 128,-1,6
 351 534 351 534 368 529 c 1,7,-1
 436 597 l 1,8,-1
 517 516 l 1,9,-1
 466 465 l 1,10,11
 498 424 498 424 498 368 c 0,12,13
 498 313 498 313 466 272 c 1,14,-1
 517 221 l 1,15,-1
 436 140 l 1,16,-1
 368 208 l 1,17,18
 351 203 351 203 331 200.5 c 128,-1,19
 311 198 311 198 288 198 c 0,20,21
 266 198 266 198 246 200.5 c 128,-1,22
 226 203 226 203 209 208 c 1,23,-1
 141 140 l 1,24,-1
 60 221 l 1,25,-1
 111 272 l 1,26,27
 79 313 79 313 79 368 c 0,28,29
 79 424 79 424 111 465 c 1,30,-1
 60 516 l 1,31,-1
 141 597 l 1,0,-1
372 368 m 0,32,33
 372 404 372 404 351 428 c 128,-1,34
 330 452 330 452 288 452 c 0,35,36
 248 452 248 452 226 428 c 128,-1,37
 204 404 204 404 204 368 c 0,38,39
 204 333 204 333 226 309 c 128,-1,40
 248 285 248 285 288 285 c 0,41,42
 330 285 330 285 351 309 c 128,-1,43
 372 333 372 333 372 368 c 0,32,33
EndSplineSet
Validated: 1
EndChar

StartChar: yen
Encoding: 165 165 104
Width: 1121
GlyphClass: 2
Flags: W
LayerCount: 2
Fore
SplineSet
1101 720 m 1,0,-1
 792 388 l 1,1,-1
 942 388 l 1,2,-1
 942 277 l 1,3,-1
 688 277 l 1,4,-1
 651 236 l 1,5,-1
 651 214 l 1,6,-1
 942 214 l 1,7,-1
 942 103 l 1,8,-1
 651 103 l 1,9,-1
 651 0 l 1,10,-1
 470 0 l 1,11,-1
 470 103 l 1,12,-1
 174 103 l 1,13,-1
 174 214 l 1,14,-1
 470 214 l 1,15,-1
 470 235 l 1,16,-1
 431 277 l 1,17,-1
 174 277 l 1,18,-1
 174 388 l 1,19,-1
 328 388 l 1,20,-1
 20 720 l 1,21,-1
 234 720 l 1,22,-1
 540 388 l 1,23,-1
 582 388 l 1,24,-1
 887 720 l 1,25,-1
 1101 720 l 1,0,-1
EndSplineSet
Validated: 1
EndChar

StartChar: brokenbar
Encoding: 166 166 105
Width: 282
GlyphClass: 2
Flags: W
LayerCount: 2
Fore
SplineSet
222 296 m 1,0,-1
 222 -217 l 1,1,-1
 60 -217 l 1,2,-1
 60 296 l 1,3,-1
 222 296 l 1,0,-1
222 937 m 1,4,-1
 222 425 l 1,5,-1
 60 425 l 1,6,-1
 60 937 l 1,7,-1
 222 937 l 1,4,-1
EndSplineSet
Validated: 1
EndChar

StartChar: section
Encoding: 167 167 106
Width: 815
GlyphClass: 2
Flags: W
LayerCount: 2
Fore
SplineSet
723 720 m 1,0,-1
 723 590 l 1,1,-1
 265 590 l 2,2,3
 248 590 248 590 235.5 577.5 c 128,-1,4
 223 565 223 565 223 548 c 2,5,-1
 223 539 l 2,6,7
 223 521 223 521 235.5 509 c 128,-1,8
 248 497 248 497 265 497 c 2,9,-1
 588 497 l 2,10,11
 632 497 632 497 663.5 485 c 128,-1,12
 695 473 695 473 715.5 451 c 128,-1,13
 736 429 736 429 745.5 398.5 c 128,-1,14
 755 368 755 368 755 331 c 2,15,-1
 755 328 l 2,16,17
 754 299 754 299 746 272.5 c 128,-1,18
 738 246 738 246 721 224 c 1,19,20
 755 181 755 181 755 112 c 2,21,-1
 755 92 l 2,22,23
 755 62 755 62 745.5 32 c 128,-1,24
 736 2 736 2 715.5 -21.5 c 128,-1,25
 695 -45 695 -45 663.5 -59.5 c 128,-1,26
 632 -74 632 -74 588 -74 c 2,27,-1
 75 -74 l 1,28,-1
 75 55 l 1,29,-1
 550 55 l 2,30,31
 567 55 567 55 579.5 67.5 c 128,-1,32
 592 80 592 80 592 97 c 2,33,-1
 592 107 l 2,34,35
 592 124 592 124 579.5 136.5 c 128,-1,36
 567 149 567 149 550 149 c 2,37,-1
 226 149 l 2,38,39
 192 149 192 149 161.5 158 c 128,-1,40
 131 167 131 167 108.5 184.5 c 128,-1,41
 86 202 86 202 73 227 c 128,-1,42
 60 252 60 252 60 284 c 2,43,-1
 60 318 l 2,44,45
 60 347 60 347 69 372 c 128,-1,46
 78 397 78 397 94 417 c 1,47,48
 78 434 78 434 69 455.5 c 128,-1,49
 60 477 60 477 60 503 c 2,50,-1
 60 554 l 2,51,52
 60 588 60 588 73 618.5 c 128,-1,53
 86 649 86 649 108.5 671.5 c 128,-1,54
 131 694 131 694 161.5 707 c 128,-1,55
 192 720 192 720 226 720 c 2,56,-1
 723 720 l 1,0,-1
592 326 m 2,57,58
 592 343 592 343 579.5 355.5 c 128,-1,59
 567 368 567 368 550 368 c 2,60,-1
 265 368 l 2,61,62
 248 368 248 368 235.5 357.5 c 128,-1,63
 223 347 223 347 223 329 c 2,64,-1
 223 320 l 2,65,66
 223 302 223 302 235.5 290 c 128,-1,67
 248 278 248 278 265 278 c 2,68,-1
 550 278 l 2,69,70
 567 278 567 278 579.5 288.5 c 128,-1,71
 592 299 592 299 592 316 c 2,72,-1
 592 326 l 2,57,58
EndSplineSet
Validated: 1
EndChar

StartChar: dieresis
Encoding: 168 168 107
Width: 632
GlyphClass: 2
Flags: W
LayerCount: 2
Fore
SplineSet
532 789 m 1,0,-1
 532 645 l 1,1,-1
 388 645 l 1,2,-1
 388 789 l 1,3,-1
 532 789 l 1,0,-1
244 789 m 1,4,-1
 244 645 l 1,5,-1
 100 645 l 1,6,-1
 100 789 l 1,7,-1
 244 789 l 1,4,-1
EndSplineSet
Validated: 1
EndChar

StartChar: copyright
Encoding: 169 169 108
Width: 963
GlyphClass: 2
Flags: W
LayerCount: 2
Fore
SplineSet
780 719 m 2,0,1
 805 719 805 719 827.5 709 c 128,-1,2
 850 699 850 699 867 682 c 128,-1,3
 884 665 884 665 893.5 642.5 c 128,-1,4
 903 620 903 620 903 595 c 2,5,-1
 903 122 l 2,6,7
 903 97 903 97 893.5 74.5 c 128,-1,8
 884 52 884 52 867 35.5 c 128,-1,9
 850 19 850 19 827.5 9.5 c 128,-1,10
 805 0 805 0 780 0 c 2,11,-1
 183 0 l 2,12,13
 157 0 157 0 135 9.5 c 128,-1,14
 113 19 113 19 96 35.5 c 128,-1,15
 79 52 79 52 69.5 74.5 c 128,-1,16
 60 97 60 97 60 122 c 2,17,-1
 60 595 l 2,18,19
 60 620 60 620 69.5 642.5 c 128,-1,20
 79 665 79 665 96 682 c 128,-1,21
 113 699 113 699 135 709 c 128,-1,22
 157 719 157 719 183 719 c 2,23,-1
 780 719 l 2,0,1
802 583 m 2,24,25
 802 599 802 599 791.5 610 c 128,-1,26
 781 621 781 621 767 621 c 2,27,-1
 197 621 l 2,28,29
 181 621 181 621 171 610 c 128,-1,30
 161 599 161 599 161 583 c 2,31,-1
 161 134 l 2,32,33
 161 119 161 119 171 108.5 c 128,-1,34
 181 98 181 98 197 98 c 2,35,-1
 767 98 l 2,36,37
 781 98 781 98 791.5 108.5 c 128,-1,38
 802 119 802 119 802 134 c 2,39,-1
 802 583 l 2,24,25
709 560 m 1,40,-1
 709 466 l 1,41,-1
 372 466 l 2,42,43
 356 466 356 466 345.5 455 c 128,-1,44
 335 444 335 444 335 428 c 2,45,-1
 335 290 l 2,46,47
 335 275 335 275 345.5 264.5 c 128,-1,48
 356 254 356 254 372 254 c 2,49,-1
 709 254 l 1,50,-1
 709 159 l 1,51,-1
 357 159 l 2,52,53
 333 159 333 159 311 168.5 c 128,-1,54
 289 178 289 178 272 194.5 c 128,-1,55
 255 211 255 211 245 233 c 128,-1,56
 235 255 235 255 235 281 c 2,57,-1
 235 436 l 2,58,59
 235 462 235 462 244.5 484.5 c 128,-1,60
 254 507 254 507 270.5 524 c 128,-1,61
 287 541 287 541 309.5 550.5 c 128,-1,62
 332 560 332 560 357 560 c 2,63,-1
 709 560 l 1,40,-1
EndSplineSet
Validated: 1
EndChar

StartChar: ordfeminine
Encoding: 170 170 109
Width: 571
GlyphClass: 2
Flags: W
LayerCount: 2
Fore
SplineSet
355 720 m 1,0,-1
 561 362 l 1,1,-1
 438 362 l 1,2,-1
 286 628 l 1,3,-1
 211 498 l 1,4,-1
 306 498 l 1,5,-1
 359 405 l 1,6,-1
 159 405 l 1,7,-1
 134 362 l 1,8,-1
 10 362 l 1,9,-1
 216 720 l 1,10,-1
 355 720 l 1,0,-1
EndSplineSet
Validated: 1
Substitution2: "'ss01' Style Set 1 lookup 7 subtable" ordfeminine.ss01
Substitution2: "'salt' Stylistic Alternatives lookup 6 subtable" ordfeminine.ss01
Substitution2: "'aalt' Access All Alternates lookup 0 subtable" ordfeminine.ss01
EndChar

StartChar: guillemotleft
Encoding: 171 171 110
Width: 770
GlyphClass: 2
Flags: W
LayerCount: 2
Fore
SplineSet
360 534 m 1,0,-1
 360 385 l 1,1,-1
 179 287 l 1,2,-1
 360 190 l 1,3,-1
 360 41 l 1,4,-1
 50 218 l 1,5,-1
 50 357 l 1,6,-1
 360 534 l 1,0,-1
720 534 m 1,7,-1
 720 385 l 1,8,-1
 539 287 l 1,9,-1
 720 190 l 1,10,-1
 720 41 l 1,11,-1
 410 218 l 1,12,-1
 410 357 l 1,13,-1
 720 534 l 1,7,-1
EndSplineSet
Validated: 1
EndChar

StartChar: logicalnot
Encoding: 172 172 111
Width: 695
GlyphClass: 2
Flags: W
LayerCount: 2
Fore
SplineSet
60 432 m 1,0,-1
 635 432 l 1,1,-1
 635 103 l 1,2,-1
 491 103 l 1,3,-1
 491 288 l 1,4,-1
 60 288 l 1,5,-1
 60 432 l 1,0,-1
EndSplineSet
Validated: 1
EndChar

StartChar: registered
Encoding: 174 174 113
Width: 515
GlyphClass: 2
Flags: W
LayerCount: 2
Fore
SplineSet
410 720 m 2,0,1
 433 720 433 720 449 704 c 128,-1,2
 465 688 465 688 465 665 c 2,3,-1
 465 410 l 2,4,5
 465 387 465 387 449 371.5 c 128,-1,6
 433 356 433 356 410 356 c 2,7,-1
 105 356 l 2,8,9
 82 356 82 356 66 371.5 c 128,-1,10
 50 387 50 387 50 410 c 2,11,-1
 50 665 l 2,12,13
 50 688 50 688 66 704 c 128,-1,14
 82 720 82 720 105 720 c 2,15,-1
 410 720 l 2,0,1
410 649 m 2,16,17
 410 665 410 665 394 665 c 2,18,-1
 121 665 l 2,19,20
 105 665 105 665 105 649 c 2,21,-1
 105 428 l 2,22,23
 105 421 105 421 109.5 416 c 128,-1,24
 114 411 114 411 121 411 c 2,25,-1
 394 411 l 2,26,27
 401 411 401 411 405.5 416 c 128,-1,28
 410 421 410 421 410 428 c 2,29,-1
 410 649 l 2,16,17
269 510 m 1,30,-1
 195 510 l 1,31,-1
 195 446 l 1,32,-1
 145 446 l 1,33,-1
 145 628 l 1,34,-1
 326 628 l 2,35,36
 345 628 345 628 358.5 617 c 128,-1,37
 372 606 372 606 372 586 c 2,38,-1
 372 549 l 2,39,40
 372 534 372 534 360 522 c 128,-1,41
 348 510 348 510 327 510 c 1,42,-1
 382 446 l 1,43,-1
 323 446 l 1,44,-1
 269 510 l 1,30,-1
195 551 m 1,45,-1
 309 551 l 2,46,47
 322 551 322 551 322 564 c 2,48,-1
 322 573 l 2,49,50
 322 587 322 587 309 587 c 2,51,-1
 195 587 l 1,52,-1
 195 551 l 1,45,-1
EndSplineSet
Validated: 1
EndChar

StartChar: macron
Encoding: 175 175 114
Width: 632
GlyphClass: 2
Flags: W
LayerCount: 2
Fore
SplineSet
572 755 m 1,0,-1
 572 645 l 1,1,-1
 60 645 l 1,2,-1
 60 755 l 1,3,-1
 572 755 l 1,0,-1
EndSplineSet
Validated: 1
EndChar

StartChar: degree
Encoding: 176 176 115
Width: 427
GlyphClass: 2
Flags: W
LayerCount: 2
Fore
SplineSet
50 555 m 0,0,1
 50 588 50 588 62.5 618 c 128,-1,2
 75 648 75 648 97 670.5 c 128,-1,3
 119 693 119 693 149 706.5 c 128,-1,4
 179 720 179 720 213 720 c 0,5,6
 246 720 246 720 275.5 706.5 c 128,-1,7
 305 693 305 693 327.5 670.5 c 128,-1,8
 350 648 350 648 363.5 618 c 128,-1,9
 377 588 377 588 377 555 c 0,10,11
 377 521 377 521 363.5 491.5 c 128,-1,12
 350 462 350 462 327.5 440 c 128,-1,13
 305 418 305 418 275.5 405.5 c 128,-1,14
 246 393 246 393 213 393 c 0,15,16
 179 393 179 393 149 405.5 c 128,-1,17
 119 418 119 418 97 440 c 128,-1,18
 75 462 75 462 62.5 491.5 c 128,-1,19
 50 521 50 521 50 555 c 0,0,1
279 555 m 0,20,21
 279 584 279 584 260.5 603 c 128,-1,22
 242 622 242 622 213 622 c 256,23,24
 184 622 184 622 166 603 c 128,-1,25
 148 584 148 584 148 555 c 0,26,27
 148 527 148 527 166 509 c 128,-1,28
 184 491 184 491 213 491 c 256,29,30
 242 491 242 491 260.5 509 c 128,-1,31
 279 527 279 527 279 555 c 0,20,21
EndSplineSet
Validated: 1
EndChar

StartChar: plusminus
Encoding: 177 177 116
Width: 695
GlyphClass: 2
Flags: W
LayerCount: 2
Fore
SplineSet
419 720 m 1,0,-1
 419 538 l 1,1,-1
 635 538 l 1,2,-1
 635 395 l 1,3,-1
 419 395 l 1,4,-1
 419 216 l 1,5,-1
 276 216 l 1,6,-1
 276 395 l 1,7,-1
 60 395 l 1,8,-1
 60 538 l 1,9,-1
 276 538 l 1,10,-1
 276 720 l 1,11,-1
 419 720 l 1,0,-1
635 143 m 1,12,-1
 635 0 l 1,13,-1
 60 0 l 1,14,-1
 60 143 l 1,15,-1
 635 143 l 1,12,-1
EndSplineSet
Validated: 1
EndChar

StartChar: twosuperior
Encoding: 178 178 117
Width: 462
GlyphClass: 2
Flags: W
LayerCount: 2
Fore
SplineSet
320 720 m 2,0,1
 339 720 339 720 356 713 c 128,-1,2
 373 706 373 706 385.5 693.5 c 128,-1,3
 398 681 398 681 405 664 c 128,-1,4
 412 647 412 647 412 628 c 2,5,-1
 412 576 l 2,6,7
 412 540 412 540 385 519 c 128,-1,8
 358 498 358 498 320 498 c 2,9,-1
 187 498 l 2,10,11
 176 498 176 498 168 490.5 c 128,-1,12
 160 483 160 483 160 472 c 2,13,-1
 160 452 l 1,14,-1
 404 452 l 1,15,-1
 404 360 l 1,16,-1
 50 360 l 1,17,-1
 50 490 l 2,18,19
 51 532 51 532 72 557 c 128,-1,20
 93 582 93 582 143 582 c 2,21,-1
 275 582 l 2,22,23
 286 582 286 582 294 587.5 c 128,-1,24
 302 593 302 593 302 604 c 2,25,-1
 302 606 l 2,26,27
 302 617 302 617 294 622.5 c 128,-1,28
 286 628 286 628 275 628 c 2,29,-1
 68 628 l 1,30,-1
 68 720 l 1,31,-1
 320 720 l 2,0,1
EndSplineSet
Validated: 1
EndChar

StartChar: threesuperior
Encoding: 179 179 118
Width: 438
GlyphClass: 2
Flags: W
LayerCount: 2
Fore
SplineSet
296 720 m 2,0,1
 334 720 334 720 361 699.5 c 128,-1,2
 388 679 388 679 388 641 c 2,3,-1
 388 601 l 2,4,5
 388 581 388 581 375.5 563 c 128,-1,6
 363 545 363 545 343 540 c 1,7,8
 363 535 363 535 375.5 516.5 c 128,-1,9
 388 498 388 498 388 478 c 2,10,-1
 388 439 l 2,11,12
 388 405 388 405 366.5 382.5 c 128,-1,13
 345 360 345 360 296 360 c 2,14,-1
 50 360 l 1,15,-1
 50 449 l 1,16,-1
 260 449 l 2,17,18
 271 449 271 449 278.5 453.5 c 128,-1,19
 286 458 286 458 286 471 c 2,20,-1
 286 476 l 2,21,22
 286 489 286 489 278.5 494 c 128,-1,23
 271 499 271 499 260 499 c 2,24,-1
 96 499 l 1,25,-1
 96 581 l 1,26,-1
 260 581 l 2,27,28
 271 581 271 581 278.5 586 c 128,-1,29
 286 591 286 591 286 603 c 2,30,-1
 286 610 l 2,31,32
 286 622 286 622 278.5 627.5 c 128,-1,33
 271 633 271 633 260 633 c 2,34,-1
 51 633 l 1,35,-1
 51 720 l 1,36,-1
 296 720 l 2,0,1
EndSplineSet
Validated: 1
EndChar

StartChar: acute
Encoding: 180 180 119
Width: 452
GlyphClass: 2
Flags: W
LayerCount: 2
Fore
SplineSet
392 883 m 1,0,-1
 173 635 l 1,1,-1
 60 635 l 1,2,-1
 212 883 l 1,3,-1
 392 883 l 1,0,-1
EndSplineSet
Validated: 1
EndChar

StartChar: mu
Encoding: 181 181 120
Width: 960
GlyphClass: 2
Flags: W
LayerCount: 2
Fore
SplineSet
900 574 m 1,0,-1
 900 197 l 2,1,2
 900 156 900 156 884 120 c 128,-1,3
 868 84 868 84 841 57 c 128,-1,4
 814 30 814 30 778 15 c 128,-1,5
 742 0 742 0 701 0 c 2,6,-1
 258 0 l 2,7,8
 238 0 238 0 222 3 c 1,9,-1
 222 -190 l 1,10,-1
 60 -190 l 1,11,-1
 60 574 l 1,12,-1
 222 574 l 1,13,-1
 222 182 l 2,14,15
 224 159 224 159 241 144 c 128,-1,16
 258 129 258 129 281 129 c 2,17,-1
 679 129 l 2,18,19
 703 129 703 129 720 146 c 128,-1,20
 737 163 737 163 737 187 c 2,21,-1
 737 574 l 1,22,-1
 900 574 l 1,0,-1
EndSplineSet
Validated: 1
EndChar

StartChar: paragraph
Encoding: 182 182 121
Width: 912
GlyphClass: 2
Flags: W
LayerCount: 2
Fore
SplineSet
832 720 m 1,0,-1
 832 -200 l 1,1,-1
 662 -200 l 1,2,-1
 662 587 l 1,3,-1
 555 587 l 1,4,-1
 555 -200 l 1,5,-1
 384 -200 l 1,6,-1
 384 213 l 1,7,-1
 245 213 l 2,8,9
 208 213 208 213 174.5 226.5 c 128,-1,10
 141 240 141 240 115.5 265 c 128,-1,11
 90 290 90 290 75 323.5 c 128,-1,12
 60 357 60 357 60 398 c 2,13,-1
 60 550 l 2,14,15
 60 588 60 588 75 619 c 128,-1,16
 90 650 90 650 115.5 672.5 c 128,-1,17
 141 695 141 695 174.5 707.5 c 128,-1,18
 208 720 208 720 245 720 c 2,19,-1
 832 720 l 1,0,-1
EndSplineSet
Validated: 1
EndChar

StartChar: periodcentered
Encoding: 183 183 122
Width: 302
GlyphClass: 2
Flags: W
LayerCount: 2
Fore
SplineSet
60 410 m 1,0,-1
 242 410 l 1,1,-1
 242 247 l 1,2,-1
 60 247 l 1,3,-1
 60 410 l 1,0,-1
EndSplineSet
Validated: 1
EndChar

StartChar: cedilla
Encoding: 184 184 123
Width: 390
GlyphClass: 2
Flags: W
LayerCount: 2
Fore
SplineSet
244 8 m 1,0,-1
 214 -47 l 1,1,2
 232 -47 232 -47 252.5 -50 c 128,-1,3
 273 -53 273 -53 290.5 -62.5 c 128,-1,4
 308 -72 308 -72 319 -88.5 c 128,-1,5
 330 -105 330 -105 330 -132 c 256,6,7
 330 -159 330 -159 316.5 -177 c 128,-1,8
 303 -195 303 -195 282 -206 c 128,-1,9
 261 -217 261 -217 234.5 -221.5 c 128,-1,10
 208 -226 208 -226 181 -226 c 0,11,12
 134 -226 134 -226 106 -222 c 128,-1,13
 78 -218 78 -218 60 -215 c 1,14,-1
 60 -133 l 1,15,16
 79 -141 79 -141 103.5 -147.5 c 128,-1,17
 128 -154 128 -154 154 -154 c 256,18,19
 180 -154 180 -154 198 -148.5 c 128,-1,20
 216 -143 216 -143 216 -130 c 0,21,22
 216 -123 216 -123 210 -118 c 128,-1,23
 204 -113 204 -113 196 -111 c 128,-1,24
 188 -109 188 -109 178.5 -108 c 128,-1,25
 169 -107 169 -107 162 -107 c 0,26,27
 151 -107 151 -107 139.5 -108 c 128,-1,28
 128 -109 128 -109 118 -112 c 1,29,-1
 172 8 l 1,30,-1
 244 8 l 1,0,-1
EndSplineSet
Validated: 1
EndChar

StartChar: onesuperior
Encoding: 185 185 124
Width: 287
GlyphClass: 2
Flags: W
LayerCount: 2
Fore
SplineSet
237 720 m 1,0,-1
 237 360 l 1,1,-1
 127 360 l 1,2,-1
 127 628 l 1,3,-1
 40 628 l 1,4,-1
 40 720 l 1,5,-1
 237 720 l 1,0,-1
EndSplineSet
Validated: 1
EndChar

StartChar: ordmasculine
Encoding: 186 186 125
Width: 602
GlyphClass: 2
Flags: W
LayerCount: 2
Fore
SplineSet
50 610 m 2,0,1
 50 633 50 633 58.5 653 c 128,-1,2
 67 673 67 673 82 688 c 128,-1,3
 97 703 97 703 117 711.5 c 128,-1,4
 137 720 137 720 160 720 c 2,5,-1
 442 720 l 2,6,7
 465 720 465 720 485 711.5 c 128,-1,8
 505 703 505 703 520 688 c 128,-1,9
 535 673 535 673 543.5 653 c 128,-1,10
 552 633 552 633 552 610 c 2,11,-1
 552 472 l 2,12,13
 552 449 552 449 543 429 c 128,-1,14
 534 409 534 409 519 394 c 128,-1,15
 504 379 504 379 484.5 370.5 c 128,-1,16
 465 362 465 362 443 362 c 2,17,-1
 160 362 l 2,18,19
 137 362 137 362 117 370.5 c 128,-1,20
 97 379 97 379 82 394 c 128,-1,21
 67 409 67 409 58.5 429 c 128,-1,22
 50 449 50 449 50 472 c 2,23,-1
 50 610 l 2,0,1
163 486 m 2,24,25
 163 474 163 474 171.5 465.5 c 128,-1,26
 180 457 180 457 192 457 c 2,27,-1
 410 457 l 2,28,29
 423 457 423 457 431.5 465.5 c 128,-1,30
 440 474 440 474 440 486 c 2,31,-1
 440 596 l 2,32,33
 440 608 440 608 431.5 616.5 c 128,-1,34
 423 625 423 625 410 625 c 2,35,-1
 192 625 l 2,36,37
 180 625 180 625 171.5 616.5 c 128,-1,38
 163 608 163 608 163 596 c 2,39,-1
 163 486 l 2,24,25
EndSplineSet
Validated: 1
EndChar

StartChar: guillemotright
Encoding: 187 187 126
Width: 770
GlyphClass: 2
Flags: W
LayerCount: 2
Fore
SplineSet
720 357 m 1,0,-1
 720 218 l 1,1,-1
 410 41 l 1,2,-1
 410 190 l 1,3,-1
 591 287 l 1,4,-1
 410 385 l 1,5,-1
 410 534 l 1,6,-1
 720 357 l 1,0,-1
360 357 m 1,7,-1
 360 218 l 1,8,-1
 50 41 l 1,9,-1
 50 190 l 1,10,-1
 231 287 l 1,11,-1
 50 385 l 1,12,-1
 50 534 l 1,13,-1
 360 357 l 1,7,-1
EndSplineSet
Validated: 1
EndChar

StartChar: onequarter
Encoding: 188 188 127
Width: 898
GlyphClass: 3
Flags: W
LayerCount: 2
Fore
SplineSet
689 720 m 1,0,-1
 211 0 l 1,1,-1
 85 0 l 1,2,-1
 564 720 l 1,3,-1
 689 720 l 1,0,-1
848 360 m 1,4,-1
 848 0 l 1,5,-1
 738 0 l 1,6,-1
 738 102 l 1,7,-1
 507 102 l 1,8,-1
 507 360 l 1,9,-1
 617 360 l 1,10,-1
 617 194 l 1,11,-1
 738 194 l 1,12,-1
 738 360 l 1,13,-1
 848 360 l 1,4,-1
237 720 m 1,14,-1
 237 360 l 1,15,-1
 127 360 l 1,16,-1
 127 628 l 1,17,-1
 40 628 l 1,18,-1
 40 720 l 1,19,-1
 237 720 l 1,14,-1
EndSplineSet
Validated: 1
Ligature2: "Ligature Substitution lookup 12 subtable" onesuperior slash four
Ligature2: "Ligature Substitution lookup 12 subtable" onesuperior fraction four
Ligature2: "Ligature Substitution lookup 12 subtable" one slash four
Ligature2: "Ligature Substitution lookup 12 subtable" one fraction four
Substitution2: "'ss03' Style Set 3 lookup 9 subtable" onequarter.alt
Substitution2: "'salt' Stylistic Alternatives lookup 6 subtable" onequarter.alt
Substitution2: "'aalt' Access All Alternates lookup 0 subtable" onequarter.alt
EndChar

StartChar: onehalf
Encoding: 189 189 128
Width: 911
GlyphClass: 3
Flags: W
LayerCount: 2
Fore
SplineSet
689 720 m 1,0,-1
 211 0 l 1,1,-1
 85 0 l 1,2,-1
 564 720 l 1,3,-1
 689 720 l 1,0,-1
237 720 m 1,4,-1
 237 360 l 1,5,-1
 127 360 l 1,6,-1
 127 628 l 1,7,-1
 40 628 l 1,8,-1
 40 720 l 1,9,-1
 237 720 l 1,4,-1
769 360 m 2,10,11
 788 360 788 360 805 353 c 128,-1,12
 822 346 822 346 834.5 333.5 c 128,-1,13
 847 321 847 321 854 304 c 128,-1,14
 861 287 861 287 861 268 c 2,15,-1
 861 216 l 2,16,17
 861 180 861 180 834 159 c 128,-1,18
 807 138 807 138 769 138 c 2,19,-1
 631 138 l 2,20,21
 620 138 620 138 612 130.5 c 128,-1,22
 604 123 604 123 604 112 c 2,23,-1
 604 92 l 1,24,-1
 853 92 l 1,25,-1
 853 0 l 1,26,-1
 499 0 l 1,27,-1
 499 130 l 2,28,29
 500 172 500 172 521 197 c 128,-1,30
 542 222 542 222 592 222 c 2,31,-1
 729 222 l 2,32,33
 740 222 740 222 748 227.5 c 128,-1,34
 756 233 756 233 756 244 c 2,35,-1
 756 246 l 2,36,37
 756 257 756 257 748 262.5 c 128,-1,38
 740 268 740 268 729 268 c 2,39,-1
 517 268 l 1,40,-1
 517 360 l 1,41,-1
 769 360 l 2,10,11
EndSplineSet
Validated: 1
Ligature2: "Ligature Substitution lookup 12 subtable" onesuperior slash twosuperior
Ligature2: "Ligature Substitution lookup 12 subtable" onesuperior fraction twosuperior
Ligature2: "Ligature Substitution lookup 12 subtable" one slash twosuperior
Ligature2: "Ligature Substitution lookup 12 subtable" one slash two
Ligature2: "Ligature Substitution lookup 12 subtable" one fraction twosuperior
Ligature2: "Ligature Substitution lookup 12 subtable" one fraction two
EndChar

StartChar: threequarters
Encoding: 190 190 129
Width: 1008
GlyphClass: 3
Flags: W
LayerCount: 2
Fore
SplineSet
799 720 m 1,0,-1
 321 0 l 1,1,-1
 195 0 l 1,2,-1
 674 720 l 1,3,-1
 799 720 l 1,0,-1
958 360 m 1,4,-1
 958 0 l 1,5,-1
 848 0 l 1,6,-1
 848 102 l 1,7,-1
 617 102 l 1,8,-1
 617 360 l 1,9,-1
 728 360 l 1,10,-1
 728 194 l 1,11,-1
 848 194 l 1,12,-1
 848 360 l 1,13,-1
 958 360 l 1,4,-1
296 720 m 2,14,15
 334 720 334 720 361 699.5 c 128,-1,16
 388 679 388 679 388 641 c 2,17,-1
 388 601 l 2,18,19
 388 581 388 581 375.5 563 c 128,-1,20
 363 545 363 545 343 540 c 1,21,22
 363 535 363 535 375.5 516.5 c 128,-1,23
 388 498 388 498 388 478 c 2,24,-1
 388 439 l 2,25,26
 388 405 388 405 366.5 382.5 c 128,-1,27
 345 360 345 360 296 360 c 2,28,-1
 50 360 l 1,29,-1
 50 449 l 1,30,-1
 260 449 l 2,31,32
 271 449 271 449 278.5 453.5 c 128,-1,33
 286 458 286 458 286 471 c 2,34,-1
 286 476 l 2,35,36
 286 489 286 489 278.5 494 c 128,-1,37
 271 499 271 499 260 499 c 2,38,-1
 96 499 l 1,39,-1
 96 581 l 1,40,-1
 260 581 l 2,41,42
 271 581 271 581 278.5 586 c 128,-1,43
 286 591 286 591 286 603 c 2,44,-1
 286 610 l 2,45,46
 286 622 286 622 278.5 627.5 c 128,-1,47
 271 633 271 633 260 633 c 2,48,-1
 51 633 l 1,49,-1
 51 720 l 1,50,-1
 296 720 l 2,14,15
EndSplineSet
Validated: 1
Ligature2: "Ligature Substitution lookup 12 subtable" threesuperior slash four
Ligature2: "Ligature Substitution lookup 12 subtable" threesuperior fraction four
Ligature2: "Ligature Substitution lookup 12 subtable" three slash four
Ligature2: "Ligature Substitution lookup 12 subtable" three fraction four
Substitution2: "'ss03' Style Set 3 lookup 9 subtable" threequarters.alt
Substitution2: "'salt' Stylistic Alternatives lookup 6 subtable" threequarters.alt
Substitution2: "'aalt' Access All Alternates lookup 0 subtable" threequarters.alt
EndChar

StartChar: questiondown
Encoding: 191 191 130
Width: 958
GlyphClass: 2
Flags: W
LayerCount: 2
Fore
SplineSet
285 0 m 2,0,1
 247 0 247 0 213 14.5 c 128,-1,2
 179 29 179 29 154 54 c 128,-1,3
 129 79 129 79 114.5 113 c 128,-1,4
 100 147 100 147 100 185 c 2,5,-1
 100 261 l 2,6,7
 100 301 100 301 114.5 332.5 c 128,-1,8
 129 364 129 364 154 386 c 128,-1,9
 179 408 179 408 213 419.5 c 128,-1,10
 247 431 247 431 285 431 c 2,11,-1
 505 431 l 2,12,13
 527 431 527 431 542 446.5 c 128,-1,14
 557 462 557 462 558 484 c 2,15,-1
 558 501 l 1,16,-1
 704 501 l 1,17,-1
 704 472 l 2,18,19
 704 431 704 431 693 397 c 128,-1,20
 682 363 682 363 659.5 339 c 128,-1,21
 637 315 637 315 602.5 301.5 c 128,-1,22
 568 288 568 288 519 288 c 2,23,-1
 333 288 l 2,24,25
 311 288 311 288 295.5 272.5 c 128,-1,26
 280 257 280 257 280 235 c 2,27,-1
 280 197 l 2,28,29
 280 175 280 175 295.5 159.5 c 128,-1,30
 311 144 311 144 333 144 c 2,31,-1
 938 144 l 1,32,-1
 938 0 l 1,33,-1
 285 0 l 2,0,1
723 577 m 1,34,-1
 541 577 l 1,35,-1
 541 720 l 1,36,-1
 723 720 l 1,37,-1
 723 577 l 1,34,-1
EndSplineSet
Validated: 1
EndChar

StartChar: AE
Encoding: 198 198 137
Width: 1801
GlyphClass: 2
Flags: W
LayerCount: 2
Fore
SplineSet
1746 720 m 1,0,-1
 1746 577 l 1,1,-1
 1087 577 l 1,2,-1
 1087 432 l 1,3,-1
 1595 432 l 1,4,-1
 1595 289 l 1,5,-1
 1087 289 l 1,6,-1
 1087 143 l 1,7,-1
 1746 143 l 1,8,-1
 1746 0 l 1,9,-1
 906 0 l 1,10,-1
 906 578 l 1,11,-1
 533 253 l 1,12,-1
 712 253 l 1,13,-1
 856 109 l 1,14,-1
 367 109 l 1,15,-1
 241 0 l 1,16,-1
 0 0 l 1,17,-1
 829 720 l 1,18,-1
 1746 720 l 1,0,-1
EndSplineSet
Validated: 1
Substitution2: "'ss01' Style Set 1 lookup 7 subtable" AE.ss01
Substitution2: "'salt' Stylistic Alternatives lookup 6 subtable" AE.ss01
Substitution2: "'aalt' Access All Alternates lookup 0 subtable" AE.ss01
EndChar

StartChar: Ccedilla
Encoding: 199 199 138
Width: 1015
GlyphClass: 2
Flags: W
LayerCount: 2
Fore
SplineSet
955 720 m 1,0,-1
 955 577 l 1,1,-1
 298 577 l 2,2,3
 271 577 271 577 252.5 558 c 128,-1,4
 234 539 234 539 234 513 c 2,5,-1
 234 208 l 2,6,7
 234 182 234 182 252.5 163 c 128,-1,8
 271 144 271 144 298 143 c 2,9,-1
 955 143 l 1,10,-1
 955 0 l 1,11,-1
 590 0 l 1,12,-1
 566 -45 l 1,13,14
 584 -45 584 -45 604.5 -48 c 128,-1,15
 625 -51 625 -51 642.5 -60.5 c 128,-1,16
 660 -70 660 -70 671 -86.5 c 128,-1,17
 682 -103 682 -103 682 -130 c 256,18,19
 682 -157 682 -157 668.5 -175 c 128,-1,20
 655 -193 655 -193 634 -204 c 128,-1,21
 613 -215 613 -215 586.5 -219.5 c 128,-1,22
 560 -224 560 -224 533 -224 c 0,23,24
 486 -224 486 -224 458 -220 c 128,-1,25
 430 -216 430 -216 412 -213 c 1,26,-1
 412 -131 l 1,27,28
 431 -139 431 -139 455.5 -145.5 c 128,-1,29
 480 -152 480 -152 506 -152 c 256,30,31
 532 -152 532 -152 550 -146.5 c 128,-1,32
 568 -141 568 -141 568 -128 c 0,33,34
 568 -121 568 -121 562 -116 c 128,-1,35
 556 -111 556 -111 548 -109 c 128,-1,36
 540 -107 540 -107 530.5 -106 c 128,-1,37
 521 -105 521 -105 514 -105 c 0,38,39
 503 -105 503 -105 491.5 -106 c 128,-1,40
 480 -107 480 -107 470 -110 c 1,41,-1
 519 0 l 1,42,-1
 273 0 l 2,43,44
 229 0 229 0 189.5 17 c 128,-1,45
 150 34 150 34 119.5 63.5 c 128,-1,46
 89 93 89 93 71 133 c 128,-1,47
 53 173 53 173 53 219 c 2,48,-1
 53 499 l 2,49,50
 53 545 53 545 70.5 585 c 128,-1,51
 88 625 88 625 118 655 c 128,-1,52
 148 685 148 685 188 702.5 c 128,-1,53
 228 720 228 720 273 720 c 2,54,-1
 955 720 l 1,0,-1
EndSplineSet
Validated: 1
EndChar

StartChar: Eth
Encoding: 208 208 147
Width: 1142
GlyphClass: 2
Flags: W
LayerCount: 2
Fore
SplineSet
866 720 m 2,0,1
 912 720 912 720 952 702.5 c 128,-1,2
 992 685 992 685 1022 655 c 128,-1,3
 1052 625 1052 625 1069.5 585 c 128,-1,4
 1087 545 1087 545 1087 499 c 2,5,-1
 1087 219 l 2,6,7
 1087 175 1087 175 1069.5 135.5 c 128,-1,8
 1052 96 1052 96 1022 66 c 128,-1,9
 992 36 992 36 952 18 c 128,-1,10
 912 0 912 0 866 0 c 2,11,-1
 477 0 l 1,12,-1
 333 143 l 1,13,-1
 841 143 l 2,14,15
 869 143 869 143 887.5 162.5 c 128,-1,16
 906 182 906 182 906 208 c 2,17,-1
 906 512 l 2,18,19
 906 538 906 538 887.5 557.5 c 128,-1,20
 869 577 869 577 841 577 c 2,21,-1
 309 577 l 1,22,-1
 309 432 l 1,23,-1
 618 432 l 1,24,-1
 618 289 l 1,25,-1
 309 289 l 1,26,-1
 309 0 l 1,27,-1
 128 0 l 1,28,-1
 128 289 l 1,29,-1
 0 289 l 1,30,-1
 0 432 l 1,31,-1
 128 432 l 1,32,-1
 128 720 l 1,33,-1
 866 720 l 2,0,1
EndSplineSet
Validated: 1
Substitution2: "'ss01' Style Set 1 lookup 7 subtable" Eth.ss01
Substitution2: "'salt' Stylistic Alternatives lookup 6 subtable" Eth.ss01
Substitution2: "'aalt' Access All Alternates lookup 0 subtable" Eth.ss01
EndChar

StartChar: multiply
Encoding: 215 215 154
Width: 695
GlyphClass: 2
Flags: W
LayerCount: 2
Fore
SplineSet
161 648 m 1,0,-1
 347 461 l 1,1,-1
 534 648 l 1,2,-1
 635 546 l 1,3,-1
 449 360 l 1,4,-1
 635 174 l 1,5,-1
 534 72 l 1,6,-1
 347 258 l 1,7,-1
 161 72 l 1,8,-1
 60 174 l 1,9,-1
 246 360 l 1,10,-1
 60 546 l 1,11,-1
 161 648 l 1,0,-1
EndSplineSet
Validated: 1
EndChar

StartChar: Oslash
Encoding: 216 216 155
Width: 1061
GlyphClass: 2
Flags: W
LayerCount: 2
Fore
SplineSet
685 720 m 1,0,-1
 736 805 l 1,1,-1
 849 805 l 1,2,-1
 798 720 l 1,3,4
 841 718 841 718 879.5 699.5 c 128,-1,5
 918 681 918 681 946.5 651 c 128,-1,6
 975 621 975 621 991.5 582 c 128,-1,7
 1008 543 1008 543 1008 499 c 2,8,-1
 1008 220 l 2,9,10
 1008 174 1008 174 990.5 134 c 128,-1,11
 973 94 973 94 943 64 c 128,-1,12
 913 34 913 34 873 17 c 128,-1,13
 833 0 833 0 788 0 c 2,14,-1
 367 0 l 1,15,-1
 324 -72 l 1,16,-1
 212 -72 l 1,17,-1
 255 0 l 1,18,19
 213 3 213 3 176 21.5 c 128,-1,20
 139 40 139 40 111.5 69.5 c 128,-1,21
 84 99 84 99 68.5 137.5 c 128,-1,22
 53 176 53 176 53 220 c 2,23,-1
 53 499 l 2,24,25
 53 544 53 544 70.5 584.5 c 128,-1,26
 88 625 88 625 118 655 c 128,-1,27
 148 685 148 685 188 702.5 c 128,-1,28
 228 720 228 720 273 720 c 2,29,-1
 685 720 l 1,0,-1
828 513 m 2,30,31
 828 539 828 539 809 558 c 128,-1,32
 790 577 790 577 763 577 c 2,33,-1
 712 577 l 1,34,-1
 452 143 l 1,35,-1
 763 143 l 2,36,37
 790 144 790 144 809 163 c 128,-1,38
 828 182 828 182 828 208 c 2,39,-1
 828 513 l 2,30,31
234 208 m 2,40,41
 234 182 234 182 252.5 163 c 128,-1,42
 271 144 271 144 298 143 c 2,43,-1
 340 143 l 1,44,-1
 600 577 l 1,45,-1
 298 577 l 2,46,47
 271 577 271 577 252.5 558 c 128,-1,48
 234 539 234 539 234 513 c 2,49,-1
 234 208 l 2,40,41
EndSplineSet
Validated: 1
EndChar

StartChar: Thorn
Encoding: 222 222 161
Width: 1079
GlyphClass: 2
Flags: W
LayerCount: 2
Fore
SplineSet
841 613 m 2,0,1
 878 613 878 613 911.5 598.5 c 128,-1,2
 945 584 945 584 970.5 559 c 128,-1,3
 996 534 996 534 1011 500 c 128,-1,4
 1026 466 1026 466 1026 428 c 2,5,-1
 1026 293 l 2,6,7
 1026 252 1026 252 1011 218.5 c 128,-1,8
 996 185 996 185 970.5 160.5 c 128,-1,9
 945 136 945 136 911.5 122.5 c 128,-1,10
 878 109 878 109 841 109 c 2,11,-1
 436 109 l 1,12,-1
 292 252 l 1,13,-1
 793 252 l 2,14,15
 815 252 815 252 830 267 c 128,-1,16
 845 282 845 282 846 304 c 2,17,-1
 846 418 l 2,18,19
 845 440 845 440 830 455 c 128,-1,20
 815 470 815 470 793 470 c 2,21,-1
 251 470 l 1,22,-1
 251 0 l 1,23,-1
 70 0 l 1,24,-1
 70 720 l 1,25,-1
 251 720 l 1,26,-1
 251 613 l 1,27,-1
 841 613 l 2,0,1
EndSplineSet
Validated: 1
Substitution2: "'ss01' Style Set 1 lookup 7 subtable" Thorn.ss01
Substitution2: "'salt' Stylistic Alternatives lookup 6 subtable" Thorn.ss01
Substitution2: "'aalt' Access All Alternates lookup 0 subtable" Thorn.ss01
EndChar

StartChar: germandbls
Encoding: 223 223 162
Width: 987
GlyphClass: 2
Flags: W
LayerCount: 2
Fore
SplineSet
681 363 m 1,0,-1
 773 363 l 2,1,2
 854 363 854 363 895.5 324 c 128,-1,3
 937 285 937 285 937 216 c 2,4,-1
 937 147 l 2,5,6
 937 117 937 117 927.5 90.5 c 128,-1,7
 918 64 918 64 898 44 c 128,-1,8
 878 24 878 24 847 12 c 128,-1,9
 816 0 816 0 773 0 c 2,10,-1
 399 0 l 1,11,-1
 265 133 l 1,12,-1
 732 133 l 2,13,14
 749 133 749 133 758 144 c 128,-1,15
 767 155 767 155 767 170 c 2,16,-1
 767 205 l 2,17,18
 767 220 767 220 757 230.5 c 128,-1,19
 747 241 747 241 733 241 c 2,20,-1
 350 241 l 1,21,-1
 614 479 l 1,22,-1
 267 479 l 2,23,24
 253 479 253 479 243 468 c 128,-1,25
 233 457 233 457 233 442 c 2,26,-1
 233 0 l 1,27,-1
 63 0 l 1,28,-1
 63 459 l 2,29,30
 63 492 63 492 76 520 c 128,-1,31
 89 548 89 548 111 568.5 c 128,-1,32
 133 589 133 589 163 600.5 c 128,-1,33
 193 612 193 612 226 612 c 2,34,-1
 689 612 l 2,35,36
 726 612 726 612 753.5 601 c 128,-1,37
 781 590 781 590 800 573.5 c 128,-1,38
 819 557 819 557 829.5 538.5 c 128,-1,39
 840 520 840 520 843 505 c 1,40,-1
 681 363 l 1,0,-1
EndSplineSet
Validated: 1
EndChar

StartChar: ae
Encoding: 230 230 169
Width: 1547
GlyphClass: 2
Flags: W
LayerCount: 2
Fore
SplineSet
1497 612 m 1,0,-1
 1497 479 l 1,1,-1
 950 479 l 1,2,-1
 950 373 l 1,3,-1
 1371 373 l 1,4,-1
 1371 240 l 1,5,-1
 950 240 l 1,6,-1
 950 133 l 1,7,-1
 1497 133 l 1,8,-1
 1497 0 l 1,9,-1
 780 0 l 1,10,-1
 780 487 l 1,11,-1
 474 221 l 1,12,-1
 605 221 l 1,13,-1
 738 88 l 1,14,-1
 322 88 l 1,15,-1
 220 0 l 1,16,-1
 0 0 l 1,17,-1
 705 612 l 1,18,-1
 1497 612 l 1,0,-1
EndSplineSet
Validated: 1
Substitution2: "'ss01' Style Set 1 lookup 7 subtable" ae.ss01
Substitution2: "'salt' Stylistic Alternatives lookup 6 subtable" ae.ss01
Substitution2: "'aalt' Access All Alternates lookup 0 subtable" ae.ss01
EndChar

StartChar: ccedilla
Encoding: 231 231 170
Width: 871
GlyphClass: 2
Flags: W
LayerCount: 2
Fore
SplineSet
817 612 m 1,0,-1
 817 479 l 1,1,-1
 261 479 l 2,2,3
 243 479 243 479 230.5 465.5 c 128,-1,4
 218 452 218 452 218 433 c 2,5,-1
 218 180 l 2,6,7
 218 160 218 160 230.5 147 c 128,-1,8
 243 134 243 134 261 133 c 2,9,-1
 817 133 l 1,10,-1
 817 0 l 1,11,-1
 509 0 l 1,12,-1
 484 -47 l 1,13,14
 502 -47 502 -47 522.5 -50 c 128,-1,15
 543 -53 543 -53 560.5 -62.5 c 128,-1,16
 578 -72 578 -72 589 -88.5 c 128,-1,17
 600 -105 600 -105 600 -132 c 256,18,19
 600 -159 600 -159 586.5 -177 c 128,-1,20
 573 -195 573 -195 552 -206 c 128,-1,21
 531 -217 531 -217 504.5 -221.5 c 128,-1,22
 478 -226 478 -226 451 -226 c 0,23,24
 404 -226 404 -226 376 -222 c 128,-1,25
 348 -218 348 -218 330 -215 c 1,26,-1
 330 -133 l 1,27,28
 349 -141 349 -141 373.5 -147.5 c 128,-1,29
 398 -154 398 -154 424 -154 c 256,30,31
 450 -154 450 -154 468 -148.5 c 128,-1,32
 486 -143 486 -143 486 -130 c 0,33,34
 486 -123 486 -123 480 -118 c 128,-1,35
 474 -113 474 -113 466 -111 c 128,-1,36
 458 -109 458 -109 448.5 -108 c 128,-1,37
 439 -107 439 -107 432 -107 c 0,38,39
 421 -107 421 -107 409.5 -108 c 128,-1,40
 398 -109 398 -109 388 -112 c 1,41,-1
 438 0 l 1,42,-1
 241 0 l 2,43,44
 203 0 203 0 168 15 c 128,-1,45
 133 30 133 30 106.5 55.5 c 128,-1,46
 80 81 80 81 64 115.5 c 128,-1,47
 48 150 48 150 48 189 c 2,48,-1
 48 421 l 2,49,50
 48 460 48 460 63 495 c 128,-1,51
 78 530 78 530 104.5 556 c 128,-1,52
 131 582 131 582 166 597 c 128,-1,53
 201 612 201 612 241 612 c 2,54,-1
 817 612 l 1,0,-1
EndSplineSet
Validated: 1
EndChar

StartChar: eth
Encoding: 240 240 179
Width: 971
GlyphClass: 2
Flags: W
LayerCount: 2
Fore
SplineSet
711 133 m 2,0,1
 730 133 730 133 742.5 147 c 128,-1,2
 755 161 755 161 755 180 c 2,3,-1
 755 432 l 2,4,5
 755 451 755 451 742.5 465 c 128,-1,6
 730 479 730 479 711 479 c 2,7,-1
 279 479 l 1,8,-1
 279 370 l 1,9,-1
 525 370 l 1,10,-1
 525 239 l 1,11,-1
 279 239 l 1,12,-1
 279 0 l 1,13,-1
 109 0 l 1,14,-1
 109 239 l 1,15,-1
 0 239 l 1,16,-1
 0 370 l 1,17,-1
 109 370 l 1,18,-1
 109 612 l 1,19,-1
 732 612 l 2,20,21
 772 612 772 612 807 597 c 128,-1,22
 842 582 842 582 868.5 556 c 128,-1,23
 895 530 895 530 910 495 c 128,-1,24
 925 460 925 460 925 421 c 2,25,-1
 925 189 l 2,26,27
 925 151 925 151 910 117 c 128,-1,28
 895 83 895 83 868.5 57 c 128,-1,29
 842 31 842 31 807 15.5 c 128,-1,30
 772 0 772 0 732 0 c 2,31,-1
 446 0 l 1,32,-1
 311 133 l 1,33,-1
 711 133 l 2,0,1
EndSplineSet
Validated: 1
Substitution2: "'ss01' Style Set 1 lookup 7 subtable" eth.ss01
Substitution2: "'salt' Stylistic Alternatives lookup 6 subtable" eth.ss01
Substitution2: "'aalt' Access All Alternates lookup 0 subtable" eth.ss01
EndChar

StartChar: divide
Encoding: 247 247 186
Width: 695
GlyphClass: 2
Flags: W
LayerCount: 2
Fore
SplineSet
635 432 m 1,0,-1
 635 288 l 1,1,-1
 60 288 l 1,2,-1
 60 432 l 1,3,-1
 635 432 l 1,0,-1
258 219 m 1,4,-1
 438 219 l 1,5,-1
 438 77 l 1,6,-1
 258 77 l 1,7,-1
 258 219 l 1,4,-1
258 642 m 1,8,-1
 438 642 l 1,9,-1
 438 500 l 1,10,-1
 258 500 l 1,11,-1
 258 642 l 1,8,-1
EndSplineSet
Validated: 1
EndChar

StartChar: oslash
Encoding: 248 248 187
Width: 909
GlyphClass: 2
Flags: W
LayerCount: 2
Fore
SplineSet
584 612 m 1,0,-1
 627 684 l 1,1,-1
 733 684 l 1,2,-1
 689 611 l 1,3,4
 725 607 725 607 756 590.5 c 128,-1,5
 787 574 787 574 810.5 548.5 c 128,-1,6
 834 523 834 523 847.5 490.5 c 128,-1,7
 861 458 861 458 861 421 c 2,8,-1
 861 190 l 2,9,10
 861 150 861 150 845.5 115.5 c 128,-1,11
 830 81 830 81 804 55.5 c 128,-1,12
 778 30 778 30 742.5 15 c 128,-1,13
 707 0 707 0 668 0 c 2,14,-1
 322 0 l 1,15,-1
 286 -61 l 1,16,-1
 181 -61 l 1,17,-1
 218 1 l 1,18,19
 182 5 182 5 151 21 c 128,-1,20
 120 37 120 37 97 62.5 c 128,-1,21
 74 88 74 88 61 120.5 c 128,-1,22
 48 153 48 153 48 190 c 2,23,-1
 48 421 l 2,24,25
 48 460 48 460 63 495 c 128,-1,26
 78 530 78 530 104.5 556 c 128,-1,27
 131 582 131 582 166 597 c 128,-1,28
 201 612 201 612 241 612 c 2,29,-1
 584 612 l 1,0,-1
691 433 m 2,30,31
 691 452 691 452 678 465.5 c 128,-1,32
 665 479 665 479 647 479 c 2,33,-1
 610 479 l 1,34,-1
 402 133 l 1,35,-1
 647 133 l 2,36,37
 665 133 665 133 678 146.5 c 128,-1,38
 691 160 691 160 691 180 c 2,39,-1
 691 433 l 2,30,31
218 180 m 2,40,41
 218 160 218 160 230.5 146.5 c 128,-1,42
 243 133 243 133 261 133 c 2,43,-1
 297 133 l 1,44,-1
 504 479 l 1,45,-1
 261 479 l 2,46,47
 243 479 243 479 230.5 465.5 c 128,-1,48
 218 452 218 452 218 433 c 2,49,-1
 218 180 l 2,40,41
EndSplineSet
Validated: 1
EndChar

StartChar: thorn
Encoding: 254 254 193
Width: 925
GlyphClass: 2
Flags: W
LayerCount: 2
Fore
SplineSet
713 531 m 2,0,1
 746 531 746 531 775.5 518 c 128,-1,2
 805 505 805 505 827.5 483.5 c 128,-1,3
 850 462 850 462 863.5 432.5 c 128,-1,4
 877 403 877 403 877 370 c 2,5,-1
 877 246 l 2,6,7
 877 211 877 211 863.5 181.5 c 128,-1,8
 850 152 850 152 827.5 131 c 128,-1,9
 805 110 805 110 775.5 98 c 128,-1,10
 746 86 746 86 713 86 c 2,11,-1
 399 86 l 1,12,-1
 265 220 l 1,13,-1
 673 220 l 2,14,15
 690 220 690 220 698.5 230.5 c 128,-1,16
 707 241 707 241 707 256 c 2,17,-1
 707 362 l 2,18,19
 707 377 707 377 699 387.5 c 128,-1,20
 691 398 691 398 673 398 c 2,21,-1
 233 398 l 1,22,-1
 233 0 l 1,23,-1
 63 0 l 1,24,-1
 63 612 l 1,25,-1
 233 612 l 1,26,-1
 233 531 l 1,27,-1
 713 531 l 2,0,1
EndSplineSet
Validated: 1
Substitution2: "'ss01' Style Set 1 lookup 7 subtable" thorn.ss01
Substitution2: "'salt' Stylistic Alternatives lookup 6 subtable" thorn.ss01
Substitution2: "'aalt' Access All Alternates lookup 0 subtable" thorn.ss01
EndChar

StartChar: Aogonek
Encoding: 260 260 199
Width: 1101
GlyphClass: 2
Flags: W
LayerCount: 2
Fore
SplineSet
893 0 m 1,0,-1
 550 600 l 1,1,-1
 352 251 l 1,2,-1
 653 251 l 1,3,-1
 735 109 l 1,4,-1
 272 109 l 1,5,-1
 208 0 l 1,6,-1
 10 0 l 1,7,-1
 424 720 l 1,8,-1
 677 720 l 1,9,-1
 1091 0 l 1,10,11
 1071 -5 1071 -5 1053 -16.5 c 128,-1,12
 1035 -28 1035 -28 1022 -42 c 128,-1,13
 1009 -56 1009 -56 1001.5 -70.5 c 128,-1,14
 994 -85 994 -85 994 -96 c 0,15,16
 994 -128 994 -128 1045 -128 c 0,17,18
 1057 -128 1057 -128 1071 -125.5 c 128,-1,19
 1085 -123 1085 -123 1099 -119.5 c 128,-1,20
 1113 -116 1113 -116 1125.5 -111.5 c 128,-1,21
 1138 -107 1138 -107 1147 -104 c 1,22,-1
 1147 -190 l 1,23,24
 1130 -195 1130 -195 1092.5 -203.5 c 128,-1,25
 1055 -212 1055 -212 1004 -212 c 0,26,27
 979 -212 979 -212 956 -207.5 c 128,-1,28
 933 -203 933 -203 915.5 -192.5 c 128,-1,29
 898 -182 898 -182 887.5 -165 c 128,-1,30
 877 -148 877 -148 877 -123 c 0,31,32
 877 -96 877 -96 898 -62.5 c 128,-1,33
 919 -29 919 -29 976 0 c 1,34,-1
 893 0 l 1,0,-1
EndSplineSet
Validated: 1
Substitution2: "'ss01' Style Set 1 lookup 7 subtable" Aogonek.ss01
Substitution2: "'salt' Stylistic Alternatives lookup 6 subtable" Aogonek.ss01
Substitution2: "'aalt' Access All Alternates lookup 0 subtable" Aogonek.ss01
EndChar

StartChar: aogonek
Encoding: 261 261 200
Width: 946
GlyphClass: 2
Flags: W
LayerCount: 2
Fore
SplineSet
750 0 m 1,0,-1
 473 486 l 1,1,-1
 323 222 l 1,2,-1
 545 222 l 1,3,-1
 621 90 l 1,4,-1
 249 90 l 1,5,-1
 196 0 l 1,6,-1
 9 0 l 1,7,-1
 361 612 l 1,8,-1
 585 612 l 1,9,-1
 937 0 l 1,10,11
 886 -19 886 -19 865 -46 c 128,-1,12
 844 -73 844 -73 844 -96 c 0,13,14
 844 -128 844 -128 895 -128 c 0,15,16
 907 -128 907 -128 921 -125.5 c 128,-1,17
 935 -123 935 -123 949 -119.5 c 128,-1,18
 963 -116 963 -116 975.5 -111.5 c 128,-1,19
 988 -107 988 -107 997 -104 c 1,20,-1
 997 -190 l 1,21,22
 980 -195 980 -195 942.5 -203.5 c 128,-1,23
 905 -212 905 -212 854 -212 c 0,24,25
 829 -212 829 -212 806 -207.5 c 128,-1,26
 783 -203 783 -203 765.5 -192.5 c 128,-1,27
 748 -182 748 -182 737.5 -165 c 128,-1,28
 727 -148 727 -148 727 -123 c 0,29,30
 727 -110 727 -110 731.5 -94.5 c 128,-1,31
 736 -79 736 -79 748 -63.5 c 128,-1,32
 760 -48 760 -48 781 -31.5 c 128,-1,33
 802 -15 802 -15 835 0 c 1,34,-1
 750 0 l 1,0,-1
EndSplineSet
Validated: 1
Substitution2: "'ss01' Style Set 1 lookup 7 subtable" aogonek.ss01
Substitution2: "'salt' Stylistic Alternatives lookup 6 subtable" aogonek.ss01
Substitution2: "'aalt' Access All Alternates lookup 0 subtable" aogonek.ss01
EndChar

StartChar: Eogonek
Encoding: 280 280 219
Width: 965
GlyphClass: 2
Flags: W
LayerCount: 2
Fore
SplineSet
70 0 m 1,0,-1
 70 720 l 1,1,-1
 910 720 l 1,2,-1
 910 577 l 1,3,-1
 251 577 l 1,4,-1
 251 432 l 1,5,-1
 758 432 l 1,6,-1
 758 289 l 1,7,-1
 251 289 l 1,8,-1
 251 143 l 1,9,-1
 910 143 l 1,10,-1
 910 0 l 1,11,12
 865 -3 865 -3 835.5 -14.5 c 128,-1,13
 806 -26 806 -26 788.5 -40 c 128,-1,14
 771 -54 771 -54 764 -69.5 c 128,-1,15
 757 -85 757 -85 757 -96 c 0,16,17
 757 -128 757 -128 808 -128 c 0,18,19
 820 -128 820 -128 834 -125.5 c 128,-1,20
 848 -123 848 -123 862 -119.5 c 128,-1,21
 876 -116 876 -116 888.5 -111.5 c 128,-1,22
 901 -107 901 -107 910 -104 c 1,23,-1
 910 -190 l 1,24,25
 893 -195 893 -195 855.5 -203.5 c 128,-1,26
 818 -212 818 -212 767 -212 c 0,27,28
 742 -212 742 -212 719 -207.5 c 128,-1,29
 696 -203 696 -203 678.5 -192.5 c 128,-1,30
 661 -182 661 -182 650.5 -165 c 128,-1,31
 640 -148 640 -148 640 -123 c 0,32,33
 640 -110 640 -110 645.5 -92.5 c 128,-1,34
 651 -75 651 -75 664 -57.5 c 128,-1,35
 677 -40 677 -40 699 -24.5 c 128,-1,36
 721 -9 721 -9 754 0 c 1,37,-1
 70 0 l 1,0,-1
EndSplineSet
Validated: 1
EndChar

StartChar: eogonek
Encoding: 281 281 220
Width: 830
GlyphClass: 2
Flags: W
LayerCount: 2
Fore
SplineSet
63 0 m 1,0,-1
 63 612 l 1,1,-1
 780 612 l 1,2,-1
 780 479 l 1,3,-1
 233 479 l 1,4,-1
 233 373 l 1,5,-1
 654 373 l 1,6,-1
 654 240 l 1,7,-1
 233 240 l 1,8,-1
 233 133 l 1,9,-1
 780 133 l 1,10,-1
 780 0 l 1,11,12
 732 -11 732 -11 702 -23 c 128,-1,13
 672 -35 672 -35 655.5 -47.5 c 128,-1,14
 639 -60 639 -60 633 -72.5 c 128,-1,15
 627 -85 627 -85 627 -96 c 0,16,17
 627 -128 627 -128 678 -128 c 0,18,19
 690 -128 690 -128 704 -125.5 c 128,-1,20
 718 -123 718 -123 732 -119.5 c 128,-1,21
 746 -116 746 -116 758.5 -111.5 c 128,-1,22
 771 -107 771 -107 780 -104 c 1,23,-1
 780 -190 l 1,24,25
 763 -195 763 -195 725.5 -203.5 c 128,-1,26
 688 -212 688 -212 637 -212 c 0,27,28
 612 -212 612 -212 589 -207.5 c 128,-1,29
 566 -203 566 -203 548.5 -192.5 c 128,-1,30
 531 -182 531 -182 520.5 -165 c 128,-1,31
 510 -148 510 -148 510 -123 c 0,32,33
 510 -110 510 -110 515.5 -93.5 c 128,-1,34
 521 -77 521 -77 535 -60 c 128,-1,35
 549 -43 549 -43 572 -27.5 c 128,-1,36
 595 -12 595 -12 630 0 c 1,37,-1
 63 0 l 1,0,-1
EndSplineSet
Validated: 1
EndChar

StartChar: Hbar
Encoding: 294 294 233
Width: 1152
GlyphClass: 2
Flags: W
LayerCount: 2
Fore
SplineSet
100 635 m 1,0,-1
 100 720 l 1,1,-1
 281 720 l 1,2,-1
 281 635 l 1,3,-1
 871 635 l 1,4,-1
 871 720 l 1,5,-1
 1052 720 l 1,6,-1
 1052 635 l 1,7,-1
 1156 635 l 1,8,-1
 1156 492 l 1,9,-1
 1052 492 l 1,10,-1
 1052 0 l 1,11,-1
 871 0 l 1,12,-1
 871 269 l 1,13,-1
 475 269 l 1,14,-1
 331 412 l 1,15,-1
 871 412 l 1,16,-1
 871 492 l 1,17,-1
 281 492 l 1,18,-1
 281 0 l 1,19,-1
 100 0 l 1,20,-1
 100 492 l 1,21,-1
 -4 492 l 1,22,-1
 -4 635 l 1,23,-1
 100 635 l 1,0,-1
EndSplineSet
Validated: 1
Substitution2: "'ss01' Style Set 1 lookup 7 subtable" Hbar.ss01
Substitution2: "'salt' Stylistic Alternatives lookup 6 subtable" Hbar.ss01
Substitution2: "'aalt' Access All Alternates lookup 0 subtable" Hbar.ss01
EndChar

StartChar: hbar
Encoding: 295 295 234
Width: 993
GlyphClass: 2
Flags: W
LayerCount: 2
Fore
SplineSet
903 612 m 1,0,-1
 903 542 l 1,1,-1
 985 542 l 1,2,-1
 985 410 l 1,3,-1
 903 410 l 1,4,-1
 903 0 l 1,5,-1
 733 0 l 1,6,-1
 733 222 l 1,7,-1
 435 222 l 1,8,-1
 302 355 l 1,9,-1
 733 355 l 1,10,-1
 733 410 l 1,11,-1
 260 410 l 1,12,-1
 260 0 l 1,13,-1
 90 0 l 1,14,-1
 90 410 l 1,15,-1
 8 410 l 1,16,-1
 8 542 l 1,17,-1
 90 542 l 1,18,-1
 90 612 l 1,19,-1
 260 612 l 1,20,-1
 260 542 l 1,21,-1
 733 542 l 1,22,-1
 733 612 l 1,23,-1
 903 612 l 1,0,-1
EndSplineSet
Validated: 1
Substitution2: "'ss01' Style Set 1 lookup 7 subtable" hbar.ss01
Substitution2: "'salt' Stylistic Alternatives lookup 6 subtable" hbar.ss01
Substitution2: "'aalt' Access All Alternates lookup 0 subtable" hbar.ss01
EndChar

StartChar: Iogonek
Encoding: 302 302 241
Width: 321
GlyphClass: 2
Flags: W
LayerCount: 2
Fore
SplineSet
70 0 m 1,0,-1
 70 720 l 1,1,-1
 251 720 l 1,2,-1
 251 0 l 1,3,-1
 202 0 l 1,4,5
 173 -21 173 -21 156.5 -47 c 128,-1,6
 140 -73 140 -73 140 -96 c 0,7,8
 140 -128 140 -128 191 -128 c 0,9,10
 203 -128 203 -128 217 -125.5 c 128,-1,11
 231 -123 231 -123 245 -119.5 c 128,-1,12
 259 -116 259 -116 271.5 -111.5 c 128,-1,13
 284 -107 284 -107 293 -104 c 1,14,-1
 293 -190 l 1,15,16
 276 -195 276 -195 238.5 -203.5 c 128,-1,17
 201 -212 201 -212 150 -212 c 0,18,19
 125 -212 125 -212 102 -207.5 c 128,-1,20
 79 -203 79 -203 61.5 -192.5 c 128,-1,21
 44 -182 44 -182 33.5 -165 c 128,-1,22
 23 -148 23 -148 23 -123 c 0,23,24
 23 -110 23 -110 29.5 -93 c 128,-1,25
 36 -76 36 -76 47.5 -59 c 128,-1,26
 59 -42 59 -42 75.5 -26.5 c 128,-1,27
 92 -11 92 -11 113 0 c 1,28,-1
 70 0 l 1,0,-1
EndSplineSet
Validated: 1
EndChar

StartChar: iogonek
Encoding: 303 303 242
Width: 296
GlyphClass: 2
Flags: W
LayerCount: 2
Fore
SplineSet
63 0 m 1,0,-1
 63 612 l 1,1,-1
 233 612 l 1,2,-1
 233 0 l 1,3,-1
 192 0 l 1,4,5
 163 -21 163 -21 146.5 -47 c 128,-1,6
 130 -73 130 -73 130 -96 c 0,7,8
 130 -128 130 -128 181 -128 c 0,9,10
 193 -128 193 -128 207 -125.5 c 128,-1,11
 221 -123 221 -123 235 -119.5 c 128,-1,12
 249 -116 249 -116 261.5 -111.5 c 128,-1,13
 274 -107 274 -107 283 -104 c 1,14,-1
 283 -190 l 1,15,16
 266 -195 266 -195 228.5 -203.5 c 128,-1,17
 191 -212 191 -212 140 -212 c 0,18,19
 115 -212 115 -212 92 -207.5 c 128,-1,20
 69 -203 69 -203 51.5 -192.5 c 128,-1,21
 34 -182 34 -182 23.5 -165 c 128,-1,22
 13 -148 13 -148 13 -123 c 0,23,24
 13 -110 13 -110 19.5 -93 c 128,-1,25
 26 -76 26 -76 37.5 -59 c 128,-1,26
 49 -42 49 -42 65.5 -26.5 c 128,-1,27
 82 -11 82 -11 103 0 c 1,28,-1
 63 0 l 1,0,-1
EndSplineSet
Validated: 1
EndChar

StartChar: dotlessi
Encoding: 305 305 244
Width: 296
GlyphClass: 2
Flags: W
LayerCount: 2
Fore
SplineSet
233 612 m 1,0,-1
 233 0 l 1,1,-1
 63 0 l 1,2,-1
 63 612 l 1,3,-1
 233 612 l 1,0,-1
EndSplineSet
Validated: 1
EndChar

StartChar: kgreenlandic
Encoding: 312 312 251
Width: 881
GlyphClass: 2
Flags: W
LayerCount: 2
Fore
SplineSet
233 612 m 1,0,-1
 233 370 l 1,1,-1
 646 612 l 1,2,-1
 890 612 l 1,3,-1
 379 306 l 1,4,-1
 890 0 l 1,5,-1
 632 0 l 1,6,-1
 233 240 l 1,7,-1
 233 0 l 1,8,-1
 63 0 l 1,9,-1
 63 612 l 1,10,-1
 233 612 l 1,0,-1
EndSplineSet
Validated: 1
EndChar

StartChar: Lslash
Encoding: 321 321 260
Width: 998
GlyphClass: 2
Flags: W
LayerCount: 2
Fore
SplineSet
128 424 m 1,0,-1
 128 720 l 1,1,-1
 309 720 l 1,2,-1
 309 496 l 1,3,-1
 486 566 l 1,4,-1
 486 425 l 1,5,-1
 309 355 l 1,6,-1
 309 143 l 1,7,-1
 968 143 l 1,8,-1
 968 0 l 1,9,-1
 128 0 l 1,10,-1
 128 283 l 1,11,-1
 0 232 l 1,12,-1
 0 373 l 1,13,-1
 128 424 l 1,0,-1
EndSplineSet
Validated: 1
EndChar

StartChar: lslash
Encoding: 322 322 261
Width: 853
GlyphClass: 2
Flags: W
LayerCount: 2
Fore
SplineSet
279 612 m 1,0,-1
 279 425 l 1,1,-1
 423 481 l 1,2,-1
 423 350 l 1,3,-1
 279 294 l 1,4,-1
 279 133 l 1,5,-1
 826 133 l 1,6,-1
 826 0 l 1,7,-1
 109 0 l 1,8,-1
 109 228 l 1,9,-1
 0 186 l 1,10,-1
 0 317 l 1,11,-1
 109 359 l 1,12,-1
 109 612 l 1,13,-1
 279 612 l 1,0,-1
EndSplineSet
Validated: 1
EndChar

StartChar: Eng
Encoding: 330 330 269
Width: 1110
GlyphClass: 2
Flags: W
LayerCount: 2
Fore
SplineSet
316 720 m 1,0,-1
 860 210 l 1,1,-1
 860 720 l 1,2,-1
 1040 720 l 1,3,-1
 1040 -10 l 2,4,5
 1040 -56 1040 -56 1022.5 -96 c 128,-1,6
 1005 -136 1005 -136 975 -166 c 128,-1,7
 945 -196 945 -196 905 -213 c 128,-1,8
 865 -230 865 -230 820 -230 c 2,9,-1
 397 -230 l 1,10,-1
 397 -87 l 1,11,-1
 795 -87 l 2,12,13
 823 -87 823 -87 841.5 -67.5 c 128,-1,14
 860 -48 860 -48 860 -22 c 2,15,-1
 860 -1 l 1,16,-1
 251 578 l 1,17,-1
 251 0 l 1,18,-1
 70 0 l 1,19,-1
 70 720 l 1,20,-1
 316 720 l 1,0,-1
EndSplineSet
Validated: 1
EndChar

StartChar: eng
Encoding: 331 331 270
Width: 951
GlyphClass: 2
Flags: W
LayerCount: 2
Fore
SplineSet
276 612 m 1,0,-1
 719 177 l 1,1,-1
 719 612 l 1,2,-1
 888 612 l 1,3,-1
 888 -9 l 2,4,5
 888 -48 888 -48 873.5 -82 c 128,-1,6
 859 -116 859 -116 833.5 -141.5 c 128,-1,7
 808 -167 808 -167 774 -181.5 c 128,-1,8
 740 -196 740 -196 701 -196 c 2,9,-1
 341 -196 l 1,10,-1
 341 -63 l 1,11,-1
 664 -63 l 2,12,13
 686 -62 686 -62 701.5 -48 c 128,-1,14
 717 -34 717 -34 719 -14 c 1,15,-1
 233 463 l 1,16,-1
 233 0 l 1,17,-1
 63 0 l 1,18,-1
 63 612 l 1,19,-1
 276 612 l 1,0,-1
EndSplineSet
Validated: 1
EndChar

StartChar: OE
Encoding: 338 338 277
Width: 1721
GlyphClass: 2
Flags: W
LayerCount: 2
Fore
SplineSet
1666 720 m 1,0,-1
 1666 577 l 1,1,-1
 1007 577 l 1,2,-1
 1007 432 l 1,3,-1
 1515 432 l 1,4,-1
 1515 289 l 1,5,-1
 1007 289 l 1,6,-1
 1007 143 l 1,7,-1
 1666 143 l 1,8,-1
 1666 0 l 1,9,-1
 273 0 l 2,10,11
 228 0 228 0 188 17 c 128,-1,12
 148 34 148 34 118 64 c 128,-1,13
 88 94 88 94 70.5 134 c 128,-1,14
 53 174 53 174 53 220 c 2,15,-1
 53 499 l 2,16,17
 53 544 53 544 70.5 584.5 c 128,-1,18
 88 625 88 625 118 655 c 128,-1,19
 148 685 148 685 188 702.5 c 128,-1,20
 228 720 228 720 273 720 c 2,21,-1
 1666 720 l 1,0,-1
827 513 m 2,22,23
 827 539 827 539 808 558 c 128,-1,24
 789 577 789 577 762 577 c 2,25,-1
 298 577 l 2,26,27
 271 577 271 577 252.5 558 c 128,-1,28
 234 539 234 539 234 513 c 2,29,-1
 234 208 l 2,30,31
 234 182 234 182 252.5 163 c 128,-1,32
 271 144 271 144 298 143 c 2,33,-1
 762 143 l 2,34,35
 789 144 789 144 808 163 c 128,-1,36
 827 182 827 182 827 208 c 2,37,-1
 827 513 l 2,22,23
EndSplineSet
Validated: 1
EndChar

StartChar: oe
Encoding: 339 339 278
Width: 1473
GlyphClass: 2
Flags: W
LayerCount: 2
Fore
SplineSet
241 0 m 2,0,1
 201 0 201 0 166 15 c 128,-1,2
 131 30 131 30 104.5 55.5 c 128,-1,3
 78 81 78 81 63 115.5 c 128,-1,4
 48 150 48 150 48 190 c 2,5,-1
 48 421 l 2,6,7
 48 460 48 460 63 495 c 128,-1,8
 78 530 78 530 104 556 c 128,-1,9
 130 582 130 582 165 597 c 128,-1,10
 200 612 200 612 240 612 c 2,11,-1
 1423 612 l 1,12,-1
 1423 479 l 1,13,-1
 876 479 l 1,14,-1
 876 373 l 1,15,-1
 1297 373 l 1,16,-1
 1297 240 l 1,17,-1
 876 240 l 1,18,-1
 876 133 l 1,19,-1
 1423 133 l 1,20,-1
 1423 0 l 1,21,-1
 241 0 l 2,0,1
662 133 m 2,22,23
 680 133 680 133 693 146.5 c 128,-1,24
 706 160 706 160 706 180 c 2,25,-1
 706 433 l 2,26,27
 706 452 706 452 693 465.5 c 128,-1,28
 680 479 680 479 662 479 c 2,29,-1
 261 479 l 2,30,31
 243 479 243 479 230.5 465.5 c 128,-1,32
 218 452 218 452 218 433 c 2,33,-1
 218 180 l 2,34,35
 218 160 218 160 230.5 146.5 c 128,-1,36
 243 133 243 133 261 133 c 2,37,-1
 662 133 l 2,22,23
EndSplineSet
Validated: 1
EndChar

StartChar: Scedilla
Encoding: 350 350 289
Width: 1078
GlyphClass: 2
Flags: W
LayerCount: 2
Fore
SplineSet
982 720 m 1,0,-1
 982 577 l 1,1,-1
 293 577 l 2,2,3
 271 577 271 577 256 561.5 c 128,-1,4
 241 546 241 546 240 524 c 2,5,-1
 240 485 l 2,6,7
 240 463 240 463 255.5 447.5 c 128,-1,8
 271 432 271 432 293 432 c 2,9,-1
 833 432 l 2,10,11
 930 432 930 432 974 381 c 128,-1,12
 1018 330 1018 330 1018 248 c 2,13,-1
 1018 185 l 2,14,15
 1018 151 1018 151 1007 118 c 128,-1,16
 996 85 996 85 973.5 58.5 c 128,-1,17
 951 32 951 32 916.5 16 c 128,-1,18
 882 0 882 0 833 0 c 2,19,-1
 573 0 l 1,20,-1
 548 -47 l 1,21,22
 566 -47 566 -47 586.5 -50 c 128,-1,23
 607 -53 607 -53 624.5 -62.5 c 128,-1,24
 642 -72 642 -72 653 -88.5 c 128,-1,25
 664 -105 664 -105 664 -132 c 256,26,27
 664 -159 664 -159 650.5 -177 c 128,-1,28
 637 -195 637 -195 616 -206 c 128,-1,29
 595 -217 595 -217 568.5 -221.5 c 128,-1,30
 542 -226 542 -226 515 -226 c 0,31,32
 468 -226 468 -226 440 -222 c 128,-1,33
 412 -218 412 -218 394 -215 c 1,34,-1
 394 -133 l 1,35,36
 413 -141 413 -141 437.5 -147.5 c 128,-1,37
 462 -154 462 -154 488 -154 c 256,38,39
 514 -154 514 -154 532 -148.5 c 128,-1,40
 550 -143 550 -143 550 -130 c 0,41,42
 550 -123 550 -123 544 -118 c 128,-1,43
 538 -113 538 -113 530 -111 c 128,-1,44
 522 -109 522 -109 512.5 -108 c 128,-1,45
 503 -107 503 -107 496 -107 c 0,46,47
 485 -107 485 -107 473.5 -108 c 128,-1,48
 462 -109 462 -109 452 -112 c 1,49,-1
 502 0 l 1,50,-1
 77 0 l 1,51,-1
 77 143 l 1,52,-1
 785 143 l 2,53,54
 807 143 807 143 822.5 158.5 c 128,-1,55
 838 174 838 174 838 196 c 2,56,-1
 838 236 l 2,57,58
 838 258 838 258 822.5 273.5 c 128,-1,59
 807 289 807 289 785 289 c 2,60,-1
 245 289 l 2,61,62
 207 289 207 289 173 300.5 c 128,-1,63
 139 312 139 312 114 333 c 128,-1,64
 89 354 89 354 74.5 383 c 128,-1,65
 60 412 60 412 60 448 c 2,66,-1
 60 544 l 2,67,68
 60 582 60 582 74.5 614.5 c 128,-1,69
 89 647 89 647 114 670.5 c 128,-1,70
 139 694 139 694 173 707 c 128,-1,71
 207 720 207 720 245 720 c 2,72,-1
 982 720 l 1,0,-1
EndSplineSet
Validated: 1
EndChar

StartChar: scedilla
Encoding: 351 351 290
Width: 923
GlyphClass: 2
Flags: W
LayerCount: 2
Fore
SplineSet
839 612 m 1,0,-1
 839 479 l 1,1,-1
 257 479 l 2,2,3
 243 479 243 479 233 468 c 128,-1,4
 223 457 223 457 223 442 c 2,5,-1
 223 410 l 2,6,7
 223 394 223 394 233 383.5 c 128,-1,8
 243 373 243 373 257 373 c 2,9,-1
 705 373 l 2,10,11
 748 373 748 373 779 361 c 128,-1,12
 810 349 810 349 830 328 c 128,-1,13
 850 307 850 307 859.5 277.5 c 128,-1,14
 869 248 869 248 869 213 c 2,15,-1
 869 161 l 2,16,17
 869 131 869 131 859.5 102.5 c 128,-1,18
 850 74 850 74 830 51 c 128,-1,19
 810 28 810 28 779 14 c 128,-1,20
 748 0 748 0 705 0 c 2,21,-1
 505 0 l 1,22,-1
 480 -47 l 1,23,24
 498 -47 498 -47 518.5 -50 c 128,-1,25
 539 -53 539 -53 556.5 -62.5 c 128,-1,26
 574 -72 574 -72 585 -88.5 c 128,-1,27
 596 -105 596 -105 596 -132 c 256,28,29
 596 -159 596 -159 582.5 -177 c 128,-1,30
 569 -195 569 -195 548 -206 c 128,-1,31
 527 -217 527 -217 500.5 -221.5 c 128,-1,32
 474 -226 474 -226 447 -226 c 0,33,34
 400 -226 400 -226 372 -222 c 128,-1,35
 344 -218 344 -218 326 -215 c 1,36,-1
 326 -133 l 1,37,38
 345 -141 345 -141 369.5 -147.5 c 128,-1,39
 394 -154 394 -154 420 -154 c 256,40,41
 446 -154 446 -154 464 -148.5 c 128,-1,42
 482 -143 482 -143 482 -130 c 0,43,44
 482 -123 482 -123 476 -118 c 128,-1,45
 470 -113 470 -113 462 -111 c 128,-1,46
 454 -109 454 -109 444.5 -108 c 128,-1,47
 435 -107 435 -107 428 -107 c 0,48,49
 417 -107 417 -107 405.5 -108 c 128,-1,50
 394 -109 394 -109 384 -112 c 1,51,-1
 434 0 l 1,52,-1
 68 0 l 1,53,-1
 68 133 l 1,54,-1
 666 133 l 2,55,56
 680 133 680 133 690 144 c 128,-1,57
 700 155 700 155 700 170 c 2,58,-1
 700 203 l 2,59,60
 700 218 700 218 690 229 c 128,-1,61
 680 240 680 240 666 240 c 2,62,-1
 217 240 l 2,63,64
 184 240 184 240 154 250 c 128,-1,65
 124 260 124 260 102 278.5 c 128,-1,66
 80 297 80 297 67 322.5 c 128,-1,67
 54 348 54 348 54 379 c 2,68,-1
 54 459 l 2,69,70
 54 492 54 492 67 520 c 128,-1,71
 80 548 80 548 102 568.5 c 128,-1,72
 124 589 124 589 154 600.5 c 128,-1,73
 184 612 184 612 217 612 c 2,74,-1
 839 612 l 1,0,-1
EndSplineSet
Validated: 1
EndChar

StartChar: Tbar
Encoding: 358 358 297
Width: 993
GlyphClass: 2
Flags: W
LayerCount: 2
Fore
SplineSet
973 720 m 1,0,-1
 973 577 l 1,1,-1
 590 577 l 1,2,-1
 590 432 l 1,3,-1
 790 432 l 1,4,-1
 790 289 l 1,5,-1
 590 289 l 1,6,-1
 590 0 l 1,7,-1
 409 0 l 1,8,-1
 409 289 l 1,9,-1
 209 289 l 1,10,-1
 209 432 l 1,11,-1
 409 432 l 1,12,-1
 409 577 l 1,13,-1
 20 577 l 1,14,-1
 20 720 l 1,15,-1
 973 720 l 1,0,-1
EndSplineSet
Validated: 1
EndChar

StartChar: tbar
Encoding: 359 359 298
Width: 847
GlyphClass: 2
Flags: W
LayerCount: 2
Fore
SplineSet
829 612 m 1,0,-1
 829 479 l 1,1,-1
 511 479 l 1,2,-1
 511 367 l 1,3,-1
 671 367 l 1,4,-1
 671 236 l 1,5,-1
 511 236 l 1,6,-1
 511 0 l 1,7,-1
 340 0 l 1,8,-1
 340 236 l 1,9,-1
 178 236 l 1,10,-1
 178 367 l 1,11,-1
 340 367 l 1,12,-1
 340 479 l 1,13,-1
 18 479 l 1,14,-1
 18 612 l 1,15,-1
 829 612 l 1,0,-1
EndSplineSet
Validated: 1
EndChar

StartChar: Uogonek
Encoding: 370 370 309
Width: 1087
GlyphClass: 2
Flags: W
LayerCount: 2
Fore
SplineSet
285 0 m 2,0,1
 240 0 240 0 200 17 c 128,-1,2
 160 34 160 34 130 64 c 128,-1,3
 100 94 100 94 82.5 134 c 128,-1,4
 65 174 65 174 65 220 c 2,5,-1
 65 720 l 1,6,-1
 246 720 l 1,7,-1
 246 208 l 2,8,9
 246 182 246 182 264.5 162.5 c 128,-1,10
 283 143 283 143 310 143 c 2,11,-1
 776 143 l 2,12,13
 803 143 803 143 822 162.5 c 128,-1,14
 841 182 841 182 841 208 c 2,15,-1
 841 720 l 1,16,-1
 1022 720 l 1,17,-1
 1022 220 l 2,18,19
 1022 174 1022 174 1004.5 134 c 128,-1,20
 987 94 987 94 957 64 c 128,-1,21
 927 34 927 34 886.5 17 c 128,-1,22
 846 0 846 0 801 0 c 2,23,-1
 596 0 l 1,24,25
 567 -21 567 -21 550.5 -47 c 128,-1,26
 534 -73 534 -73 534 -96 c 0,27,28
 534 -128 534 -128 585 -128 c 0,29,30
 597 -128 597 -128 611 -125.5 c 128,-1,31
 625 -123 625 -123 639 -119.5 c 128,-1,32
 653 -116 653 -116 665.5 -111.5 c 128,-1,33
 678 -107 678 -107 687 -104 c 1,34,-1
 687 -190 l 1,35,36
 670 -195 670 -195 632.5 -203.5 c 128,-1,37
 595 -212 595 -212 544 -212 c 0,38,39
 519 -212 519 -212 496 -207.5 c 128,-1,40
 473 -203 473 -203 455.5 -192.5 c 128,-1,41
 438 -182 438 -182 427.5 -165 c 128,-1,42
 417 -148 417 -148 417 -123 c 0,43,44
 417 -110 417 -110 423.5 -93 c 128,-1,45
 430 -76 430 -76 441.5 -59 c 128,-1,46
 453 -42 453 -42 469.5 -26.5 c 128,-1,47
 486 -11 486 -11 507 0 c 1,48,-1
 285 0 l 2,0,1
EndSplineSet
Validated: 1
EndChar

StartChar: uogonek
Encoding: 371 371 310
Width: 932
GlyphClass: 2
Flags: W
LayerCount: 2
Fore
SplineSet
252 0 m 2,0,1
 212 0 212 0 177 15 c 128,-1,2
 142 30 142 30 115.5 55.5 c 128,-1,3
 89 81 89 81 74 115.5 c 128,-1,4
 59 150 59 150 59 190 c 2,5,-1
 59 612 l 1,6,-1
 229 612 l 1,7,-1
 229 180 l 2,8,9
 229 161 229 161 241.5 147 c 128,-1,10
 254 133 254 133 272 133 c 2,11,-1
 659 133 l 2,12,13
 677 133 677 133 690 147 c 128,-1,14
 703 161 703 161 703 180 c 2,15,-1
 703 612 l 1,16,-1
 873 612 l 1,17,-1
 873 190 l 2,18,19
 873 150 873 150 857.5 115.5 c 128,-1,20
 842 81 842 81 816 55.5 c 128,-1,21
 790 30 790 30 754.5 15 c 128,-1,22
 719 0 719 0 680 0 c 2,23,-1
 520 0 l 1,24,25
 491 -21 491 -21 474.5 -47 c 128,-1,26
 458 -73 458 -73 458 -96 c 0,27,28
 458 -128 458 -128 509 -128 c 0,29,30
 521 -128 521 -128 535 -125.5 c 128,-1,31
 549 -123 549 -123 563 -119.5 c 128,-1,32
 577 -116 577 -116 589.5 -111.5 c 128,-1,33
 602 -107 602 -107 611 -104 c 1,34,-1
 611 -190 l 1,35,36
 594 -195 594 -195 556.5 -203.5 c 128,-1,37
 519 -212 519 -212 468 -212 c 0,38,39
 443 -212 443 -212 420 -207.5 c 128,-1,40
 397 -203 397 -203 379.5 -192.5 c 128,-1,41
 362 -182 362 -182 351.5 -165 c 128,-1,42
 341 -148 341 -148 341 -123 c 0,43,44
 341 -110 341 -110 347.5 -93 c 128,-1,45
 354 -76 354 -76 365.5 -59 c 128,-1,46
 377 -42 377 -42 393.5 -26.5 c 128,-1,47
 410 -11 410 -11 431 0 c 1,48,-1
 252 0 l 2,0,1
EndSplineSet
Validated: 1
EndChar

StartChar: florin
Encoding: 402 402 322
Width: 728
GlyphClass: 2
Flags: W
LayerCount: 2
Fore
SplineSet
668 720 m 1,0,-1
 668 577 l 1,1,-1
 486 577 l 2,2,3
 469 577 469 577 456.5 564.5 c 128,-1,4
 444 552 444 552 444 534 c 2,5,-1
 444 432 l 1,6,-1
 642 432 l 1,7,-1
 642 289 l 1,8,-1
 444 289 l 1,9,-1
 444 -34 l 2,10,11
 444 -68 444 -68 431 -98.5 c 128,-1,12
 418 -129 418 -129 395.5 -151.5 c 128,-1,13
 373 -174 373 -174 342.5 -187 c 128,-1,14
 312 -200 312 -200 278 -200 c 2,15,-1
 40 -200 l 1,16,-1
 40 -57 l 1,17,-1
 221 -57 l 2,18,19
 238 -57 238 -57 250.5 -44.5 c 128,-1,20
 263 -32 263 -32 263 -15 c 2,21,-1
 263 289 l 1,22,-1
 94 289 l 1,23,-1
 94 432 l 1,24,-1
 263 432 l 1,25,-1
 263 554 l 2,26,27
 263 588 263 588 276 618.5 c 128,-1,28
 289 649 289 649 311.5 671.5 c 128,-1,29
 334 694 334 694 364 707 c 128,-1,30
 394 720 394 720 429 720 c 2,31,-1
 668 720 l 1,0,-1
EndSplineSet
Validated: 1
EndChar

StartChar: dotlessj
Encoding: 567 567 327
Width: 817
GlyphClass: 2
Flags: W
LayerCount: 2
Fore
SplineSet
758 612 m 1,0,-1
 758 190 l 2,1,2
 758 150 758 150 743 115.5 c 128,-1,3
 728 81 728 81 701.5 55.5 c 128,-1,4
 675 30 675 30 640 15 c 128,-1,5
 605 0 605 0 566 0 c 2,6,-1
 36 0 l 1,7,-1
 36 133 l 1,8,-1
 545 133 l 2,9,10
 564 133 564 133 576.5 146.5 c 128,-1,11
 589 160 589 160 589 180 c 2,12,-1
 589 612 l 1,13,-1
 758 612 l 1,0,-1
EndSplineSet
Validated: 1
Substitution2: "'ss02' Style Set 2 lookup 8 subtable" dotlessj.ss02
EndChar

StartChar: circumflex
Encoding: 710 710 328
Width: 789
GlyphClass: 2
Flags: W
LayerCount: 2
Fore
SplineSet
60 635 m 1,0,-1
 313 883 l 1,1,-1
 476 883 l 1,2,-1
 729 635 l 1,3,-1
 549 635 l 1,4,-1
 395 797 l 1,5,-1
 240 635 l 1,6,-1
 60 635 l 1,0,-1
EndSplineSet
Validated: 1
EndChar

StartChar: caron
Encoding: 711 711 329
Width: 789
GlyphClass: 2
Flags: W
LayerCount: 2
Fore
SplineSet
729 883 m 1,0,-1
 476 635 l 1,1,-1
 313 635 l 1,2,-1
 60 883 l 1,3,-1
 240 883 l 1,4,-1
 395 721 l 1,5,-1
 549 883 l 1,6,-1
 729 883 l 1,0,-1
EndSplineSet
Validated: 1
EndChar

StartChar: breve
Encoding: 728 728 330
Width: 666
GlyphClass: 2
Flags: W
LayerCount: 2
Fore
SplineSet
606 842 m 1,0,1
 592 786 592 786 559 743 c 0,2,3
 545 725 545 725 524.5 707 c 128,-1,4
 504 689 504 689 476.5 675.5 c 128,-1,5
 449 662 449 662 413.5 653.5 c 128,-1,6
 378 645 378 645 333 645 c 0,7,8
 287 645 287 645 250.5 653.5 c 128,-1,9
 214 662 214 662 186 675.5 c 128,-1,10
 158 689 158 689 138 707 c 128,-1,11
 118 725 118 725 104 743 c 0,12,13
 71 786 71 786 60 842 c 1,14,-1
 187 842 l 1,15,16
 191 815 191 815 209 795 c 0,17,18
 224 778 224 778 253 763.5 c 128,-1,19
 282 749 282 749 333 749 c 0,20,21
 383 749 383 749 412.5 763.5 c 128,-1,22
 442 778 442 778 457 795 c 0,23,24
 475 815 475 815 481 842 c 1,25,-1
 606 842 l 1,0,1
EndSplineSet
Validated: 1
EndChar

StartChar: dotaccent
Encoding: 729 729 331
Width: 264
GlyphClass: 2
Flags: W
LayerCount: 2
Fore
SplineSet
204 789 m 1,0,-1
 204 645 l 1,1,-1
 60 645 l 1,2,-1
 60 789 l 1,3,-1
 204 789 l 1,0,-1
EndSplineSet
Validated: 1
EndChar

StartChar: ring
Encoding: 730 730 332
Width: 477
GlyphClass: 2
Flags: W
LayerCount: 2
Fore
SplineSet
60 771 m 0,0,1
 60 800 60 800 71.5 826.5 c 128,-1,2
 83 853 83 853 105.5 873 c 128,-1,3
 128 893 128 893 161 904.5 c 128,-1,4
 194 916 194 916 238 916 c 256,5,6
 282 916 282 916 315.5 904.5 c 128,-1,7
 349 893 349 893 371.5 873 c 128,-1,8
 394 853 394 853 405.5 826.5 c 128,-1,9
 417 800 417 800 417 771 c 0,10,11
 417 741 417 741 405.5 714.5 c 128,-1,12
 394 688 394 688 371.5 668 c 128,-1,13
 349 648 349 648 315.5 636.5 c 128,-1,14
 282 625 282 625 238 625 c 256,15,16
 194 625 194 625 161 636.5 c 128,-1,17
 128 648 128 648 105.5 668 c 128,-1,18
 83 688 83 688 71.5 714.5 c 128,-1,19
 60 741 60 741 60 771 c 0,0,1
310 771 m 0,20,21
 310 801 310 801 292 821.5 c 128,-1,22
 274 842 274 842 238 842 c 0,23,24
 204 842 204 842 185 821.5 c 128,-1,25
 166 801 166 801 166 771 c 0,26,27
 166 740 166 740 185 720 c 128,-1,28
 204 700 204 700 238 700 c 0,29,30
 274 700 274 700 292 720 c 128,-1,31
 310 740 310 740 310 771 c 0,20,21
EndSplineSet
Validated: 1
EndChar

StartChar: ogonek
Encoding: 731 731 333
Width: 390
GlyphClass: 2
Flags: W
LayerCount: 2
Fore
SplineSet
239 0 m 1,0,1
 210 -21 210 -21 193.5 -47 c 128,-1,2
 177 -73 177 -73 177 -96 c 0,3,4
 177 -128 177 -128 228 -128 c 0,5,6
 240 -128 240 -128 254 -125.5 c 128,-1,7
 268 -123 268 -123 282 -119.5 c 128,-1,8
 296 -116 296 -116 308.5 -111.5 c 128,-1,9
 321 -107 321 -107 330 -104 c 1,10,-1
 330 -190 l 1,11,12
 313 -195 313 -195 275.5 -203.5 c 128,-1,13
 238 -212 238 -212 187 -212 c 0,14,15
 162 -212 162 -212 139 -207.5 c 128,-1,16
 116 -203 116 -203 98.5 -192.5 c 128,-1,17
 81 -182 81 -182 70.5 -165 c 128,-1,18
 60 -148 60 -148 60 -123 c 0,19,20
 60 -110 60 -110 66.5 -93 c 128,-1,21
 73 -76 73 -76 84.5 -59 c 128,-1,22
 96 -42 96 -42 112.5 -26.5 c 128,-1,23
 129 -11 129 -11 150 0 c 1,24,-1
 239 0 l 1,0,1
EndSplineSet
Validated: 1
EndChar

StartChar: tilde
Encoding: 732 732 334
Width: 694
GlyphClass: 2
Flags: W
LayerCount: 2
Fore
SplineSet
634 798 m 1,0,1
 634 717 634 717 594 681 c 128,-1,2
 554 645 554 645 482 645 c 0,3,4
 449 645 449 645 411.5 653 c 128,-1,5
 374 661 374 661 338.5 670.5 c 128,-1,6
 303 680 303 680 272 688 c 128,-1,7
 241 696 241 696 222 696 c 0,8,9
 204 696 204 696 193 689.5 c 128,-1,10
 182 683 182 683 176.5 674.5 c 128,-1,11
 171 666 171 666 169 657.5 c 128,-1,12
 167 649 167 649 167 645 c 1,13,-1
 60 645 l 1,14,15
 60 717 60 717 100.5 757.5 c 128,-1,16
 141 798 141 798 213 798 c 0,17,18
 241 798 241 798 277.5 790 c 128,-1,19
 314 782 314 782 350 772.5 c 128,-1,20
 386 763 386 763 418.5 755 c 128,-1,21
 451 747 451 747 472 747 c 0,22,23
 490 747 490 747 501 753.5 c 128,-1,24
 512 760 512 760 517.5 768 c 128,-1,25
 523 776 523 776 525 784.5 c 128,-1,26
 527 793 527 793 527 798 c 1,27,-1
 634 798 l 1,0,1
EndSplineSet
Validated: 1
EndChar

StartChar: hungarumlaut
Encoding: 733 733 335
Width: 695
GlyphClass: 2
Flags: W
LayerCount: 2
Fore
SplineSet
392 893 m 1,0,-1
 173 645 l 1,1,-1
 60 645 l 1,2,-1
 212 893 l 1,3,-1
 392 893 l 1,0,-1
635 893 m 1,4,-1
 416 645 l 1,5,-1
 303 645 l 1,6,-1
 455 893 l 1,7,-1
 635 893 l 1,4,-1
EndSplineSet
Validated: 1
EndChar

StartChar: uni0312
Encoding: 786 786 336
Width: 301
GlyphClass: 2
Flags: W
LayerCount: 2
Fore
SplineSet
78 645 m 1,0,-1
 78 770 l 1,1,-1
 129 867 l 1,2,-1
 211 867 l 1,3,-1
 160 770 l 1,4,-1
 223 770 l 1,5,-1
 223 645 l 1,6,-1
 78 645 l 1,0,-1
EndSplineSet
Validated: 1
EndChar

StartChar: uni0315
Encoding: 789 789 337
Width: 145
GlyphClass: 2
Flags: W
LayerCount: 2
Fore
SplineSet
145 720 m 1,0,-1
 145 595 l 1,1,-1
 94 498 l 1,2,-1
 12 498 l 1,3,-1
 63 595 l 1,4,-1
 0 595 l 1,5,-1
 0 720 l 1,6,-1
 145 720 l 1,0,-1
EndSplineSet
Validated: 1
EndChar

StartChar: uni0326
Encoding: 806 806 338
Width: 301
GlyphClass: 2
Flags: W
LayerCount: 2
Fore
SplineSet
223 -60 m 1,0,-1
 223 -185 l 1,1,-1
 172 -282 l 1,2,-1
 90 -282 l 1,3,-1
 141 -185 l 1,4,-1
 78 -185 l 1,5,-1
 78 -60 l 1,6,-1
 223 -60 l 1,0,-1
EndSplineSet
Validated: 1
EndChar

StartChar: endash
Encoding: 8211 8211 347
Width: 750
GlyphClass: 2
Flags: W
LayerCount: 2
Fore
SplineSet
700 383 m 1,0,-1
 700 237 l 1,1,-1
 50 237 l 1,2,-1
 50 383 l 1,3,-1
 700 383 l 1,0,-1
EndSplineSet
Validated: 1
EndChar

StartChar: emdash
Encoding: 8212 8212 348
Width: 1000
GlyphClass: 2
Flags: W
LayerCount: 2
Fore
SplineSet
1000 383 m 1,0,-1
 1000 237 l 1,1,-1
 0 237 l 1,2,-1
 0 383 l 1,3,-1
 1000 383 l 1,0,-1
EndSplineSet
Validated: 1
EndChar

StartChar: quoteleft
Encoding: 8216 8216 349
Width: 272
GlyphClass: 2
Flags: W
LayerCount: 2
Fore
SplineSet
50 535 m 1,0,-1
 50 688 l 1,1,-1
 131 800 l 1,2,-1
 224 800 l 1,3,-1
 141 688 l 1,4,-1
 222 688 l 1,5,-1
 222 535 l 1,6,-1
 50 535 l 1,0,-1
EndSplineSet
Validated: 1
EndChar

StartChar: quoteright
Encoding: 8217 8217 350
Width: 272
GlyphClass: 2
Flags: W
LayerCount: 2
Fore
SplineSet
222 801 m 1,0,-1
 222 648 l 1,1,-1
 141 536 l 1,2,-1
 48 536 l 1,3,-1
 131 648 l 1,4,-1
 50 648 l 1,5,-1
 50 801 l 1,6,-1
 222 801 l 1,0,-1
EndSplineSet
Validated: 1
EndChar

StartChar: quotesinglbase
Encoding: 8218 8218 351
Width: 272
GlyphClass: 2
Flags: W
LayerCount: 2
Fore
SplineSet
222 153 m 1,0,-1
 222 0 l 1,1,-1
 141 -112 l 1,2,-1
 48 -112 l 1,3,-1
 131 0 l 1,4,-1
 50 0 l 1,5,-1
 50 153 l 1,6,-1
 222 153 l 1,0,-1
EndSplineSet
Validated: 1
EndChar

StartChar: quotedblleft
Encoding: 8220 8220 352
Width: 492
GlyphClass: 2
Flags: W
LayerCount: 2
Fore
SplineSet
50 535 m 1,0,-1
 50 688 l 1,1,-1
 131 800 l 1,2,-1
 224 800 l 1,3,-1
 141 688 l 1,4,-1
 222 688 l 1,5,-1
 222 535 l 1,6,-1
 50 535 l 1,0,-1
270 535 m 1,7,-1
 270 688 l 1,8,-1
 351 800 l 1,9,-1
 444 800 l 1,10,-1
 361 688 l 1,11,-1
 442 688 l 1,12,-1
 442 535 l 1,13,-1
 270 535 l 1,7,-1
EndSplineSet
Validated: 1
EndChar

StartChar: quotedblright
Encoding: 8221 8221 353
Width: 492
GlyphClass: 2
Flags: W
LayerCount: 2
Fore
SplineSet
442 800 m 1,0,-1
 442 647 l 1,1,-1
 361 535 l 1,2,-1
 268 535 l 1,3,-1
 351 647 l 1,4,-1
 270 647 l 1,5,-1
 270 800 l 1,6,-1
 442 800 l 1,0,-1
222 800 m 1,7,-1
 222 647 l 1,8,-1
 141 535 l 1,9,-1
 48 535 l 1,10,-1
 131 647 l 1,11,-1
 50 647 l 1,12,-1
 50 800 l 1,13,-1
 222 800 l 1,7,-1
EndSplineSet
Validated: 1
EndChar

StartChar: quotedblbase
Encoding: 8222 8222 354
Width: 492
GlyphClass: 2
Flags: W
LayerCount: 2
Fore
SplineSet
442 153 m 1,0,-1
 442 0 l 1,1,-1
 361 -112 l 1,2,-1
 268 -112 l 1,3,-1
 351 0 l 1,4,-1
 270 0 l 1,5,-1
 270 153 l 1,6,-1
 442 153 l 1,0,-1
222 153 m 1,7,-1
 222 0 l 1,8,-1
 141 -112 l 1,9,-1
 48 -112 l 1,10,-1
 131 0 l 1,11,-1
 50 0 l 1,12,-1
 50 153 l 1,13,-1
 222 153 l 1,7,-1
EndSplineSet
Validated: 1
EndChar

StartChar: dagger
Encoding: 8224 8224 355
Width: 548
GlyphClass: 2
Flags: W
LayerCount: 2
Fore
SplineSet
193 544 m 1,0,-1
 193 720 l 1,1,-1
 355 720 l 1,2,-1
 355 544 l 1,3,-1
 508 544 l 1,4,-1
 508 395 l 1,5,-1
 355 395 l 1,6,-1
 355 -160 l 1,7,-1
 193 -160 l 1,8,-1
 193 395 l 1,9,-1
 40 395 l 1,10,-1
 40 544 l 1,11,-1
 193 544 l 1,0,-1
EndSplineSet
Validated: 1
EndChar

StartChar: daggerdbl
Encoding: 8225 8225 356
Width: 548
GlyphClass: 2
Flags: W
LayerCount: 2
Fore
SplineSet
193 544 m 1,0,-1
 193 720 l 1,1,-1
 355 720 l 1,2,-1
 355 544 l 1,3,-1
 508 544 l 1,4,-1
 508 395 l 1,5,-1
 355 395 l 1,6,-1
 355 205 l 1,7,-1
 508 205 l 1,8,-1
 508 56 l 1,9,-1
 355 56 l 1,10,-1
 355 -160 l 1,11,-1
 193 -160 l 1,12,-1
 193 56 l 1,13,-1
 40 56 l 1,14,-1
 40 205 l 1,15,-1
 193 205 l 1,16,-1
 193 395 l 1,17,-1
 40 395 l 1,18,-1
 40 544 l 1,19,-1
 193 544 l 1,0,-1
EndSplineSet
Validated: 1
EndChar

StartChar: bullet
Encoding: 8226 8226 357
Width: 403
GlyphClass: 2
Flags: W
LayerCount: 2
Fore
SplineSet
60 474 m 1,0,-1
 343 474 l 1,1,-1
 343 247 l 1,2,-1
 60 247 l 1,3,-1
 60 474 l 1,0,-1
EndSplineSet
Validated: 1
EndChar

StartChar: ellipsis
Encoding: 8230 8230 358
Width: 898
GlyphClass: 2
Flags: W
LayerCount: 2
Fore
SplineSet
60 163 m 1,0,-1
 242 163 l 1,1,-1
 242 0 l 1,2,-1
 60 0 l 1,3,-1
 60 163 l 1,0,-1
358 163 m 1,4,-1
 540 163 l 1,5,-1
 540 0 l 1,6,-1
 358 0 l 1,7,-1
 358 163 l 1,4,-1
656 163 m 1,8,-1
 838 163 l 1,9,-1
 838 0 l 1,10,-1
 656 0 l 1,11,-1
 656 163 l 1,8,-1
EndSplineSet
Validated: 1
EndChar

StartChar: perthousand
Encoding: 8240 8240 359
Width: 1464
GlyphClass: 3
Flags: W
LayerCount: 2
Fore
SplineSet
809 720 m 1,0,-1
 331 0 l 1,1,-1
 205 0 l 1,2,-1
 684 720 l 1,3,-1
 809 720 l 1,0,-1
332 595 m 2,4,5
 332 609 332 609 323 618.5 c 128,-1,6
 314 628 314 628 300 628 c 2,7,-1
 193 628 l 2,8,9
 179 628 179 628 169.5 618.5 c 128,-1,10
 160 609 160 609 160 595 c 2,11,-1
 160 484 l 2,12,13
 160 471 160 471 169.5 461.5 c 128,-1,14
 179 452 179 452 193 452 c 2,15,-1
 300 452 l 2,16,17
 314 452 314 452 323 461.5 c 128,-1,18
 332 471 332 471 332 484 c 2,19,-1
 332 595 l 2,4,5
332 720 m 2,20,21
 355 720 355 720 375 711 c 128,-1,22
 395 702 395 702 410 687 c 128,-1,23
 425 672 425 672 433.5 652 c 128,-1,24
 442 632 442 632 442 610 c 2,25,-1
 442 470 l 2,26,27
 442 447 442 447 433.5 427 c 128,-1,28
 425 407 425 407 410 392 c 128,-1,29
 395 377 395 377 375 368.5 c 128,-1,30
 355 360 355 360 332 360 c 2,31,-1
 160 360 l 2,32,33
 137 360 137 360 117 368.5 c 128,-1,34
 97 377 97 377 82 392 c 128,-1,35
 67 407 67 407 58.5 427 c 128,-1,36
 50 447 50 447 50 470 c 2,37,-1
 50 610 l 2,38,39
 50 632 50 632 58.5 652 c 128,-1,40
 67 672 67 672 82 687 c 128,-1,41
 97 702 97 702 117 711 c 128,-1,42
 137 720 137 720 160 720 c 2,43,-1
 332 720 l 2,20,21
854 235 m 2,44,45
 854 249 854 249 845 258.5 c 128,-1,46
 836 268 836 268 822 268 c 2,47,-1
 715 268 l 2,48,49
 701 268 701 268 691.5 258.5 c 128,-1,50
 682 249 682 249 682 235 c 2,51,-1
 682 124 l 2,52,53
 682 111 682 111 691.5 101.5 c 128,-1,54
 701 92 701 92 715 92 c 2,55,-1
 822 92 l 2,56,57
 836 92 836 92 845 101.5 c 128,-1,58
 854 111 854 111 854 124 c 2,59,-1
 854 235 l 2,44,45
854 360 m 2,60,61
 877 360 877 360 897 351 c 128,-1,62
 917 342 917 342 932 327 c 128,-1,63
 947 312 947 312 955.5 292 c 128,-1,64
 964 272 964 272 964 250 c 2,65,-1
 964 110 l 2,66,67
 964 87 964 87 955.5 67 c 128,-1,68
 947 47 947 47 932 32 c 128,-1,69
 917 17 917 17 897 8.5 c 128,-1,70
 877 0 877 0 854 0 c 2,71,-1
 682 0 l 2,72,73
 659 0 659 0 639 8.5 c 128,-1,74
 619 17 619 17 604 32 c 128,-1,75
 589 47 589 47 580.5 67 c 128,-1,76
 572 87 572 87 572 110 c 2,77,-1
 572 250 l 2,78,79
 572 272 572 272 580.5 292 c 128,-1,80
 589 312 589 312 604 327 c 128,-1,81
 619 342 619 342 639 351 c 128,-1,82
 659 360 659 360 682 360 c 2,83,-1
 854 360 l 2,60,61
1304 235 m 2,84,85
 1304 249 1304 249 1295 258.5 c 128,-1,86
 1286 268 1286 268 1272 268 c 2,87,-1
 1165 268 l 2,88,89
 1151 268 1151 268 1141.5 258.5 c 128,-1,90
 1132 249 1132 249 1132 235 c 2,91,-1
 1132 124 l 2,92,93
 1132 111 1132 111 1141.5 101.5 c 128,-1,94
 1151 92 1151 92 1165 92 c 2,95,-1
 1272 92 l 2,96,97
 1286 92 1286 92 1295 101.5 c 128,-1,98
 1304 111 1304 111 1304 124 c 2,99,-1
 1304 235 l 2,84,85
1304 360 m 2,100,101
 1327 360 1327 360 1347 351 c 128,-1,102
 1367 342 1367 342 1382 327 c 128,-1,103
 1397 312 1397 312 1405.5 292 c 128,-1,104
 1414 272 1414 272 1414 250 c 2,105,-1
 1414 110 l 2,106,107
 1414 87 1414 87 1405.5 67 c 128,-1,108
 1397 47 1397 47 1382 32 c 128,-1,109
 1367 17 1367 17 1347 8.5 c 128,-1,110
 1327 0 1327 0 1304 0 c 2,111,-1
 1132 0 l 2,112,113
 1109 0 1109 0 1089 8.5 c 128,-1,114
 1069 17 1069 17 1054 32 c 128,-1,115
 1039 47 1039 47 1030.5 67 c 128,-1,116
 1022 87 1022 87 1022 110 c 2,117,-1
 1022 250 l 2,118,119
 1022 272 1022 272 1030.5 292 c 128,-1,120
 1039 312 1039 312 1054 327 c 128,-1,121
 1069 342 1069 342 1089 351 c 128,-1,122
 1109 360 1109 360 1132 360 c 2,123,-1
 1304 360 l 2,100,101
EndSplineSet
Validated: 1
Ligature2: "Ligature Substitution lookup 11 subtable" zero slash zero zero
Ligature2: "Ligature Substitution lookup 11 subtable" zero fraction zero zero
EndChar

StartChar: guilsinglleft
Encoding: 8249 8249 360
Width: 410
GlyphClass: 2
Flags: W
LayerCount: 2
Fore
SplineSet
360 534 m 1,0,-1
 360 385 l 1,1,-1
 179 287 l 1,2,-1
 360 190 l 1,3,-1
 360 41 l 1,4,-1
 50 218 l 1,5,-1
 50 357 l 1,6,-1
 360 534 l 1,0,-1
EndSplineSet
Validated: 1
EndChar

StartChar: guilsinglright
Encoding: 8250 8250 361
Width: 410
GlyphClass: 2
Flags: W
LayerCount: 2
Fore
SplineSet
360 357 m 1,0,-1
 360 218 l 1,1,-1
 50 41 l 1,2,-1
 50 190 l 1,3,-1
 231 287 l 1,4,-1
 50 385 l 1,5,-1
 50 534 l 1,6,-1
 360 357 l 1,0,-1
EndSplineSet
Validated: 1
EndChar

StartChar: fraction
Encoding: 8260 8260 362
Width: 202
GlyphClass: 2
Flags: W
LayerCount: 2
Fore
SplineSet
403 720 m 1,0,-1
 -75 0 l 1,1,-1
 -201 0 l 1,2,-1
 278 720 l 1,3,-1
 403 720 l 1,0,-1
EndSplineSet
Validated: 1
EndChar

StartChar: Euro
Encoding: 8364 8364 363
Width: 1089
GlyphClass: 2
Flags: W
LayerCount: 2
Fore
SplineSet
202 503 m 1,0,-1
 202 521 l 2,1,2
 202 562 202 562 217.5 598.5 c 128,-1,3
 233 635 233 635 260 662 c 128,-1,4
 287 689 287 689 323 704.5 c 128,-1,5
 359 720 359 720 400 720 c 2,6,-1
 1029 720 l 1,7,-1
 1029 577 l 1,8,-1
 441 577 l 2,9,10
 416 577 416 577 399.5 560 c 128,-1,11
 383 543 383 543 383 518 c 2,12,-1
 383 503 l 1,13,-1
 786 503 l 1,14,-1
 746 392 l 1,15,-1
 383 392 l 1,16,-1
 383 338 l 1,17,-1
 724 338 l 1,18,-1
 684 227 l 1,19,-1
 383 227 l 1,20,-1
 383 201 l 2,21,22
 383 178 383 178 399.5 161 c 128,-1,23
 416 144 416 144 441 143 c 2,24,-1
 1029 143 l 1,25,-1
 1029 0 l 1,26,-1
 400 0 l 2,27,28
 361 0 361 0 325 15 c 128,-1,29
 289 30 289 30 261.5 56.5 c 128,-1,30
 234 83 234 83 218 119 c 128,-1,31
 202 155 202 155 202 197 c 2,32,-1
 202 227 l 1,33,-1
 60 227 l 1,34,-1
 100 338 l 1,35,-1
 202 338 l 1,36,-1
 202 392 l 1,37,-1
 60 392 l 1,38,-1
 100 503 l 1,39,-1
 202 503 l 1,0,-1
EndSplineSet
Validated: 1
EndChar

StartChar: trademark
Encoding: 8482 8482 364
Width: 908
GlyphClass: 2
Flags: W
LayerCount: 2
Fore
SplineSet
868 720 m 1,0,-1
 868 457 l 1,1,-1
 789 457 l 1,2,-1
 789 640 l 1,3,-1
 674 457 l 1,4,-1
 624 457 l 1,5,-1
 509 640 l 1,6,-1
 509 457 l 1,7,-1
 430 457 l 1,8,-1
 430 720 l 1,9,-1
 539 720 l 1,10,-1
 649 539 l 1,11,-1
 764 720 l 1,12,-1
 868 720 l 1,0,-1
371 720 m 1,13,-1
 371 654 l 1,14,-1
 232 654 l 1,15,-1
 232 457 l 1,16,-1
 152 457 l 1,17,-1
 152 654 l 1,18,-1
 10 654 l 1,19,-1
 10 720 l 1,20,-1
 371 720 l 1,13,-1
EndSplineSet
Validated: 1
EndChar

StartChar: minus
Encoding: 8722 8722 365
Width: 695
GlyphClass: 2
Flags: W
LayerCount: 2
Fore
SplineSet
635 432 m 1,0,-1
 635 288 l 1,1,-1
 60 288 l 1,2,-1
 60 432 l 1,3,-1
 635 432 l 1,0,-1
EndSplineSet
Validated: 1
EndChar

StartChar: approxequal
Encoding: 8776 8776 366
Width: 695
GlyphClass: 2
Flags: W
LayerCount: 2
Fore
SplineSet
499 530 m 0,0,1
 517 530 517 530 537 535.5 c 128,-1,2
 557 541 557 541 575 549.5 c 128,-1,3
 593 558 593 558 608.5 568.5 c 128,-1,4
 624 579 624 579 635 590 c 1,5,-1
 635 448 l 1,6,7
 612 427 612 427 574 411.5 c 128,-1,8
 536 396 536 396 493 396 c 0,9,10
 460 396 460 396 422.5 405 c 128,-1,11
 385 414 385 414 346 424.5 c 128,-1,12
 307 435 307 435 268.5 444 c 128,-1,13
 230 453 230 453 196 453 c 0,14,15
 178 453 178 453 158 447.5 c 128,-1,16
 138 442 138 442 119.5 434 c 128,-1,17
 101 426 101 426 85.5 415 c 128,-1,18
 70 404 70 404 60 394 c 1,19,-1
 60 535 l 1,20,21
 71 546 71 546 87.5 555.5 c 128,-1,22
 104 565 104 565 123.5 572.5 c 128,-1,23
 143 580 143 580 163 584 c 128,-1,24
 183 588 183 588 201 588 c 0,25,26
 234 588 234 588 271.5 579 c 128,-1,27
 309 570 309 570 348.5 559 c 128,-1,28
 388 548 388 548 426.5 539 c 128,-1,29
 465 530 465 530 499 530 c 0,0,1
499 283 m 0,30,31
 517 283 517 283 537 288.5 c 128,-1,32
 557 294 557 294 575 302.5 c 128,-1,33
 593 311 593 311 608.5 321.5 c 128,-1,34
 624 332 624 332 635 343 c 1,35,-1
 635 201 l 1,36,37
 612 179 612 179 574 164 c 128,-1,38
 536 149 536 149 493 149 c 0,39,40
 460 149 460 149 422.5 157.5 c 128,-1,41
 385 166 385 166 346 176.5 c 128,-1,42
 307 187 307 187 268.5 196 c 128,-1,43
 230 205 230 205 196 205 c 0,44,45
 178 205 178 205 158 200 c 128,-1,46
 138 195 138 195 119.5 186.5 c 128,-1,47
 101 178 101 178 85.5 167.5 c 128,-1,48
 70 157 70 157 60 147 c 1,49,-1
 60 287 l 1,50,51
 71 298 71 298 87.5 308 c 128,-1,52
 104 318 104 318 123.5 325 c 128,-1,53
 143 332 143 332 163 336 c 128,-1,54
 183 340 183 340 201 340 c 0,55,56
 234 340 234 340 271.5 331 c 128,-1,57
 309 322 309 322 348.5 311.5 c 128,-1,58
 388 301 388 301 426.5 292 c 128,-1,59
 465 283 465 283 499 283 c 0,30,31
EndSplineSet
Validated: 1
EndChar

StartChar: notequal
Encoding: 8800 8800 367
Width: 695
GlyphClass: 2
Flags: W
LayerCount: 2
Fore
SplineSet
583 720 m 1,0,-1
 514 562 l 1,1,-1
 635 562 l 1,2,-1
 635 419 l 1,3,-1
 452 419 l 1,4,-1
 400 301 l 1,5,-1
 635 301 l 1,6,-1
 635 158 l 1,7,-1
 338 158 l 1,8,-1
 270 0 l 1,9,-1
 110 0 l 1,10,-1
 178 158 l 1,11,-1
 60 158 l 1,12,-1
 60 301 l 1,13,-1
 240 301 l 1,14,-1
 292 419 l 1,15,-1
 60 419 l 1,16,-1
 60 562 l 1,17,-1
 354 562 l 1,18,-1
 423 720 l 1,19,-1
 583 720 l 1,0,-1
EndSplineSet
Validated: 1
EndChar

StartChar: lessequal
Encoding: 8804 8804 368
Width: 695
GlyphClass: 2
Flags: W
LayerCount: 2
Fore
SplineSet
60 535 m 1,0,-1
 634 737 l 1,1,-1
 634 590 l 1,2,-1
 211 466 l 1,3,-1
 634 342 l 1,4,-1
 634 196 l 1,5,-1
 60 398 l 1,6,-1
 60 535 l 1,0,-1
635 143 m 1,7,-1
 635 0 l 1,8,-1
 60 0 l 1,9,-1
 60 143 l 1,10,-1
 635 143 l 1,7,-1
EndSplineSet
Validated: 1
EndChar

StartChar: greaterequal
Encoding: 8805 8805 369
Width: 695
GlyphClass: 2
Flags: W
LayerCount: 2
Fore
SplineSet
61 737 m 1,0,-1
 635 535 l 1,1,-1
 635 398 l 1,2,-1
 61 196 l 1,3,-1
 61 342 l 1,4,-1
 483 466 l 1,5,-1
 61 590 l 1,6,-1
 61 737 l 1,0,-1
60 143 m 1,7,-1
 635 143 l 1,8,-1
 635 0 l 1,9,-1
 60 0 l 1,10,-1
 60 143 l 1,7,-1
EndSplineSet
Validated: 1
EndChar

StartChar: lozenge
Encoding: 9674 9674 370
Width: 1849
GlyphClass: 2
Flags: W
LayerCount: 2
Fore
SplineSet
1749 700 m 1,0,-1
 1749 0 l 1,1,-1
 1065 0 l 1,2,-1
 1065 567 l 1,3,-1
 1316 567 l 1,4,-1
 1316 130 l 1,5,-1
 1160 130 l 1,6,-1
 1160 53 l 1,7,-1
 1696 53 l 1,8,-1
 1696 647 l 1,9,-1
 153 647 l 1,10,-1
 153 53 l 1,11,-1
 915 53 l 1,12,-1
 915 130 l 1,13,-1
 759 130 l 1,14,-1
 759 567 l 1,15,-1
 854 567 l 1,16,-1
 854 212 l 1,17,-1
 915 212 l 1,18,-1
 915 567 l 1,19,-1
 1010 567 l 1,20,-1
 1010 0 l 1,21,-1
 100 0 l 1,22,-1
 100 700 l 1,23,-1
 1749 700 l 1,0,-1
1465 263 m 1,24,-1
 1465 212 l 1,25,-1
 1622 212 l 1,26,-1
 1622 130 l 1,27,-1
 1371 130 l 1,28,-1
 1371 567 l 1,29,-1
 1622 567 l 1,30,-1
 1622 263 l 1,31,-1
 1465 263 l 1,24,-1
320 485 m 1,32,-1
 320 212 l 1,33,-1
 383 212 l 1,34,-1
 383 437 l 1,35,-1
 477 437 l 1,36,-1
 477 130 l 1,37,-1
 226 130 l 1,38,-1
 226 567 l 1,39,-1
 477 567 l 1,40,-1
 477 485 l 1,41,-1
 320 485 l 1,32,-1
532 130 m 1,42,-1
 532 567 l 1,43,-1
 727 567 l 1,44,-1
 727 485 l 1,45,-1
 626 485 l 1,46,-1
 626 130 l 1,47,-1
 532 130 l 1,42,-1
1160 212 m 1,48,-1
 1222 212 l 1,49,-1
 1222 485 l 1,50,-1
 1160 485 l 1,51,-1
 1160 212 l 1,48,-1
1465 345 m 1,52,-1
 1528 345 l 1,53,-1
 1528 485 l 1,54,-1
 1465 485 l 1,55,-1
 1465 345 l 1,52,-1
EndSplineSet
Validated: 1
EndChar

StartChar: A.ss01
Encoding: 65538 -1 373
Width: 1101
GlyphClass: 2
Flags: W
LayerCount: 2
Fore
SplineSet
677 720 m 1,0,-1
 1091 0 l 1,1,-1
 893 0 l 1,2,-1
 830 109 l 1,3,-1
 272 109 l 1,4,-1
 208 0 l 1,5,-1
 10 0 l 1,6,-1
 424 720 l 1,7,-1
 677 720 l 1,0,-1
352 251 m 1,8,-1
 749 251 l 1,9,-1
 550 600 l 1,10,-1
 352 251 l 1,8,-1
EndSplineSet
Validated: 1
EndChar

StartChar: B.ss01
Encoding: 65539 -1 374
Width: 1081
GlyphClass: 2
Flags: W
LayerCount: 2
Fore
SplineSet
841 720 m 2,0,1
 879 720 879 720 913 708 c 128,-1,2
 947 696 947 696 972 674.5 c 128,-1,3
 997 653 997 653 1011.5 622 c 128,-1,4
 1026 591 1026 591 1026 553 c 2,5,-1
 1026 490 l 2,6,7
 1026 470 1026 470 1019 448.5 c 128,-1,8
 1012 427 1012 427 999.5 409 c 128,-1,9
 987 391 987 391 970 378 c 128,-1,10
 953 365 953 365 933 361 c 1,11,12
 954 356 954 356 971 343 c 128,-1,13
 988 330 988 330 1000 312 c 128,-1,14
 1012 294 1012 294 1019 273 c 128,-1,15
 1026 252 1026 252 1026 232 c 2,16,-1
 1026 169 l 2,17,18
 1026 135 1026 135 1015 104.5 c 128,-1,19
 1004 74 1004 74 981.5 50.5 c 128,-1,20
 959 27 959 27 924.5 13.5 c 128,-1,21
 890 0 890 0 841 0 c 2,22,-1
 70 0 l 1,23,-1
 70 720 l 1,24,-1
 841 720 l 2,0,1
251 289 m 1,25,-1
 251 143 l 1,26,-1
 792 143 l 2,27,28
 818 143 818 143 832 158.5 c 128,-1,29
 846 174 846 174 846 196 c 2,30,-1
 846 237 l 2,31,32
 846 259 846 259 830.5 274 c 128,-1,33
 815 289 815 289 793 289 c 2,34,-1
 251 289 l 1,25,-1
251 432 m 1,35,-1
 792 432 l 2,36,37
 818 432 818 432 832 447 c 128,-1,38
 846 462 846 462 846 484 c 2,39,-1
 846 524 l 2,40,41
 846 546 846 546 832.5 561.5 c 128,-1,42
 819 577 819 577 793 577 c 2,43,-1
 251 577 l 1,44,-1
 251 432 l 1,35,-1
EndSplineSet
Validated: 1
EndChar

StartChar: D.ss01
Encoding: 65540 -1 375
Width: 1084
GlyphClass: 2
Flags: W
LayerCount: 2
Fore
SplineSet
808 720 m 2,0,1
 854 720 854 720 894 702.5 c 128,-1,2
 934 685 934 685 964 655 c 128,-1,3
 994 625 994 625 1011.5 585 c 128,-1,4
 1029 545 1029 545 1029 499 c 2,5,-1
 1029 219 l 2,6,7
 1029 175 1029 175 1011.5 135.5 c 128,-1,8
 994 96 994 96 964 66 c 128,-1,9
 934 36 934 36 894 18 c 128,-1,10
 854 0 854 0 808 0 c 2,11,-1
 70 0 l 1,12,-1
 70 720 l 1,13,-1
 808 720 l 2,0,1
251 143 m 1,14,-1
 783 143 l 2,15,16
 811 143 811 143 829.5 162.5 c 128,-1,17
 848 182 848 182 848 208 c 2,18,-1
 848 512 l 2,19,20
 848 538 848 538 829.5 557.5 c 128,-1,21
 811 577 811 577 783 577 c 2,22,-1
 251 577 l 1,23,-1
 251 143 l 1,14,-1
EndSplineSet
Validated: 1
EndChar

StartChar: H.ss01
Encoding: 65541 -1 376
Width: 1095
GlyphClass: 2
Flags: W
LayerCount: 2
Fore
SplineSet
251 720 m 1,0,-1
 251 432 l 1,1,-1
 844 432 l 1,2,-1
 844 720 l 1,3,-1
 1025 720 l 1,4,-1
 1025 0 l 1,5,-1
 844 0 l 1,6,-1
 844 289 l 1,7,-1
 251 289 l 1,8,-1
 251 0 l 1,9,-1
 70 0 l 1,10,-1
 70 720 l 1,11,-1
 251 720 l 1,0,-1
EndSplineSet
Validated: 1
EndChar

StartChar: J.ss02
Encoding: 65542 -1 377
Width: 569
GlyphClass: 2
Flags: W
LayerCount: 2
Fore
SplineSet
504 720 m 1,0,-1
 504 220 l 2,1,2
 504 174 504 174 486.5 134 c 128,-1,3
 469 94 469 94 439 64 c 128,-1,4
 409 34 409 34 369 17 c 128,-1,5
 329 0 329 0 284 0 c 2,6,-1
 40 0 l 1,7,-1
 40 143 l 1,8,-1
 259 143 l 2,9,10
 287 144 287 144 305.5 163 c 128,-1,11
 324 182 324 182 324 208 c 2,12,-1
 324 720 l 1,13,-1
 504 720 l 1,0,-1
EndSplineSet
Validated: 1
EndChar

StartChar: P.ss01
Encoding: 65543 -1 378
Width: 1076
GlyphClass: 2
Flags: W
LayerCount: 2
Fore
SplineSet
841 720 m 2,0,1
 878 720 878 720 911.5 705.5 c 128,-1,2
 945 691 945 691 970.5 665.5 c 128,-1,3
 996 640 996 640 1011 606.5 c 128,-1,4
 1026 573 1026 573 1026 535 c 2,5,-1
 1026 398 l 2,6,7
 1026 357 1026 357 1011 323.5 c 128,-1,8
 996 290 996 290 970.5 265 c 128,-1,9
 945 240 945 240 911.5 226.5 c 128,-1,10
 878 213 878 213 841 213 c 2,11,-1
 251 213 l 1,12,-1
 251 0 l 1,13,-1
 70 0 l 1,14,-1
 70 720 l 1,15,-1
 841 720 l 2,0,1
251 358 m 1,16,-1
 793 358 l 2,17,18
 819 358 819 358 832.5 373 c 128,-1,19
 846 388 846 388 846 410 c 2,20,-1
 846 525 l 2,21,22
 846 547 846 547 833.5 562 c 128,-1,23
 821 577 821 577 793 577 c 2,24,-1
 251 577 l 1,25,-1
 251 358 l 1,16,-1
EndSplineSet
Validated: 1
EndChar

StartChar: Q.ss01
Encoding: 65544 -1 379
Width: 1061
GlyphClass: 2
Flags: W
LayerCount: 2
Fore
SplineSet
788 720 m 2,0,1
 833 720 833 720 873 702.5 c 128,-1,2
 913 685 913 685 943 655 c 128,-1,3
 973 625 973 625 990.5 584.5 c 128,-1,4
 1008 544 1008 544 1008 499 c 2,5,-1
 1008 220 l 2,6,7
 1008 180 1008 180 994.5 144 c 128,-1,8
 981 108 981 108 957.5 79.5 c 128,-1,9
 934 51 934 51 901.5 31 c 128,-1,10
 869 11 869 11 832 4 c 1,11,-1
 962 -126 l 1,12,-1
 758 -126 l 1,13,-1
 633 0 l 1,14,-1
 273 0 l 2,15,16
 228 0 228 0 188 17 c 128,-1,17
 148 34 148 34 118 64 c 128,-1,18
 88 94 88 94 70.5 134 c 128,-1,19
 53 174 53 174 53 220 c 2,20,-1
 53 499 l 2,21,22
 53 544 53 544 70.5 584.5 c 128,-1,23
 88 625 88 625 118 655 c 128,-1,24
 148 685 148 685 188 702.5 c 128,-1,25
 228 720 228 720 273 720 c 2,26,-1
 788 720 l 2,0,1
565 271 m 1,27,-1
 693 143 l 1,28,-1
 763 143 l 2,29,30
 790 144 790 144 809 163 c 128,-1,31
 828 182 828 182 828 208 c 2,32,-1
 828 512 l 2,33,34
 828 539 828 539 809 558 c 128,-1,35
 790 577 790 577 763 577 c 2,36,-1
 298 577 l 2,37,38
 271 577 271 577 252.5 558 c 128,-1,39
 234 539 234 539 234 512 c 2,40,-1
 234 208 l 2,41,42
 234 182 234 182 252.5 163 c 128,-1,43
 271 144 271 144 298 143 c 2,44,-1
 491 143 l 1,45,-1
 365 271 l 1,46,-1
 565 271 l 1,27,-1
EndSplineSet
Validated: 1
EndChar

StartChar: R.ss01
Encoding: 65545 -1 380
Width: 1089
GlyphClass: 2
Flags: W
LayerCount: 2
Fore
SplineSet
841 720 m 2,0,1
 879 720 879 720 913 707.5 c 128,-1,2
 947 695 947 695 972 672.5 c 128,-1,3
 997 650 997 650 1011.5 618.5 c 128,-1,4
 1026 587 1026 587 1026 549 c 2,5,-1
 1026 446 l 2,6,7
 1026 426 1026 426 1019 405 c 128,-1,8
 1012 384 1012 384 999.5 366.5 c 128,-1,9
 987 349 987 349 970 336.5 c 128,-1,10
 953 324 953 324 933 320 c 1,11,12
 975 312 975 312 1000.5 280 c 128,-1,13
 1026 248 1026 248 1026 207 c 2,14,-1
 1026 0 l 1,15,-1
 846 0 l 1,16,-1
 846 196 l 2,17,18
 845 218 845 218 830 233 c 128,-1,19
 815 248 815 248 793 248 c 2,20,-1
 251 248 l 1,21,-1
 251 0 l 1,22,-1
 70 0 l 1,23,-1
 70 720 l 1,24,-1
 841 720 l 2,0,1
251 391 m 1,25,-1
 792 391 l 2,26,27
 814 391 814 391 830 403.5 c 128,-1,28
 846 416 846 416 846 438 c 2,29,-1
 846 529 l 2,30,31
 846 551 846 551 830.5 564 c 128,-1,32
 815 577 815 577 793 577 c 2,33,-1
 251 577 l 1,34,-1
 251 391 l 1,25,-1
EndSplineSet
Validated: 1
EndChar

StartChar: a.ss01
Encoding: 65546 -1 381
Width: 946
GlyphClass: 2
Flags: W
LayerCount: 2
Fore
SplineSet
585 612 m 1,0,-1
 937 0 l 1,1,-1
 750 0 l 1,2,-1
 698 90 l 1,3,-1
 249 90 l 1,4,-1
 196 0 l 1,5,-1
 9 0 l 1,6,-1
 361 612 l 1,7,-1
 585 612 l 1,0,-1
323 222 m 1,8,-1
 623 222 l 1,9,-1
 473 486 l 1,10,-1
 323 222 l 1,8,-1
EndSplineSet
Validated: 1
EndChar

StartChar: b.ss01
Encoding: 65547 -1 382
Width: 927
GlyphClass: 2
Flags: W
LayerCount: 2
Fore
SplineSet
713 612 m 2,0,1
 747 612 747 612 777 601.5 c 128,-1,2
 807 591 807 591 829 572 c 128,-1,3
 851 553 851 553 864 526 c 128,-1,4
 877 499 877 499 877 466 c 2,5,-1
 877 414 l 2,6,7
 877 383 877 383 859 351.5 c 128,-1,8
 841 320 841 320 812 306 c 1,9,10
 826 298 826 298 838 286 c 128,-1,11
 850 274 850 274 858.5 260 c 128,-1,12
 867 246 867 246 872 230.5 c 128,-1,13
 877 215 877 215 877 200 c 2,14,-1
 877 147 l 2,15,16
 877 117 877 117 867.5 90.5 c 128,-1,17
 858 64 858 64 838 44 c 128,-1,18
 818 24 818 24 787 12 c 128,-1,19
 756 0 756 0 713 0 c 2,20,-1
 63 0 l 1,21,-1
 63 612 l 1,22,-1
 713 612 l 2,0,1
233 240 m 1,23,-1
 233 133 l 1,24,-1
 672 133 l 2,25,26
 689 133 689 133 698 144 c 128,-1,27
 707 155 707 155 707 170 c 2,28,-1
 707 204 l 2,29,30
 707 219 707 219 697 229.5 c 128,-1,31
 687 240 687 240 673 240 c 2,32,-1
 233 240 l 1,23,-1
233 373 m 1,33,-1
 672 373 l 2,34,35
 689 373 689 373 698 383.5 c 128,-1,36
 707 394 707 394 707 409 c 2,37,-1
 707 442 l 2,38,39
 707 457 707 457 698.5 468 c 128,-1,40
 690 479 690 479 673 479 c 2,41,-1
 233 479 l 1,42,-1
 233 373 l 1,33,-1
EndSplineSet
Validated: 1
EndChar

StartChar: d.ss01
Encoding: 65548 -1 383
Width: 929
GlyphClass: 2
Flags: W
LayerCount: 2
Fore
SplineSet
63 0 m 1,0,-1
 63 612 l 1,1,-1
 686 612 l 2,2,3
 726 612 726 612 761 597 c 128,-1,4
 796 582 796 582 822.5 556 c 128,-1,5
 849 530 849 530 864 495 c 128,-1,6
 879 460 879 460 879 421 c 2,7,-1
 879 189 l 2,8,9
 879 151 879 151 864 117 c 128,-1,10
 849 83 849 83 822.5 57 c 128,-1,11
 796 31 796 31 761 15.5 c 128,-1,12
 726 0 726 0 686 0 c 2,13,-1
 63 0 l 1,0,-1
233 133 m 1,14,-1
 665 133 l 2,15,16
 684 133 684 133 696.5 147 c 128,-1,17
 709 161 709 161 709 180 c 2,18,-1
 709 432 l 2,19,20
 709 451 709 451 696.5 465 c 128,-1,21
 684 479 684 479 665 479 c 2,22,-1
 233 479 l 1,23,-1
 233 133 l 1,14,-1
EndSplineSet
Validated: 1
EndChar

StartChar: h.ss01
Encoding: 65549 -1 384
Width: 939
GlyphClass: 2
Flags: W
LayerCount: 2
Fore
SplineSet
233 612 m 1,0,-1
 233 373 l 1,1,-1
 706 373 l 1,2,-1
 706 612 l 1,3,-1
 876 612 l 1,4,-1
 876 0 l 1,5,-1
 706 0 l 1,6,-1
 706 240 l 1,7,-1
 233 240 l 1,8,-1
 233 0 l 1,9,-1
 63 0 l 1,10,-1
 63 612 l 1,11,-1
 233 612 l 1,0,-1
EndSplineSet
Validated: 1
EndChar

StartChar: j.ss02
Encoding: 65550 -1 385
Width: 491
GlyphClass: 2
Flags: W
LayerCount: 2
Fore
SplineSet
432 612 m 1,0,-1
 432 190 l 2,1,2
 432 150 432 150 417 115.5 c 128,-1,3
 402 81 402 81 375.5 55.5 c 128,-1,4
 349 30 349 30 314 15 c 128,-1,5
 279 0 279 0 240 0 c 2,6,-1
 36 0 l 1,7,-1
 36 133 l 1,8,-1
 219 133 l 2,9,10
 238 133 238 133 250.5 146.5 c 128,-1,11
 263 160 263 160 263 180 c 2,12,-1
 263 612 l 1,13,-1
 432 612 l 1,0,-1
EndSplineSet
Validated: 1
EndChar

StartChar: p.ss01
Encoding: 65551 -1 386
Width: 922
GlyphClass: 2
Flags: W
LayerCount: 2
Fore
SplineSet
713 612 m 2,0,1
 746 612 746 612 775.5 599 c 128,-1,2
 805 586 805 586 827.5 564.5 c 128,-1,3
 850 543 850 543 863.5 513.5 c 128,-1,4
 877 484 877 484 877 451 c 2,5,-1
 877 327 l 2,6,7
 877 292 877 292 863.5 262.5 c 128,-1,8
 850 233 850 233 827.5 212 c 128,-1,9
 805 191 805 191 775.5 179 c 128,-1,10
 746 167 746 167 713 167 c 2,11,-1
 233 167 l 1,12,-1
 233 0 l 1,13,-1
 63 0 l 1,14,-1
 63 612 l 1,15,-1
 713 612 l 2,0,1
233 301 m 1,16,-1
 673 301 l 2,17,18
 690 301 690 301 698.5 311.5 c 128,-1,19
 707 322 707 322 707 337 c 2,20,-1
 707 443 l 2,21,22
 707 458 707 458 699 468.5 c 128,-1,23
 691 479 691 479 673 479 c 2,24,-1
 233 479 l 1,25,-1
 233 301 l 1,16,-1
EndSplineSet
Validated: 1
EndChar

StartChar: q.ss01
Encoding: 65552 -1 387
Width: 909
GlyphClass: 2
Flags: W
LayerCount: 2
Fore
SplineSet
668 612 m 2,0,1
 707 612 707 612 742.5 597 c 128,-1,2
 778 582 778 582 804 556 c 128,-1,3
 830 530 830 530 845.5 495 c 128,-1,4
 861 460 861 460 861 421 c 2,5,-1
 861 190 l 2,6,7
 861 157 861 157 850 127 c 128,-1,8
 839 97 839 97 820 73 c 128,-1,9
 801 49 801 49 775 31.5 c 128,-1,10
 749 14 749 14 719 6 c 1,11,-1
 831 -105 l 1,12,-1
 648 -105 l 1,13,-1
 544 0 l 1,14,-1
 241 0 l 2,15,16
 201 0 201 0 166 15 c 128,-1,17
 131 30 131 30 104.5 55.5 c 128,-1,18
 78 81 78 81 63 115.5 c 128,-1,19
 48 150 48 150 48 190 c 2,20,-1
 48 421 l 2,21,22
 48 460 48 460 63 495 c 128,-1,23
 78 530 78 530 104.5 556 c 128,-1,24
 131 582 131 582 166 597 c 128,-1,25
 201 612 201 612 241 612 c 2,26,-1
 668 612 l 2,0,1
488 239 m 1,27,-1
 593 133 l 1,28,-1
 647 133 l 2,29,30
 665 133 665 133 678 146.5 c 128,-1,31
 691 160 691 160 691 180 c 2,32,-1
 691 432 l 2,33,34
 691 452 691 452 678 465.5 c 128,-1,35
 665 479 665 479 647 479 c 2,36,-1
 261 479 l 2,37,38
 243 479 243 479 230.5 465.5 c 128,-1,39
 218 452 218 452 218 432 c 2,40,-1
 218 180 l 2,41,42
 218 160 218 160 230.5 146.5 c 128,-1,43
 243 133 243 133 261 133 c 2,44,-1
 413 133 l 1,45,-1
 308 239 l 1,46,-1
 488 239 l 1,27,-1
EndSplineSet
Validated: 1
EndChar

StartChar: r.ss01
Encoding: 65553 -1 388
Width: 934
GlyphClass: 2
Flags: W
LayerCount: 2
Fore
SplineSet
713 612 m 2,0,1
 747 612 747 612 777 601 c 128,-1,2
 807 590 807 590 829 570.5 c 128,-1,3
 851 551 851 551 864 523.5 c 128,-1,4
 877 496 877 496 877 463 c 2,5,-1
 877 367 l 2,6,7
 877 336 877 336 859 306.5 c 128,-1,8
 841 277 841 277 812 263 c 1,9,10
 843 251 843 251 860 226 c 128,-1,11
 877 201 877 201 877 169 c 2,12,-1
 877 0 l 1,13,-1
 707 0 l 1,14,-1
 707 160 l 2,15,16
 707 175 707 175 697 185.5 c 128,-1,17
 687 196 687 196 673 196 c 2,18,-1
 233 196 l 1,19,-1
 233 0 l 1,20,-1
 63 0 l 1,21,-1
 63 612 l 1,22,-1
 713 612 l 2,0,1
233 329 m 1,23,-1
 672 329 l 2,24,25
 686 329 686 329 696.5 337 c 128,-1,26
 707 345 707 345 707 361 c 2,27,-1
 707 446 l 2,28,29
 707 461 707 461 697 470 c 128,-1,30
 687 479 687 479 673 479 c 2,31,-1
 233 479 l 1,32,-1
 233 329 l 1,23,-1
EndSplineSet
Validated: 1
EndChar

StartChar: AE.ss01
Encoding: 65566 -1 401
Width: 1801
GlyphClass: 2
Flags: W
LayerCount: 2
Fore
SplineSet
1746 720 m 1,0,-1
 1746 577 l 1,1,-1
 1087 577 l 1,2,-1
 1087 432 l 1,3,-1
 1595 432 l 1,4,-1
 1595 289 l 1,5,-1
 1087 289 l 1,6,-1
 1087 143 l 1,7,-1
 1746 143 l 1,8,-1
 1746 0 l 1,9,-1
 906 0 l 1,10,-1
 906 109 l 1,11,-1
 367 109 l 1,12,-1
 241 0 l 1,13,-1
 0 0 l 1,14,-1
 829 720 l 1,15,-1
 1746 720 l 1,0,-1
533 253 m 1,16,-1
 906 253 l 1,17,-1
 906 577 l 1,18,-1
 533 253 l 1,16,-1
EndSplineSet
Validated: 1
EndChar

StartChar: ae.ss01
Encoding: 65567 -1 402
Width: 1547
GlyphClass: 2
Flags: W
LayerCount: 2
Fore
SplineSet
1497 612 m 1,0,-1
 1497 479 l 1,1,-1
 950 479 l 1,2,-1
 950 373 l 1,3,-1
 1371 373 l 1,4,-1
 1371 240 l 1,5,-1
 950 240 l 1,6,-1
 950 133 l 1,7,-1
 1497 133 l 1,8,-1
 1497 0 l 1,9,-1
 780 0 l 1,10,-1
 780 88 l 1,11,-1
 322 88 l 1,12,-1
 220 0 l 1,13,-1
 0 0 l 1,14,-1
 705 612 l 1,15,-1
 1497 612 l 1,0,-1
474 221 m 1,16,-1
 780 221 l 1,17,-1
 780 487 l 1,18,-1
 474 221 l 1,16,-1
EndSplineSet
Validated: 1
EndChar

StartChar: Aogonek.ss01
Encoding: 65574 -1 409
Width: 1101
GlyphClass: 2
Flags: W
LayerCount: 2
Fore
SplineSet
893 0 m 1,0,-1
 830 109 l 1,1,-1
 272 109 l 1,2,-1
 208 0 l 1,3,-1
 10 0 l 1,4,-1
 424 720 l 1,5,-1
 677 720 l 1,6,-1
 1091 0 l 1,7,8
 1071 -5 1071 -5 1053 -16.5 c 128,-1,9
 1035 -28 1035 -28 1022 -42 c 128,-1,10
 1009 -56 1009 -56 1001.5 -70.5 c 128,-1,11
 994 -85 994 -85 994 -96 c 0,12,13
 994 -128 994 -128 1045 -128 c 0,14,15
 1057 -128 1057 -128 1071 -125.5 c 128,-1,16
 1085 -123 1085 -123 1099 -119.5 c 128,-1,17
 1113 -116 1113 -116 1125.5 -111.5 c 128,-1,18
 1138 -107 1138 -107 1147 -104 c 1,19,-1
 1147 -190 l 1,20,21
 1130 -195 1130 -195 1092.5 -203.5 c 128,-1,22
 1055 -212 1055 -212 1004 -212 c 0,23,24
 979 -212 979 -212 956 -207.5 c 128,-1,25
 933 -203 933 -203 915.5 -192.5 c 128,-1,26
 898 -182 898 -182 887.5 -165 c 128,-1,27
 877 -148 877 -148 877 -123 c 0,28,29
 877 -96 877 -96 898 -62.5 c 128,-1,30
 919 -29 919 -29 976 0 c 1,31,-1
 893 0 l 1,0,-1
352 251 m 1,32,-1
 749 251 l 1,33,-1
 550 600 l 1,34,-1
 352 251 l 1,32,-1
EndSplineSet
Validated: 1
EndChar

StartChar: aogonek.ss01
Encoding: 65575 -1 410
Width: 946
GlyphClass: 2
Flags: W
LayerCount: 2
Fore
SplineSet
750 0 m 1,0,-1
 698 90 l 1,1,-1
 249 90 l 1,2,-1
 196 0 l 1,3,-1
 9 0 l 1,4,-1
 361 612 l 1,5,-1
 585 612 l 1,6,-1
 937 0 l 1,7,8
 886 -19 886 -19 865 -46 c 128,-1,9
 844 -73 844 -73 844 -96 c 0,10,11
 844 -128 844 -128 895 -128 c 0,12,13
 907 -128 907 -128 921 -125.5 c 128,-1,14
 935 -123 935 -123 949 -119.5 c 128,-1,15
 963 -116 963 -116 975.5 -111.5 c 128,-1,16
 988 -107 988 -107 997 -104 c 1,17,-1
 997 -190 l 1,18,19
 980 -195 980 -195 942.5 -203.5 c 128,-1,20
 905 -212 905 -212 854 -212 c 0,21,22
 829 -212 829 -212 806 -207.5 c 128,-1,23
 783 -203 783 -203 765.5 -192.5 c 128,-1,24
 748 -182 748 -182 737.5 -165 c 128,-1,25
 727 -148 727 -148 727 -123 c 0,26,27
 727 -110 727 -110 731.5 -94.5 c 128,-1,28
 736 -79 736 -79 748 -63.5 c 128,-1,29
 760 -48 760 -48 781 -31.5 c 128,-1,30
 802 -15 802 -15 835 0 c 1,31,-1
 750 0 l 1,0,-1
323 222 m 1,32,-1
 623 222 l 1,33,-1
 473 486 l 1,34,-1
 323 222 l 1,32,-1
EndSplineSet
Validated: 1
EndChar

StartChar: Eth.ss01
Encoding: 65578 -1 413
Width: 1142
GlyphClass: 2
Flags: W
LayerCount: 2
Fore
SplineSet
866 720 m 2,0,1
 912 720 912 720 952 702.5 c 128,-1,2
 992 685 992 685 1022 655 c 128,-1,3
 1052 625 1052 625 1069.5 585 c 128,-1,4
 1087 545 1087 545 1087 499 c 2,5,-1
 1087 219 l 2,6,7
 1087 175 1087 175 1069.5 135.5 c 128,-1,8
 1052 96 1052 96 1022 66 c 128,-1,9
 992 36 992 36 952 18 c 128,-1,10
 912 0 912 0 866 0 c 2,11,-1
 128 0 l 1,12,-1
 128 289 l 1,13,-1
 0 289 l 1,14,-1
 0 432 l 1,15,-1
 128 432 l 1,16,-1
 128 720 l 1,17,-1
 866 720 l 2,0,1
309 289 m 1,18,-1
 309 143 l 1,19,-1
 841 143 l 2,20,21
 869 143 869 143 887.5 162.5 c 128,-1,22
 906 182 906 182 906 208 c 2,23,-1
 906 512 l 2,24,25
 906 538 906 538 887.5 557.5 c 128,-1,26
 869 577 869 577 841 577 c 2,27,-1
 309 577 l 1,28,-1
 309 432 l 1,29,-1
 618 432 l 1,30,-1
 618 289 l 1,31,-1
 309 289 l 1,18,-1
EndSplineSet
Validated: 1
EndChar

StartChar: eth.ss01
Encoding: 65579 -1 414
Width: 971
GlyphClass: 2
Flags: W
LayerCount: 2
Fore
SplineSet
109 370 m 1,0,-1
 109 612 l 1,1,-1
 732 612 l 2,2,3
 772 612 772 612 807 597 c 128,-1,4
 842 582 842 582 868.5 556 c 128,-1,5
 895 530 895 530 910 495 c 128,-1,6
 925 460 925 460 925 421 c 2,7,-1
 925 189 l 2,8,9
 925 151 925 151 910 117 c 128,-1,10
 895 83 895 83 868.5 57 c 128,-1,11
 842 31 842 31 807 15.5 c 128,-1,12
 772 0 772 0 732 0 c 2,13,-1
 109 0 l 1,14,-1
 109 239 l 1,15,-1
 0 239 l 1,16,-1
 0 370 l 1,17,-1
 109 370 l 1,0,-1
279 239 m 1,18,-1
 279 133 l 1,19,-1
 711 133 l 2,20,21
 730 133 730 133 742.5 147 c 128,-1,22
 755 161 755 161 755 180 c 2,23,-1
 755 432 l 2,24,25
 755 451 755 451 742.5 465 c 128,-1,26
 730 479 730 479 711 479 c 2,27,-1
 279 479 l 1,28,-1
 279 370 l 1,29,-1
 525 370 l 1,30,-1
 525 239 l 1,31,-1
 279 239 l 1,18,-1
EndSplineSet
Validated: 1
EndChar

StartChar: Hbar.ss01
Encoding: 65584 -1 419
Width: 1152
GlyphClass: 2
Flags: W
LayerCount: 2
Fore
SplineSet
100 635 m 1,0,-1
 100 720 l 1,1,-1
 281 720 l 1,2,-1
 281 635 l 1,3,-1
 871 635 l 1,4,-1
 871 720 l 1,5,-1
 1052 720 l 1,6,-1
 1052 635 l 1,7,-1
 1156 635 l 1,8,-1
 1156 492 l 1,9,-1
 1052 492 l 1,10,-1
 1052 0 l 1,11,-1
 871 0 l 1,12,-1
 871 269 l 1,13,-1
 281 269 l 1,14,-1
 281 0 l 1,15,-1
 100 0 l 1,16,-1
 100 492 l 1,17,-1
 -4 492 l 1,18,-1
 -4 635 l 1,19,-1
 100 635 l 1,0,-1
871 412 m 1,20,-1
 871 492 l 1,21,-1
 281 492 l 1,22,-1
 281 412 l 1,23,-1
 871 412 l 1,20,-1
EndSplineSet
Validated: 1
EndChar

StartChar: hbar.ss01
Encoding: 65585 -1 420
Width: 993
GlyphClass: 2
Flags: W
LayerCount: 2
Fore
SplineSet
903 612 m 1,0,-1
 903 542 l 1,1,-1
 985 542 l 1,2,-1
 985 410 l 1,3,-1
 903 410 l 1,4,-1
 903 0 l 1,5,-1
 733 0 l 1,6,-1
 733 222 l 1,7,-1
 260 222 l 1,8,-1
 260 0 l 1,9,-1
 90 0 l 1,10,-1
 90 410 l 1,11,-1
 8 410 l 1,12,-1
 8 542 l 1,13,-1
 90 542 l 1,14,-1
 90 612 l 1,15,-1
 260 612 l 1,16,-1
 260 542 l 1,17,-1
 733 542 l 1,18,-1
 733 612 l 1,19,-1
 903 612 l 1,0,-1
733 355 m 1,20,-1
 733 410 l 1,21,-1
 260 410 l 1,22,-1
 260 355 l 1,23,-1
 733 355 l 1,20,-1
EndSplineSet
Validated: 1
EndChar

StartChar: Thorn.ss01
Encoding: 65591 -1 426
Width: 1079
GlyphClass: 2
Flags: W
LayerCount: 2
Fore
SplineSet
841 613 m 2,0,1
 878 613 878 613 911.5 598.5 c 128,-1,2
 945 584 945 584 970.5 559 c 128,-1,3
 996 534 996 534 1011 500 c 128,-1,4
 1026 466 1026 466 1026 428 c 2,5,-1
 1026 293 l 2,6,7
 1026 252 1026 252 1011 218.5 c 128,-1,8
 996 185 996 185 970.5 160.5 c 128,-1,9
 945 136 945 136 911.5 122.5 c 128,-1,10
 878 109 878 109 841 109 c 2,11,-1
 251 109 l 1,12,-1
 251 0 l 1,13,-1
 70 0 l 1,14,-1
 70 720 l 1,15,-1
 251 720 l 1,16,-1
 251 613 l 1,17,-1
 841 613 l 2,0,1
251 252 m 1,18,-1
 793 252 l 2,19,20
 815 252 815 252 830 267 c 128,-1,21
 845 282 845 282 846 304 c 2,22,-1
 846 418 l 2,23,24
 845 440 845 440 830 455 c 128,-1,25
 815 470 815 470 793 470 c 2,26,-1
 251 470 l 1,27,-1
 251 252 l 1,18,-1
EndSplineSet
Validated: 1
EndChar

StartChar: thorn.ss01
Encoding: 65592 -1 427
Width: 925
GlyphClass: 2
Flags: W
LayerCount: 2
Fore
SplineSet
713 531 m 2,0,1
 746 531 746 531 775.5 518 c 128,-1,2
 805 505 805 505 827.5 483.5 c 128,-1,3
 850 462 850 462 863.5 432.5 c 128,-1,4
 877 403 877 403 877 370 c 2,5,-1
 877 246 l 2,6,7
 877 211 877 211 863.5 181.5 c 128,-1,8
 850 152 850 152 827.5 131 c 128,-1,9
 805 110 805 110 775.5 98 c 128,-1,10
 746 86 746 86 713 86 c 2,11,-1
 233 86 l 1,12,-1
 233 0 l 1,13,-1
 63 0 l 1,14,-1
 63 612 l 1,15,-1
 233 612 l 1,16,-1
 233 531 l 1,17,-1
 713 531 l 2,0,1
233 220 m 1,18,-1
 673 220 l 2,19,20
 690 220 690 220 698.5 230.5 c 128,-1,21
 707 241 707 241 707 256 c 2,22,-1
 707 362 l 2,23,24
 707 377 707 377 699 387.5 c 128,-1,25
 691 398 691 398 673 398 c 2,26,-1
 233 398 l 1,27,-1
 233 220 l 1,18,-1
EndSplineSet
Validated: 1
EndChar

StartChar: four.alt
Encoding: 65599 -1 434
Width: 1185
GlyphClass: 2
Flags: W
LayerCount: 2
Fore
SplineSet
65 354 m 1,0,-1
 691 720 l 1,1,-1
 934 720 l 1,2,-1
 934 344 l 1,3,-1
 1130 344 l 1,4,-1
 1130 201 l 1,5,-1
 934 201 l 1,6,-1
 934 0 l 1,7,-1
 753 0 l 1,8,-1
 753 201 l 1,9,-1
 65 201 l 1,10,-1
 65 354 l 1,0,-1
753 344 m 1,11,-1
 753 591 l 1,12,-1
 331 344 l 1,13,-1
 753 344 l 1,11,-1
EndSplineSet
Validated: 1
EndChar

StartChar: dollar.alt
Encoding: 65600 -1 435
Width: 831
GlyphClass: 2
Flags: W
LayerCount: 2
Fore
SplineSet
604 424 m 2,0,1
 692 424 692 424 731.5 381 c 128,-1,2
 771 338 771 338 771 264 c 2,3,-1
 771 218 l 2,4,5
 771 187 771 187 761.5 161 c 128,-1,6
 752 135 752 135 731.5 115.5 c 128,-1,7
 711 96 711 96 679.5 85 c 128,-1,8
 648 74 648 74 604 74 c 2,9,-1
 530 74 l 1,10,-1
 530 -93 l 1,11,-1
 449 -93 l 1,12,-1
 449 74 l 1,13,-1
 381 74 l 1,14,-1
 381 -93 l 1,15,-1
 301 -93 l 1,16,-1
 301 74 l 1,17,-1
 75 74 l 1,18,-1
 75 203 l 1,19,-1
 565 203 l 2,20,21
 587 203 587 203 597.5 214.5 c 128,-1,22
 608 226 608 226 608 243 c 2,23,-1
 608 257 l 2,24,25
 608 278 608 278 595.5 287.5 c 128,-1,26
 583 297 583 297 565 297 c 2,27,-1
 215 297 l 2,28,29
 146 297 146 297 103 332 c 128,-1,30
 60 367 60 367 60 432 c 2,31,-1
 60 498 l 2,32,33
 60 532 60 532 71.5 560 c 128,-1,34
 83 588 83 588 104 607.5 c 128,-1,35
 125 627 125 627 154 638 c 128,-1,36
 183 649 183 649 217 649 c 2,37,-1
 301 649 l 1,38,-1
 301 801 l 1,39,-1
 381 801 l 1,40,-1
 381 649 l 1,41,-1
 449 649 l 1,42,-1
 449 801 l 1,43,-1
 530 801 l 1,44,-1
 530 649 l 1,45,-1
 738 649 l 1,46,-1
 738 519 l 1,47,-1
 265 519 l 2,48,49
 248 519 248 519 235.5 508.5 c 128,-1,50
 223 498 223 498 223 481 c 2,51,-1
 223 462 l 2,52,53
 223 445 223 445 235.5 434.5 c 128,-1,54
 248 424 248 424 266 424 c 2,55,-1
 604 424 l 2,0,1
EndSplineSet
Validated: 1
EndChar

StartChar: onequarter.alt
Encoding: 65601 -1 436
Width: 941
GlyphClass: 2
Flags: W
LayerCount: 2
Fore
SplineSet
709 720 m 1,0,-1
 231 0 l 1,1,-1
 105 0 l 1,2,-1
 584 720 l 1,3,-1
 709 720 l 1,0,-1
237 720 m 1,4,-1
 237 360 l 1,5,-1
 127 360 l 1,6,-1
 127 628 l 1,7,-1
 40 628 l 1,8,-1
 40 720 l 1,9,-1
 237 720 l 1,4,-1
444 176 m 1,10,-1
 657 360 l 1,11,-1
 818 360 l 1,12,-1
 818 171 l 1,13,-1
 896 171 l 1,14,-1
 896 80 l 1,15,-1
 818 80 l 1,16,-1
 818 0 l 1,17,-1
 708 0 l 1,18,-1
 708 80 l 1,19,-1
 444 80 l 1,20,-1
 444 176 l 1,10,-1
708 171 m 1,21,-1
 708 285 l 1,22,-1
 577 171 l 1,23,-1
 708 171 l 1,21,-1
EndSplineSet
Validated: 1
EndChar

StartChar: threequarters.alt
Encoding: 65602 -1 437
Width: 1051
GlyphClass: 2
Flags: W
LayerCount: 2
Fore
SplineSet
819 720 m 1,0,-1
 341 0 l 1,1,-1
 215 0 l 1,2,-1
 694 720 l 1,3,-1
 819 720 l 1,0,-1
296 720 m 2,4,5
 334 720 334 720 361 699.5 c 128,-1,6
 388 679 388 679 388 641 c 2,7,-1
 388 601 l 2,8,9
 388 581 388 581 375.5 563 c 128,-1,10
 363 545 363 545 343 540 c 1,11,12
 363 535 363 535 375.5 516.5 c 128,-1,13
 388 498 388 498 388 478 c 2,14,-1
 388 439 l 2,15,16
 388 405 388 405 366.5 382.5 c 128,-1,17
 345 360 345 360 296 360 c 2,18,-1
 50 360 l 1,19,-1
 50 449 l 1,20,-1
 260 449 l 2,21,22
 271 449 271 449 278.5 453.5 c 128,-1,23
 286 458 286 458 286 471 c 2,24,-1
 286 476 l 2,25,26
 286 489 286 489 278.5 494 c 128,-1,27
 271 499 271 499 260 499 c 2,28,-1
 96 499 l 1,29,-1
 96 581 l 1,30,-1
 260 581 l 2,31,32
 271 581 271 581 278.5 586 c 128,-1,33
 286 591 286 591 286 603 c 2,34,-1
 286 610 l 2,35,36
 286 622 286 622 278.5 627.5 c 128,-1,37
 271 633 271 633 260 633 c 2,38,-1
 51 633 l 1,39,-1
 51 720 l 1,40,-1
 296 720 l 2,4,5
554 176 m 1,41,-1
 767 360 l 1,42,-1
 928 360 l 1,43,-1
 928 171 l 1,44,-1
 1006 171 l 1,45,-1
 1006 80 l 1,46,-1
 928 80 l 1,47,-1
 928 0 l 1,48,-1
 818 0 l 1,49,-1
 818 80 l 1,50,-1
 554 80 l 1,51,-1
 554 176 l 1,41,-1
818 171 m 1,52,-1
 818 285 l 1,53,-1
 687 171 l 1,54,-1
 818 171 l 1,52,-1
EndSplineSet
Validated: 1
EndChar

StartChar: ordfeminine.ss01
Encoding: 65603 -1 438
Width: 571
GlyphClass: 2
Flags: W
LayerCount: 2
Fore
SplineSet
355 720 m 1,0,-1
 561 362 l 1,1,-1
 438 362 l 1,2,-1
 413 405 l 1,3,-1
 159 405 l 1,4,-1
 134 362 l 1,5,-1
 10 362 l 1,6,-1
 216 720 l 1,7,-1
 355 720 l 1,0,-1
211 498 m 1,8,-1
 360 498 l 1,9,-1
 286 628 l 1,10,-1
 211 498 l 1,8,-1
EndSplineSet
Validated: 1
EndChar

StartChar: at.ss01
Encoding: 65604 -1 439
Width: 1479
GlyphClass: 2
Flags: W
LayerCount: 2
Fore
SplineSet
1149 137 m 2,0,1
 1168 137 1168 137 1185.5 144.5 c 128,-1,2
 1203 152 1203 152 1216 165 c 128,-1,3
 1229 178 1229 178 1236.5 195 c 128,-1,4
 1244 212 1244 212 1244 231 c 2,5,-1
 1244 570 l 2,6,7
 1244 589 1244 589 1236.5 606 c 128,-1,8
 1229 623 1229 623 1216 636 c 128,-1,9
 1203 649 1203 649 1185.5 656.5 c 128,-1,10
 1168 664 1168 664 1149 664 c 2,11,-1
 330 664 l 2,12,13
 311 664 311 664 293.5 656.5 c 128,-1,14
 276 649 276 649 263 636 c 128,-1,15
 250 623 250 623 242.5 606 c 128,-1,16
 235 589 235 589 235 570 c 2,17,-1
 235 8 l 2,18,19
 235 -11 235 -11 242.5 -28.5 c 128,-1,20
 250 -46 250 -46 263 -59.5 c 128,-1,21
 276 -73 276 -73 293.5 -81.5 c 128,-1,22
 311 -90 311 -90 330 -90 c 2,23,-1
 1111 -90 l 1,24,-1
 1111 -230 l 1,25,-1
 309 -230 l 2,26,27
 257 -230 257 -230 215 -208 c 128,-1,28
 173 -186 173 -186 143 -152 c 128,-1,29
 113 -118 113 -118 96.5 -76.5 c 128,-1,30
 80 -35 80 -35 80 5 c 2,31,-1
 80 573 l 2,32,33
 80 613 80 613 96.5 654 c 128,-1,34
 113 695 113 695 143 728.5 c 128,-1,35
 173 762 173 762 215 783 c 128,-1,36
 257 804 257 804 309 804 c 2,37,-1
 1170 804 l 2,38,39
 1222 804 1222 804 1264 783 c 128,-1,40
 1306 762 1306 762 1336 728.5 c 128,-1,41
 1366 695 1366 695 1382.5 654 c 128,-1,42
 1399 613 1399 613 1399 573 c 2,43,-1
 1399 244 l 2,44,45
 1399 204 1399 204 1382.5 163 c 128,-1,46
 1366 122 1366 122 1336 88.5 c 128,-1,47
 1306 55 1306 55 1264 34 c 128,-1,48
 1222 13 1222 13 1170 13 c 2,49,-1
 528 13 l 2,50,51
 486 13 486 13 456 27 c 128,-1,52
 426 41 426 41 406.5 63.5 c 128,-1,53
 387 86 387 86 377.5 114 c 128,-1,54
 368 142 368 142 367 171 c 2,55,-1
 367 191 l 2,56,57
 368 261 368 261 406 304.5 c 128,-1,58
 444 348 444 348 528 348 c 2,59,-1
 955 348 l 1,60,-1
 955 396 l 2,61,62
 955 413 955 413 943 425.5 c 128,-1,63
 931 438 931 438 915 438 c 2,64,-1
 401 438 l 1,65,-1
 401 562 l 1,66,-1
 953 562 l 2,67,68
 986 562 986 562 1014.5 549.5 c 128,-1,69
 1043 537 1043 537 1064.5 515.5 c 128,-1,70
 1086 494 1086 494 1098.5 465 c 128,-1,71
 1111 436 1111 436 1111 403 c 2,72,-1
 1111 137 l 1,73,-1
 1149 137 l 2,0,1
523 175 m 2,74,75
 523 160 523 160 536 148.5 c 128,-1,76
 549 137 549 137 563 137 c 2,77,-1
 955 137 l 1,78,-1
 955 226 l 1,79,-1
 563 226 l 2,80,81
 549 226 549 226 536 214.5 c 128,-1,82
 523 203 523 203 523 186 c 2,83,-1
 523 175 l 2,74,75
EndSplineSet
Validated: 1
EndChar

StartChar: ampersand.alt
Encoding: 65605 -1 440
Width: 1083
GlyphClass: 2
Flags: W
LayerCount: 2
Fore
SplineSet
926 289 m 1,0,-1
 926 196 l 2,1,2
 926 101 926 101 882.5 50.5 c 128,-1,3
 839 0 839 0 741 0 c 2,4,-1
 245 0 l 2,5,6
 196 0 196 0 161 16 c 128,-1,7
 126 32 126 32 103.5 58.5 c 128,-1,8
 81 85 81 85 70.5 118 c 128,-1,9
 60 151 60 151 60 185 c 2,10,-1
 60 232 l 2,11,12
 60 251 60 251 63.5 272.5 c 128,-1,13
 67 294 67 294 78 314 c 128,-1,14
 89 334 89 334 109.5 352 c 128,-1,15
 130 370 130 370 164 383 c 1,16,17
 151 390 151 390 139.5 399 c 128,-1,18
 128 408 128 408 119 421 c 128,-1,19
 110 434 110 434 105 451.5 c 128,-1,20
 100 469 100 469 100 493 c 2,21,-1
 100 561 l 2,22,23
 100 599 100 599 114.5 628.5 c 128,-1,24
 129 658 129 658 154 678.5 c 128,-1,25
 179 699 179 699 213 709.5 c 128,-1,26
 247 720 247 720 285 720 c 2,27,-1
 665 720 l 1,28,-1
 665 577 l 1,29,-1
 333 577 l 2,30,31
 305 577 305 577 292.5 561.5 c 128,-1,32
 280 546 280 546 280 524 c 2,33,-1
 280 485 l 2,34,35
 280 464 280 464 292.5 448 c 128,-1,36
 305 432 305 432 334 432 c 2,37,-1
 746 432 l 1,38,-1
 746 532 l 1,39,-1
 926 532 l 1,40,-1
 926 432 l 1,41,-1
 1043 432 l 1,42,-1
 1043 289 l 1,43,-1
 926 289 l 1,0,-1
746 289 m 1,44,-1
 293 289 l 2,45,46
 268 289 268 289 254 274 c 128,-1,47
 240 259 240 259 240 237 c 2,48,-1
 240 196 l 2,49,50
 240 174 240 174 255 158.5 c 128,-1,51
 270 143 270 143 294 143 c 2,52,-1
 692 143 l 2,53,54
 716 143 716 143 731 158.5 c 128,-1,55
 746 174 746 174 746 196 c 2,56,-1
 746 289 l 1,44,-1
EndSplineSet
Validated: 1
EndChar
